<?xml version="1.0" standalone="no"?>
<!DOCTYPE svg PUBLIC "-//W3C//DTD SVG 20010904//EN"
 "http://www.w3.org/TR/2001/REC-SVG-20010904/DTD/svg10.dtd">
<svg version="1.0" xmlns="http://www.w3.org/2000/svg"
 width="200.000000pt" height="164.000000pt" viewBox="0 0 200.000000 164.000000"
 preserveAspectRatio="xMidYMid meet">

<g transform="translate(0.000000,164.000000) scale(0.100000,-0.100000)"
fill="#ff2d55" stroke="none">
<path d="M650 1564 c-254 -31 -449 -102 -466 -169 -9 -35 10 -53 75 -70 76
-20 101 -39 101 -77 0 -19 -38 -110 -96 -232 -162 -338 -201 -465 -191 -629 9
-161 83 -262 224 -303 71 -21 211 -20 293 1 90 23 242 104 323 170 l67 55 0
-42 c0 -48 27 -114 56 -140 11 -10 42 -27 69 -39 104 -47 410 -16 594 60 83
34 121 64 121 97 0 23 -19 33 -125 66 -25 9 -48 25 -63 48 -22 31 -23 42 -18
105 11 136 107 436 245 769 34 82 65 170 68 196 5 39 2 50 -21 77 -39 46 -96
55 -313 51 -180 -3 -183 -3 -208 -28 -18 -19 -28 -44 -35 -87 -15 -92 -43
-175 -145 -428 -120 -299 -153 -389 -185 -510 l-27 -100 -54 -19 c-30 -10 -90
-21 -134 -23 -68 -4 -85 -1 -112 16 -97 61 -30 324 212 831 56 118 106 225
110 238 10 34 -13 80 -49 100 -24 12 -61 17 -156 18 -69 1 -141 0 -160 -2z"/>
</g>
</svg>
