<svg id="e93a3768-b90b-4838-a0e1-55b4bf73b5cb" data-name="Слой 2" xmlns="http://www.w3.org/2000/svg" xmlns:xlink="http://www.w3.org/1999/xlink" viewBox="0 0 250 250"><defs><style>.b01b099f-b16c-446e-8e9a-d37f07b3b469{fill:url(#a51796bf-c82f-4f20-8d25-84f4d76cecd0);}.f819bcfc-386f-4663-8316-bd79959384cf{fill:url(#ab50543b-cdd7-472c-adf7-755958b2d3a1);}.bf8f7db4-6545-452d-953c-8e87d59cdcfb{fill:url(#ff7095fb-1dc8-497d-bc2c-f61b2557baba);}.b688b0df-2df3-4078-90f4-6ef96dc5a57f{fill:url(#b0cd47ea-8775-44ce-a0cb-2c3f57ce56da);}.a4ad1698-f29b-46b6-8046-988157fa113e{fill:url(#e48ddbce-e242-4953-bdf4-ce3833866a33);}.b67557d6-0dae-40fc-b7e3-4ad6dfae6f5a{fill:url(#ac527a1c-5bac-4d05-8cf5-7359ce93e7ed);}</style><linearGradient id="a51796bf-c82f-4f20-8d25-84f4d76cecd0" x1="-3870.16" y1="603.45" x2="-3813.25" y2="603.45" gradientTransform="translate(-3716.03 732.23) rotate(180)" gradientUnits="userSpaceOnUse"><stop offset="0" stop-color="#7e64e2"/><stop offset="1" stop-color="#41a6ef"/></linearGradient><linearGradient id="ab50543b-cdd7-472c-adf7-755958b2d3a1" x1="-3841.7" y1="603.45" x2="-3813.25" y2="603.45" xlink:href="#a51796bf-c82f-4f20-8d25-84f4d76cecd0"/><linearGradient id="ff7095fb-1dc8-497d-bc2c-f61b2557baba" x1="147.4" y1="102.43" x2="124.17" y2="109.76" gradientTransform="matrix(1, 0, 0, 1, 0, 0)" xlink:href="#a51796bf-c82f-4f20-8d25-84f4d76cecd0"/><linearGradient id="b0cd47ea-8775-44ce-a0cb-2c3f57ce56da" x1="-3870.16" y1="598.21" x2="-3841.7" y2="598.21" xlink:href="#a51796bf-c82f-4f20-8d25-84f4d76cecd0"/><linearGradient id="e48ddbce-e242-4953-bdf4-ce3833866a33" x1="109.24" y1="134.02" x2="127.28" y2="134.02" gradientUnits="userSpaceOnUse"><stop offset="0" stop-color="#41a6ef"/><stop offset="0.98" stop-color="#577fea"/></linearGradient><linearGradient id="ac527a1c-5bac-4d05-8cf5-7359ce93e7ed" x1="-3933.53" y1="607.23" x2="-3748.54" y2="607.23" xlink:href="#a51796bf-c82f-4f20-8d25-84f4d76cecd0"/></defs><polygon class="b01b099f-b16c-446e-8e9a-d37f07b3b469" points="125.67 167.03 154.13 113.85 142.21 90.52 125.67 90.52 109.14 90.52 97.22 113.85 125.67 167.03"/><polygon class="f819bcfc-386f-4663-8316-bd79959384cf" points="125.67 167.03 97.22 113.85 109.14 90.52 109.25 113.67 125.67 167.03"/><polygon class="bf8f7db4-6545-452d-953c-8e87d59cdcfb" points="127.28 101.01 142.21 90.52 154.13 113.85 127.28 101.01"/><polygon class="b688b0df-2df3-4078-90f4-6ef96dc5a57f" points="125.67 167.03 127.28 101.01 154.13 113.85 125.67 167.03"/><polygon class="a4ad1698-f29b-46b6-8046-988157fa113e" points="109.25 113.67 127.28 101.01 125.67 167.03 109.25 113.67"/><path class="b67557d6-0dae-40fc-b7e3-4ad6dfae6f5a" d="M85.92,214.37h47.46L146.19,190h31l40.27-76.59-23.41-49.2H179l23.26,48.89L169,176.43H153.34l33.14-63L164.76,67.91h0l-1.71-3.6-38.88-.19H87.78L64.32,113.45,104.76,190h26.06l-5.65,10.74H94.11L47.72,113.13l30.4-63.9h77.73l-6.48-13.6H69.53l-37,77.82Zm27-37.94-33.43-63.3L96.37,77.71h27.76l30.32.16,16.82,35.27L138,176.43Z"/></svg>