<svg width="20" height="20" viewBox="0 0 20 20" fill="none" xmlns="http://www.w3.org/2000/svg">
<g opacity="0.5">
<path d="M10.8333 17.4483C10.5569 17.4826 10.2786 17.4999 10 17.5C8.51664 17.5 7.0666 17.0601 5.83323 16.236C4.59986 15.4119 3.63856 14.2406 3.07091 12.8701C2.50325 11.4997 2.35472 9.99168 2.64411 8.53683C2.9335 7.08197 3.64781 5.7456 4.6967 4.6967C5.7456 3.64781 7.08197 2.9335 8.53683 2.64411C9.99168 2.35472 11.4997 2.50325 12.8701 3.07091C14.2406 3.63856 15.4119 4.59986 16.236 5.83323C17.0601 7.0666 17.5 8.51664 17.5 10C17.4999 10.2786 17.4826 10.5569 17.4483 10.8333" stroke="#96A1DB" stroke-linecap="round" stroke-linejoin="round"/>
<path d="M16.6663 14.1666L14.583 16.25L13.333 15" stroke="#96A1DB" stroke-linecap="round" stroke-linejoin="round"/>
<path d="M10.417 5.83337V10.4167H6.66699" stroke="#96A1DB" stroke-linecap="round" stroke-linejoin="round"/>
</g>
</svg>
