<svg width="20" height="20" viewBox="0 0 20 20" fill="none" xmlns="http://www.w3.org/2000/svg">
<path d="M17.2483 11.08L11.08 17.2483C10.4833 17.845 9.51585 17.845 8.91918 17.2483L2.75084 11.08C2.15418 10.4833 2.15418 9.51585 2.75084 8.91918L8.91918 2.75084C9.51585 2.15418 10.4833 2.15418 11.08 2.75084L17.2483 8.91918C17.845 9.51668 17.845 10.4833 17.2483 11.08Z" stroke="white" stroke-linecap="round" stroke-linejoin="round"/>
<path d="M13.1395 10.4679L10.468 13.1395C10.2095 13.3979 9.7905 13.3979 9.53208 13.1395L6.8605 10.4679C6.60208 10.2095 6.60208 9.79044 6.8605 9.53202L9.53208 6.86044C9.7905 6.60202 10.2095 6.60202 10.468 6.86044L13.1395 9.53202C13.398 9.7908 13.398 10.2095 13.1395 10.4679Z" stroke="white" stroke-linecap="round" stroke-linejoin="round"/>
</svg>
