<svg width="644" height="166" viewBox="0 0 644 166" fill="none" xmlns="http://www.w3.org/2000/svg">
<g opacity="0.2">
<path d="M424.728 251.502C462.536 307.22 447.574 385.33 391.835 423.115C336.095 460.901 258.014 445.964 220.219 390.229C202.968 364.803 193.003 329.198 202.138 299.011C211.32 268.673 240.145 250.107 257.273 224.365C264.137 214.058 266.69 200.831 273.665 191.001C283.411 177.289 304.376 183.911 317.699 187.365C357.781 197.769 400.714 216.162 424.728 251.502Z" stroke="url(#paint0_linear_153_720)" stroke-width="1.35" stroke-linecap="round" stroke-linejoin="round"/>
<path d="M429.424 248.341C468.95 306.645 453.311 388.337 395.024 427.861C336.737 467.385 255.028 451.748 215.485 393.492C196.848 366.029 188.172 330.125 196.072 297.481C204.4 263.067 232.841 244.799 253.691 218.903C261.861 208.739 267.633 193.272 277.314 184.507C289.295 173.668 308.107 178.482 321.961 182.121C362.405 192.756 405.329 212.803 429.424 248.341Z" stroke="url(#paint1_linear_153_720)" stroke-width="1.3" stroke-linecap="round" stroke-linejoin="round"/>
<path d="M434.143 245.142C475.426 306.046 459.158 391.276 398.223 432.58C337.289 473.883 252.089 457.594 210.786 396.66C190.851 367.129 183.383 330.921 190.006 295.912C192.881 280.462 197.266 265.905 207.65 253.82C220.363 239.013 237.24 228.529 249.89 213.452C258.373 203.333 267.958 190.851 277.862 182.167C291.706 169.978 310.312 172.8 326.783 177.134C367.549 187.831 409.971 209.476 434.143 245.142Z" stroke="url(#paint2_linear_153_720)" stroke-width="1.25" stroke-linecap="round" stroke-linejoin="round"/>
<path d="M438.854 241.94C481.615 304.99 464.058 394.264 401.426 437.291C338.224 480.703 248.846 462.671 206.068 399.86C184.609 368.306 178.91 331.724 184.015 294.409C186.443 276.68 189.428 258.724 202.017 245.106C215.085 230.971 233.232 222.781 246.203 208.258C269.29 182.39 296.108 162.675 331.991 172.202C372.483 182.976 415.071 206.852 438.854 241.94Z" stroke="url(#paint3_linear_153_720)" stroke-width="1.2" stroke-linecap="round" stroke-linejoin="round"/>
<path d="M443.573 238.74C488.091 304.414 469.845 397.219 404.625 442.009C338.822 487.202 245.659 468.419 201.356 403.062C178.572 369.494 174.361 332.592 178.11 292.967C179.807 274.989 180.525 254.378 192.943 240.046C206.394 224.516 228.403 218.791 242.748 203.44C265.711 178.869 303.466 158.246 337.298 167.206C377.598 177.857 420.104 204.119 443.573 238.74Z" stroke="url(#paint4_linear_153_720)" stroke-width="1.15" stroke-linecap="round" stroke-linejoin="round"/>
<path d="M448.284 235.538C494.556 303.78 475.603 400.188 407.82 446.718C339.42 493.662 242.681 474.182 196.638 406.261C172.567 370.739 169.581 333.254 172.295 291.658C173.48 273.441 171.859 250.287 183.839 235.006C197.231 217.921 223.975 215.031 239.587 198.996C252.551 185.699 266.328 181.463 282.29 173.27C302.173 163.063 320.151 156.421 342.56 162.232C382.532 172.603 425.178 201.463 448.284 235.538Z" stroke="url(#paint5_linear_153_720)" stroke-width="1.1" stroke-linecap="round" stroke-linejoin="round"/>
<path d="M452.996 232.336C501.066 303.239 481.42 403.062 411.023 451.43C339.98 500.247 239.735 479.88 191.929 409.457C166.641 372.213 164.711 333.928 166.571 290.413C167.377 271.252 163.33 243.216 177.132 227.606C183.647 220.209 194.495 217.789 203.276 214.45C215.621 209.719 227.257 204.47 236.728 194.992C244.03 187.666 250.643 181.08 260.624 177.731C267.663 175.365 274.715 174.468 281.63 171.536C303.662 162.129 322.759 150.831 347.48 157.333C387.297 167.771 430.072 198.519 452.996 232.336Z" stroke="url(#paint6_linear_153_720)" stroke-width="1.05" stroke-linecap="round" stroke-linejoin="round"/>
<path d="M457.714 229.137C507.508 302.605 487.198 406.038 414.222 456.148C340.608 506.703 236.67 485.627 187.217 412.659C160.893 373.828 159.419 334.604 160.976 289.321C161.674 269.102 155.239 238.743 170.213 222.292C177.797 213.956 190.151 212.587 200.418 209.381C212.821 205.506 224.921 200.755 234.154 191.382C241.653 183.767 249.328 176.431 259.989 173.659C267.789 171.629 275.126 171.725 282.85 168.741C305.731 159.911 326.212 145.662 351.771 152.115C391.427 162.15 435.148 195.855 457.714 229.137Z" stroke="url(#paint7_linear_153_720)" stroke-linecap="round" stroke-linejoin="round"/>
<path d="M462.426 225.935C513.507 301.312 492.835 409.745 417.424 460.86C342.012 511.975 233.468 492.03 182.499 415.858C169.86 397.114 161.046 376.06 156.561 353.903C152.102 331.577 154.689 310.822 155.547 288.405C156.312 268.364 148.17 235.537 162.271 218.425C170.177 208.84 185.977 207.892 197.106 205.289C209.84 202.301 222.676 197.594 231.808 188.078C238.721 180.872 246.342 172.818 256.497 170.384C265.734 168.177 274.425 169.447 283.639 166.181C307.296 157.793 328.885 140.233 355.244 146.954C376.31 152.324 395.219 166.04 413.066 178.006C432.383 190.911 449.403 206.75 462.426 225.935Z" stroke="url(#paint8_linear_153_720)" stroke-width="0.95" stroke-linecap="round" stroke-linejoin="round"/>
<path d="M467.137 222.733C520.319 301.164 499.4 412.545 420.631 465.558C342.286 518.31 230.9 497.382 177.76 419.05C149.957 378.057 147.455 335.255 150.092 287.457C151.255 266.401 141.231 230.345 157.649 213.145C166.406 204.007 182.809 203.997 194.35 201.782C207.302 199.272 220.386 194.831 229.586 184.979C236.357 177.744 242.45 168.93 252.715 166.681C262.083 164.622 271.387 167.31 280.966 164.583C306.69 157.328 329.252 134.69 357.559 141.456C378.39 146.434 396.987 160.927 414.702 172.347C435.4 185.676 453.28 202.294 467.137 222.733Z" stroke="url(#paint9_linear_153_720)" stroke-width="0.9" stroke-linecap="round" stroke-linejoin="round"/>
<path d="M471.853 219.54C526.795 300.542 505.168 415.509 423.826 470.29C342.903 524.8 227.944 503.129 173.069 422.259C144.473 380.112 141.342 335.594 144.709 286.396C146.231 264.22 135.245 228.468 152.667 210.235C171.765 190.254 208.914 205.302 227.293 181.717C232.937 174.48 238.184 164.615 247.988 162.368C258.4 159.966 268.596 164.957 279.411 162.079C306.115 154.979 329.717 129.574 358.922 135.514C380.267 139.858 399.852 156.089 417.861 167.608C439.189 181.188 457.616 198.542 471.853 219.54Z" stroke="url(#paint10_linear_153_720)" stroke-width="0.85" stroke-linecap="round" stroke-linejoin="round"/>
<path d="M476.572 216.341C533.294 299.944 510.943 418.454 427.025 475.008C343.504 531.293 224.979 508.898 168.357 425.462C154.396 404.84 144.675 381.648 139.76 357.234C134.857 332.661 137.532 310.013 139.324 285.442C141.018 262.139 129.341 230.072 146.397 210.288C165.974 187.566 207.814 206.054 224.459 177.875C229.765 168.882 234.085 158.589 245.365 156.969C256.306 155.395 266.101 161.851 277.469 159.396C306.147 153.135 329.478 123.312 360.586 128.869C383.264 132.921 404.866 152.307 423.771 164.595C444.639 178.158 462.59 195.75 476.572 216.341V216.341Z" stroke="url(#paint11_linear_153_720)" stroke-width="0.8" stroke-linecap="round" stroke-linejoin="round"/>
<path d="M481.283 213.139C539.743 299.312 516.699 421.429 430.224 479.727C344.156 537.75 222.017 514.659 163.639 428.661C133.336 384.024 129.491 336.608 133.685 284.45C135.59 260.817 121.784 227.473 141.964 208.505C164.824 187.011 206.014 202.043 221.051 173.35C225.942 164.084 229.523 151.046 242.216 150.544C253.958 150.081 263.358 158.073 275.538 155.852C305.85 150.312 330.015 116.451 362.578 121.652C385.004 125.237 405.465 146.227 424.14 158.048C446.775 172.285 466.228 191.04 481.283 213.139V213.139Z" stroke="url(#paint12_linear_153_720)" stroke-width="0.75" stroke-linecap="round" stroke-linejoin="round"/>
<path d="M486.001 209.939C546.191 298.664 522.46 424.414 433.426 484.438C344.781 544.197 219.039 520.422 158.92 431.861C144.112 409.975 133.808 385.361 128.608 359.453C123.419 333.319 126.194 309.656 128.257 283.534C130.121 259.886 115.09 230.217 134.299 210.184C157.745 185.697 203.867 200.751 217.059 168.068C220.785 158.863 223.576 143.728 236.249 143.196C249.239 142.656 260.183 153.479 273.656 151.795C306.041 147.75 330.698 109.104 364.82 114.004C377.873 115.872 388.192 124.612 398.057 132.589C408.408 140.942 418.837 147.789 429.979 154.994C452.138 169.381 471.187 188.064 486.001 209.939V209.939Z" stroke="url(#paint13_linear_153_720)" stroke-width="0.7" stroke-linecap="round" stroke-linejoin="round"/>
<path d="M490.72 206.739C552.909 298.414 528.289 426.955 436.619 489.154C344.949 551.353 216.495 526.258 154.202 435.06C138.585 412.048 127.843 386.082 122.638 358.763C117.669 332.677 120.378 308.623 122.553 282.572C124.605 258.003 106.856 229.443 129.833 209.724C155.527 187.67 201.866 197.065 212.579 162.141C215.915 151.262 217.478 135.007 232.005 135.2C246.86 135.397 258.306 148.265 273.863 146.377C306.991 142.357 333.146 101.416 367.21 106.179C381.192 108.131 391.23 118.004 401.274 127.013C411.038 135.758 420.795 142.362 431.774 149.385C455.104 164.314 475.158 183.827 490.72 206.739V206.739Z" stroke="url(#paint14_linear_153_720)" stroke-width="0.65" stroke-linecap="round" stroke-linejoin="round"/>
<path d="M495.438 203.54C559.351 297.763 534.061 429.952 439.826 493.875C345.59 557.798 213.529 532.033 149.493 438.255C134.118 415.64 123.335 390.224 117.756 363.452C111.932 335.385 114.57 309.709 116.994 281.593C119.239 255.56 99.1833 232.139 124.143 211.053C138.683 198.764 158.966 194.331 176.534 188.101C194.513 181.729 203.407 174.013 207.586 155.577C210.318 143.527 211.309 124.365 228.084 126.185C242.58 127.756 254.34 139.649 269.315 140.511C307.152 142.676 332.953 93.5445 369.753 98.0415C383.627 99.7394 393.426 110.377 402.766 119.698C412.774 129.676 422.948 137.036 434.876 144.633C458.858 159.948 479.465 179.992 495.438 203.54V203.54Z" stroke="url(#paint15_linear_153_720)" stroke-width="0.6" stroke-linecap="round" stroke-linejoin="round"/>
<path d="M500.156 200.34C565.865 297.163 539.829 432.893 443.027 498.586C346.226 564.28 210.571 537.803 144.775 441.455C128.635 417.706 117.436 390.955 111.844 362.79C106.205 334.361 109.387 308.897 111.553 280.519C113.468 255.525 91.2714 234.88 116.053 213.883C132.991 199.547 156.004 194.377 175.938 185.722C194.285 177.742 199.019 167.238 202.203 148.587C204.296 136.352 204.208 116.039 220.78 116.198C237.351 116.358 252.581 132.055 269.461 134.266C287.688 136.651 304.025 125.435 318.599 115.95C332.913 106.631 353.735 87.8198 372.406 89.7445C386.886 91.2323 396.985 104.28 405.977 114.181C416.09 125.308 426.716 132.564 439.309 140.74C463.351 156.365 484.037 176.627 500.156 200.34V200.34Z" stroke="url(#paint16_linear_153_720)" stroke-width="0.55" stroke-linecap="round" stroke-linejoin="round"/>
<path d="M504.866 197.145C572.338 296.509 545.536 435.858 446.22 503.302C346.905 570.747 207.507 543.972 140.056 444.655C123.153 419.761 111.521 391.672 105.875 362.116C100.509 333.801 103.225 307.823 105.88 279.538C107.013 267.415 102.273 260.872 98.444 249.867C93.1819 234.751 100.012 222.652 112.478 213.462C131.441 199.484 154.948 193.842 175.547 183.011C193.415 173.623 194.764 160.12 196.652 140.999C198.157 125.774 198.249 102.72 219.239 106.773C237.077 110.214 251.681 124.357 269.594 128.033C287.664 131.742 302.964 121.714 317.45 112.135C333.071 101.772 354.632 80.2214 374.835 81.8116C390.339 83.0339 400.022 97.8025 409.061 108.656C418.588 120.085 428.667 127.135 441.152 135.102C466.378 151.248 488.056 172.357 504.866 197.145Z" stroke="url(#paint17_linear_153_720)" stroke-width="0.5" stroke-linecap="round" stroke-linejoin="round"/>
<path d="M509.584 193.946C578.79 295.894 551.315 438.834 449.413 508.018C347.511 577.202 204.525 549.749 135.347 447.85C99.8388 395.543 93.9957 339.564 100.328 278.454C101.723 264.93 95.7777 260.698 91.4777 249.045C85.7363 233.496 94.828 223.413 107.428 214.294C127.19 199.977 151.273 194.013 172.044 181.673C191.603 170.028 190.523 154.741 191.286 133.54C191.849 117.928 191.374 93.6013 212.959 96.2903C231.367 98.58 247.536 113.95 264.77 120.156C286.052 127.829 301.548 118.616 319.245 106.504C334.845 95.8178 356.848 72.9626 377.194 73.9679C392.757 74.7742 402.086 90.3503 410.583 101.406C420.574 114.392 430.615 121.612 444.233 130.305C470.106 146.868 492.341 168.52 509.584 193.946V193.946Z" stroke="url(#paint18_linear_153_720)" stroke-width="0.45" stroke-linecap="round" stroke-linejoin="round"/>
<path d="M514.293 190.751C585.253 295.267 557.087 441.808 452.606 512.734C348.124 583.661 201.558 555.524 130.629 451.049C113.217 425.408 101.128 396.533 95.0765 366.135C89.0269 335.601 91.8547 307.769 94.7989 277.287C96.039 264.443 90.9212 260.066 85.3403 249.514C78.0243 235.664 88.3831 224.307 99.6995 216.234C120.674 201.236 145.936 193.967 167.986 180.931C189.858 168.008 186.29 148.873 186.125 126.255C186.013 111.065 184.906 85.1598 206.323 86.1312C226.885 87.0691 246.718 106.489 265.255 114.011C285.912 122.393 300.313 115.208 317.938 103.123C334.015 92.0733 358.312 65.3855 379.496 66.2801C395.822 66.9716 405.175 84.7886 413.498 96.3259C423.604 110.328 434.345 117.118 448.581 126.327C474.562 143.205 496.904 165.109 514.293 190.751Z" stroke="url(#paint19_linear_153_720)" stroke-width="0.4" stroke-linecap="round" stroke-linejoin="round"/>
<path d="M519.011 187.551C591.344 294.567 562.843 444.783 455.835 517.433C348.827 590.082 198.582 561.28 125.893 454.234C88.782 399.575 81.8985 340.159 89.1827 276.211C90.641 263.4 86.7533 259.798 79.8962 249.635C68.8341 233.232 87.3063 220.334 100.363 212.37C122.304 198.981 148.026 191.563 169.037 176.717C188.218 163.156 181.78 139.431 181.085 119.205C180.572 104.445 179.734 76.6123 201.103 77.1444C222.932 77.6976 245.137 98.0234 264.199 107.124C284.081 116.629 297.663 112.422 315.592 100.432C333.23 88.6513 358.568 59.2802 381.322 59.3554C397.596 59.4068 407.048 77.8811 414.865 89.419C424.642 103.907 434.856 110.922 449.303 120.037C476.933 137.511 500.663 160.494 519.011 187.551Z" stroke="url(#paint20_linear_153_720)" stroke-width="0.35" stroke-linecap="round" stroke-linejoin="round"/>
<path d="M523.727 184.358C597.807 293.94 568.609 447.754 458.993 522.182C349.377 596.61 195.604 567.066 121.169 457.448C83.9871 402.647 74.1845 339.665 83.6369 275.153C85.9429 259.642 80.3721 258.314 73.2494 247.043C63.5521 231.679 81.9549 220.052 93.6388 212.765C116.889 198.262 147.864 191.037 168.707 172.824C185.552 158.087 177.181 131.59 176.286 112.465C175.487 95.3006 176.584 67.9693 200.411 70.3969C223.38 72.7362 243.784 90.2847 263.609 100.498C284.296 111.146 297.697 108.499 317.062 95.3807C334.904 83.2904 359.84 53.6968 382.847 53.158C399.28 52.7686 408.543 71.1514 416.17 82.8738C426.499 98.6971 436.921 105.519 452.434 115.312C480.693 133.181 504.963 156.686 523.727 184.358Z" stroke="url(#paint21_linear_153_720)" stroke-width="0.3" stroke-linecap="round" stroke-linejoin="round"/>
</g>
<defs>
<linearGradient id="paint0_linear_153_720" x1="293.757" y1="432.359" x2="373.291" y2="213.74" gradientUnits="userSpaceOnUse">
<stop stop-color="#7F64E2"/>
<stop offset="1" stop-color="#41A6EF"/>
</linearGradient>
<linearGradient id="paint1_linear_153_720" x1="291.968" y1="437.35" x2="375.295" y2="208.302" gradientUnits="userSpaceOnUse">
<stop stop-color="#7F64E2"/>
<stop offset="1" stop-color="#41A6EF"/>
</linearGradient>
<linearGradient id="paint2_linear_153_720" x1="289.718" y1="442.179" x2="376.855" y2="202.651" gradientUnits="userSpaceOnUse">
<stop stop-color="#7F64E2"/>
<stop offset="1" stop-color="#41A6EF"/>
</linearGradient>
<linearGradient id="paint3_linear_153_720" x1="287.04" y1="446.635" x2="377.919" y2="196.815" gradientUnits="userSpaceOnUse">
<stop stop-color="#7F64E2"/>
<stop offset="1" stop-color="#41A6EF"/>
</linearGradient>
<linearGradient id="paint4_linear_153_720" x1="284.243" y1="451.259" x2="378.997" y2="190.778" gradientUnits="userSpaceOnUse">
<stop stop-color="#7F64E2"/>
<stop offset="1" stop-color="#41A6EF"/>
</linearGradient>
<linearGradient id="paint5_linear_153_720" x1="281.322" y1="455.801" x2="379.945" y2="184.676" gradientUnits="userSpaceOnUse">
<stop stop-color="#7F64E2"/>
<stop offset="1" stop-color="#41A6EF"/>
</linearGradient>
<linearGradient id="paint6_linear_153_720" x1="278.455" y1="460.375" x2="380.873" y2="178.804" gradientUnits="userSpaceOnUse">
<stop stop-color="#7F64E2"/>
<stop offset="1" stop-color="#41A6EF"/>
</linearGradient>
<linearGradient id="paint7_linear_153_720" x1="275.916" y1="465.059" x2="382.195" y2="172.869" gradientUnits="userSpaceOnUse">
<stop stop-color="#7F64E2"/>
<stop offset="1" stop-color="#41A6EF"/>
</linearGradient>
<linearGradient id="paint8_linear_153_720" x1="273.457" y1="469.688" x2="383.39" y2="167.445" gradientUnits="userSpaceOnUse">
<stop stop-color="#7F64E2"/>
<stop offset="1" stop-color="#41A6EF"/>
</linearGradient>
<linearGradient id="paint9_linear_153_720" x1="271.882" y1="474.494" x2="385.484" y2="162.161" gradientUnits="userSpaceOnUse">
<stop stop-color="#7F64E2"/>
<stop offset="1" stop-color="#41A6EF"/>
</linearGradient>
<linearGradient id="paint10_linear_153_720" x1="270.433" y1="479.573" x2="387.859" y2="156.731" gradientUnits="userSpaceOnUse">
<stop stop-color="#7F64E2"/>
<stop offset="1" stop-color="#41A6EF"/>
</linearGradient>
<linearGradient id="paint11_linear_153_720" x1="269.136" y1="484.692" x2="390.61" y2="150.724" gradientUnits="userSpaceOnUse">
<stop stop-color="#7F64E2"/>
<stop offset="1" stop-color="#41A6EF"/>
</linearGradient>
<linearGradient id="paint12_linear_153_720" x1="267.627" y1="489.698" x2="393.316" y2="144.149" gradientUnits="userSpaceOnUse">
<stop stop-color="#7F64E2"/>
<stop offset="1" stop-color="#41A6EF"/>
</linearGradient>
<linearGradient id="paint13_linear_153_720" x1="266.119" y1="494.692" x2="396.15" y2="137.213" gradientUnits="userSpaceOnUse">
<stop stop-color="#7F64E2"/>
<stop offset="1" stop-color="#41A6EF"/>
</linearGradient>
<linearGradient id="paint14_linear_153_720" x1="264.645" y1="499.891" x2="399.171" y2="130.064" gradientUnits="userSpaceOnUse">
<stop stop-color="#7F64E2"/>
<stop offset="1" stop-color="#41A6EF"/>
</linearGradient>
<linearGradient id="paint15_linear_153_720" x1="263.349" y1="504.938" x2="402.427" y2="122.609" gradientUnits="userSpaceOnUse">
<stop stop-color="#7F64E2"/>
<stop offset="1" stop-color="#41A6EF"/>
</linearGradient>
<linearGradient id="paint16_linear_153_720" x1="261.688" y1="509.855" x2="405.375" y2="114.862" gradientUnits="userSpaceOnUse">
<stop stop-color="#7F64E2"/>
<stop offset="1" stop-color="#41A6EF"/>
</linearGradient>
<linearGradient id="paint17_linear_153_720" x1="260.135" y1="514.997" x2="408.39" y2="107.459" gradientUnits="userSpaceOnUse">
<stop stop-color="#7F64E2"/>
<stop offset="1" stop-color="#41A6EF"/>
</linearGradient>
<linearGradient id="paint18_linear_153_720" x1="258.567" y1="519.964" x2="411.294" y2="100.138" gradientUnits="userSpaceOnUse">
<stop stop-color="#7F64E2"/>
<stop offset="1" stop-color="#41A6EF"/>
</linearGradient>
<linearGradient id="paint19_linear_153_720" x1="257.034" y1="524.952" x2="414.151" y2="93.0677" gradientUnits="userSpaceOnUse">
<stop stop-color="#7F64E2"/>
<stop offset="1" stop-color="#41A6EF"/>
</linearGradient>
<linearGradient id="paint20_linear_153_720" x1="255.455" y1="529.92" x2="416.727" y2="86.6177" gradientUnits="userSpaceOnUse">
<stop stop-color="#7F64E2"/>
<stop offset="1" stop-color="#41A6EF"/>
</linearGradient>
<linearGradient id="paint21_linear_153_720" x1="253.965" y1="535.015" x2="419.16" y2="80.9282" gradientUnits="userSpaceOnUse">
<stop stop-color="#7F64E2"/>
<stop offset="1" stop-color="#41A6EF"/>
</linearGradient>
</defs>
</svg>
