<svg width="20" height="20" viewBox="0 0 20 20" fill="none" xmlns="http://www.w3.org/2000/svg">
<path d="M13.0254 8.24155L16.3488 5.96556H16.3473C16.6766 5.72116 17.1557 5.81281 17.3802 6.16413C17.4551 6.28634 17.5 6.42381 17.5 6.57656V14.3058C17.5 15.1459 16.8263 15.8333 16.003 15.8333H4.02695L4.01198 15.8318C3.17365 15.8165 2.51497 15.1444 2.51497 14.289V6.54448H2.5C2.5 6.11678 2.82934 5.78073 3.2485 5.78073C3.38323 5.78073 3.53293 5.81128 3.65269 5.90293L6.97605 8.16365L9.34132 4.52817V4.51289C9.56587 4.16156 10.0299 4.05464 10.3743 4.29904C10.4491 4.34487 10.524 4.42124 10.5689 4.49762L13.0254 8.24155Z" stroke="white" stroke-linecap="round" stroke-linejoin="round"/>
</svg>
