<svg width="20" height="20" viewBox="0 0 20 20" fill="none" xmlns="http://www.w3.org/2000/svg">
<path d="M17.2483 11.08L11.08 17.2483C10.4833 17.845 9.51583 17.845 8.91916 17.2483L2.75083 11.08C2.15416 10.4833 2.15416 9.51585 2.75083 8.91918L8.91916 2.75084C9.51583 2.15418 10.4833 2.15418 11.08 2.75084L17.2483 8.91918C17.845 9.51668 17.845 10.4833 17.2483 11.08Z" stroke="white" stroke-linecap="round" stroke-linejoin="round"/>
<path d="M13.1395 10.4679L10.4679 13.1395C10.2095 13.3979 9.79049 13.3979 9.53206 13.1395L6.86049 10.4679C6.60207 10.2095 6.60207 9.79044 6.86049 9.53202L9.53206 6.86044C9.79049 6.60202 10.2095 6.60202 10.4679 6.86044L13.1395 9.53202C13.3979 9.7908 13.3979 10.2095 13.1395 10.4679Z" stroke="white" stroke-linecap="round" stroke-linejoin="round"/>
</svg>
