<svg width="20" height="20" viewBox="0 0 20 20" fill="none" xmlns="http://www.w3.org/2000/svg">
<path d="M6.66699 17.5V3.33333V3.33333C6.66699 2.8731 7.04009 2.5 7.50033 2.5H12.5003V2.5C12.9606 2.5 13.3337 2.8731 13.3337 3.33333V17.5" stroke="white" stroke-linecap="round" stroke-linejoin="round"/>
<path d="M17.5007 17.5V6.59421V6.59421C17.5007 6.17401 17.16 5.83337 16.7398 5.83337H13.334" stroke="white" stroke-linecap="round" stroke-linejoin="round"/>
<path d="M6.66667 5.83337H3.26083H3.26083C2.84064 5.83337 2.5 6.17401 2.5 6.59421V6.59421V17.5" stroke="white" stroke-linecap="round" stroke-linejoin="round"/>
<path d="M13.334 8.33337H15.4173" stroke="white" stroke-linecap="round" stroke-linejoin="round"/>
<path d="M13.334 10.8334H15.4173" stroke="white" stroke-linecap="round" stroke-linejoin="round"/>
<path d="M13.334 13.3334H15.4173" stroke="white" stroke-linecap="round" stroke-linejoin="round"/>
<path d="M4.58398 8.33337H6.66732" stroke="white" stroke-linecap="round" stroke-linejoin="round"/>
<path d="M4.58398 10.8334H6.66732" stroke="white" stroke-linecap="round" stroke-linejoin="round"/>
<path d="M4.58398 13.3334H6.66732" stroke="white" stroke-linecap="round" stroke-linejoin="round"/>
<path d="M8.75 10.8334H11.25" stroke="white" stroke-linecap="round" stroke-linejoin="round"/>
<path d="M8.75 13.3334H11.25" stroke="white" stroke-linecap="round" stroke-linejoin="round"/>
<path d="M8.75 8.33337H11.25" stroke="white" stroke-linecap="round" stroke-linejoin="round"/>
<path d="M8.75 5.83337H11.25" stroke="white" stroke-linecap="round" stroke-linejoin="round"/>
<path d="M10 15.8334V17.5" stroke="white" stroke-linecap="round" stroke-linejoin="round"/>
<path d="M18.3337 17.5H1.66699" stroke="white" stroke-linecap="round" stroke-linejoin="round"/>
</svg>
