<svg xmlns:xlink="http://www.w3.org/1999/xlink" xmlns="http://www.w3.org/2000/svg" width="16" height="14"><g fill="none" fill-rule="evenodd"><path d="M-2-3h20v20H-2z"/><path fill="#bac1e6" fill-rule="nonzero" d="M15.778 1.919c-.552.28-1.197.466-1.841.466.644-.373 1.196-1.026 1.38-1.772-.644.373-1.288.653-2.024.746C12.74.706 11.912.333 10.99.333c-1.747 0-3.22 1.492-3.22 3.264 0 .28 0 .467.092.746C5.192 4.25 2.799 2.945 1.235.986a3.252 3.252 0 00-.46 1.679c0 1.119.552 2.145 1.472 2.704-.552 0-1.012-.186-1.473-.373 0 1.586 1.105 2.891 2.578 3.171-.276.093-.553.093-.829.093-.184 0-.368 0-.644-.093.368 1.306 1.565 2.238 3.038 2.238-1.105.84-2.486 1.4-3.958 1.4H.222a8.866 8.866 0 004.879 1.491c5.89 0 9.112-4.942 9.112-9.232v-.467c.552-.373 1.105-1.025 1.565-1.678z"/></g></svg>