<svg xmlns:xlink="http://www.w3.org/1999/xlink" xmlns="http://www.w3.org/2000/svg" width="16" height="16"><g fill="none"><path d="M0 0h16v16H0z"/><circle cx="8" cy="8" r="8" fill="#F0F0F0"/><path d="M1.654 3.13A7.97 7.97 0 00.276 5.912h4.161L1.654 3.13zm14.07 2.783a7.971 7.971 0 00-1.378-2.784l-2.783 2.784h4.161zM.276 10.087a7.972 7.972 0 001.378 2.784l2.783-2.784H.276zM12.87 1.654A7.971 7.971 0 0010.088.276v4.161l2.784-2.783zM3.13 14.346a7.972 7.972 0 002.783 1.378v-4.161L3.13 14.346zM5.913.276a7.972 7.972 0 00-2.784 1.378l2.784 2.783V.276zm4.174 15.448a7.972 7.972 0 002.784-1.378l-2.784-2.783v4.161zm1.476-5.637l2.783 2.784a7.971 7.971 0 001.378-2.784h-4.161z" fill="#0052B4"/><g fill="#D80027"><path d="M15.932 6.957H9.044V.067a8.08 8.08 0 00-2.087 0v6.89H.067a8.08 8.08 0 000 2.086h6.89v6.89a8.08 8.08 0 002.086 0v-6.89h6.89a8.08 8.08 0 000-2.086z"/><path d="M10.087 10.087l3.57 3.57a8.02 8.02 0 00.47-.514l-3.056-3.056h-.984zm-4.174 0l-3.57 3.57c.164.164.336.32.514.47l3.056-3.056v-.984zm0-4.174l-3.57-3.57a8.02 8.02 0 00-.47.514l3.056 3.056h.984zm4.174 0l3.57-3.57a8.01 8.01 0 00-.514-.47l-3.056 3.056v.984z"/></g></g></svg>