<svg width="638" height="178" viewBox="0 0 638 178" fill="none" xmlns="http://www.w3.org/2000/svg">
<g opacity="0.2">
<path d="M385.37 258.025C394.549 294.315 371.183 332.603 335.24 342.154C298.607 351.908 260.2 327.815 251.111 292.023C246.974 275.763 247.963 255.31 259.569 242.033C271.086 228.86 289.592 224.281 301.482 211.682C305.794 207.137 309.967 199.342 315.867 196.598C324.099 192.78 333.199 199.057 339.918 203.522C358.921 216.175 379.619 235.296 385.37 258.025Z" stroke="url(#paint0_linear_13_2370)" stroke-width="1.75" stroke-linecap="round" stroke-linejoin="round"/>
<path d="M390.273 256.785C400.108 295.598 375.477 337.475 336.464 347.076C297.851 356.582 255.665 332.473 246.173 293.268C242.003 276.046 242.526 253.48 255.19 239.626C267.765 225.876 288.04 221.603 300.123 207.433C304.522 202.265 308.233 193.089 314.217 189.458C322.567 184.391 333.062 192.288 339.841 196.871C361.005 211.158 383.764 231.09 390.273 256.785Z" stroke="url(#paint1_linear_13_2370)" stroke-width="1.7" stroke-linecap="round" stroke-linejoin="round"/>
<path d="M395.191 255.525C405.712 296.986 379.417 341.668 337.722 351.968C296.443 362.139 251.765 335.83 241.282 294.494C236.744 276.702 237.344 251.363 250.907 237.157C264.69 222.718 285.953 219.003 298.914 203.126C303.727 197.239 307.169 186.515 313.623 182.288C321.956 176.843 333.085 185.58 339.963 190.271C362.932 205.955 388.071 227.516 395.191 255.525Z" stroke="url(#paint2_linear_13_2370)" stroke-width="1.65" stroke-linecap="round" stroke-linejoin="round"/>
<path d="M400.082 254.299C411.27 298.475 383.328 345.918 338.954 356.881C294.967 367.754 247.541 339.778 236.373 295.753C231.604 276.989 232.061 249.438 246.607 234.669C261.542 219.479 283.989 216.182 297.795 198.793C302.789 192.499 306.282 180.664 312.674 175.738C321.176 169.235 333.395 179.259 340.46 184.128C365.209 201.182 392.407 223.965 400.082 254.299Z" stroke="url(#paint3_linear_13_2370)" stroke-width="1.6" stroke-linecap="round" stroke-linejoin="round"/>
<path d="M404.985 253.059C416.946 300.292 387.423 349.819 340.195 361.783C292.966 373.748 243.64 343.864 231.466 296.998C226.293 277.128 226.838 247.599 242.166 231.872C257.901 215.731 281.818 212.716 296.805 194.346C302.355 187.538 305.497 176.218 311.818 170.349C320.935 161.885 333.508 172.977 341.548 178.513C367.932 196.692 396.79 220.712 404.985 253.059Z" stroke="url(#paint4_linear_13_2370)" stroke-width="1.55" stroke-linecap="round" stroke-linejoin="round"/>
<path d="M409.88 251.828C422.52 301.729 391.329 354.065 341.427 366.696C291.526 379.327 239.421 347.776 226.563 298.238C221.172 277.462 221.64 245.564 237.817 229.139C245.137 221.735 254.899 218.348 263.991 213.776C275.995 207.739 287.041 199.897 295.892 189.768C301.985 182.802 305.682 170.15 312.645 164.334C321.952 156.565 335.362 167.838 343.233 173.314C371.115 192.715 401.205 217.531 409.88 251.828Z" stroke="url(#paint5_linear_13_2370)" stroke-width="1.5" stroke-linecap="round" stroke-linejoin="round"/>
<path d="M414.785 250.574C428.109 303.177 395.266 358.272 342.66 371.609C290.054 384.946 234.966 352.084 221.626 299.483C215.893 276.801 216.615 244.544 233.381 226.386C240.96 218.176 250.783 213.86 260.72 209.252C273.529 203.342 285.142 195.127 294.98 185.016C301.832 177.98 305.891 165.005 313.507 159.298C323.865 151.534 337.55 163.075 346.214 169.086C375.22 189.176 405.798 215.091 414.785 250.574Z" stroke="url(#paint6_linear_13_2370)" stroke-width="1.45" stroke-linecap="round" stroke-linejoin="round"/>
<path d="M419.688 249.334C433.699 304.603 399.187 362.498 343.916 376.492C288.644 390.485 230.755 355.986 216.758 300.719C210.583 276.345 211.925 243.451 228.885 223.373C236.169 214.735 245.584 209.295 255.666 204.45C269.675 197.729 282.386 190.431 294.11 180.004C302.06 172.953 306.707 162.107 314.609 155.519C325.493 146.441 340.965 159.096 350.146 165.412C379.853 185.886 410.51 213.084 419.688 249.334Z" stroke="url(#paint7_linear_13_2370)" stroke-width="1.4" stroke-linecap="round" stroke-linejoin="round"/>
<path d="M424.591 248.093C439.28 306.062 403.111 366.711 345.161 381.398C287.21 396.085 226.539 359.915 211.851 301.964C205.155 275.529 207.586 242.764 224.327 220.295C241.068 197.826 271.032 190.927 293.003 174.713C301.814 168.21 309.201 155.178 318.794 150.462C330.844 144.54 345.297 155.55 354.644 162.01C384.892 182.903 415.29 211.376 424.591 248.093Z" stroke="url(#paint8_linear_13_2370)" stroke-width="1.35" stroke-linecap="round" stroke-linejoin="round"/>
<path d="M429.497 246.848C444.847 307.509 407.08 370.958 346.401 386.301C285.722 401.644 222.303 363.869 206.952 303.2C199.741 274.612 203.345 242.034 219.819 217.185C237.189 190.975 266.467 184.346 291.698 169.022C301.521 163.057 310.557 152.627 321.003 147.866C334.604 141.661 349.008 151.649 359.825 159.09C390.495 180.206 420.122 209.787 429.497 246.848Z" stroke="url(#paint9_linear_13_2370)" stroke-width="1.3" stroke-linecap="round" stroke-linejoin="round"/>
<path d="M434.4 245.608C450.417 308.919 410.994 375.195 347.642 391.204C284.289 407.213 218.055 367.798 202.051 304.449C194.277 273.657 199.203 241.349 215.248 214.074C222.617 201.536 231.031 190.537 244.074 183.568C258.948 175.628 275.479 171.867 290.181 163.35C300.324 157.474 312.082 149.961 323.001 145.685C338.248 139.7 352.926 147.696 365.374 156.287C396.171 177.597 425.002 208.505 434.4 245.608Z" stroke="url(#paint10_linear_13_2370)" stroke-width="1.25" stroke-linecap="round" stroke-linejoin="round"/>
<path d="M439.287 244.347C455.897 309.966 414.212 379.162 348.871 396.09C282.963 413.197 213.808 371.069 197.124 305.679C188.762 272.861 195.109 240.583 210.663 210.991C218.076 196.901 225.992 182.836 240.624 175.28C255.815 167.443 273.427 166.098 288.671 157.905C315.867 143.271 344.081 134.913 371.226 153.728C401.768 174.887 430.09 207.988 439.287 244.347Z" stroke="url(#paint11_linear_13_2370)" stroke-width="1.2" stroke-linecap="round" stroke-linejoin="round"/>
<path d="M444.208 243.113C461.483 311.428 418.155 383.381 350.131 401.008C281.514 418.786 209.426 374.926 192.236 306.931C183.397 271.974 191.014 239.878 206.175 208.008C212.832 193.983 219.452 177.383 233.342 168.92C249.216 159.248 270.371 161.399 287.273 152.817C313.865 139.301 351.707 133.505 377.168 151.269C407.588 172.493 435.064 206.953 444.208 243.113Z" stroke="url(#paint12_linear_13_2370)" stroke-width="1.15" stroke-linecap="round" stroke-linejoin="round"/>
<path d="M449.126 241.884C467.064 312.886 422.087 387.615 351.386 405.922C280.098 424.384 205.213 378.85 187.345 308.188C178 271.23 186.921 239.08 201.734 205.108C208.347 189.93 214.351 169.126 229.83 160.497C246.433 151.246 268.31 156.686 285.978 148.158C300.847 140.983 313.606 141.623 329.422 139.616C349.109 137.117 366.132 137.013 383.079 148.644C413.282 169.431 440.146 206.423 449.126 241.884Z" stroke="url(#paint13_linear_13_2370)" stroke-width="1.1" stroke-linecap="round" stroke-linejoin="round"/>
<path d="M454.018 240.628C472.682 314.38 426.038 391.762 352.622 410.821C278.53 430.056 201.017 382.692 182.432 309.42C172.609 270.704 182.533 238.109 197.326 202.401C203.912 186.52 208.405 163.807 224.053 154.088C232.456 148.871 242.462 150.249 251.947 150.067C263.319 149.855 274.34 148.806 284.786 143.951C293.813 139.741 301.638 136.171 311.775 136.755C318.261 137.137 323.961 138.258 330.586 137.836C351.371 136.48 370.381 133.473 388.636 145.975C418.752 166.567 445.164 205.628 454.018 240.628Z" stroke="url(#paint14_linear_13_2370)" stroke-width="1.05" stroke-linecap="round" stroke-linejoin="round"/>
<path d="M458.921 239.387C478.074 315.13 429.649 396.565 353.862 415.724C278.076 434.883 196.337 387.024 177.529 310.661C172.942 292.339 171.909 273.307 174.486 254.596C177.305 234.76 185.62 218.06 192.984 199.752C199.689 183.083 203.514 155.792 220.99 146.592C229.76 141.976 240.654 144.368 250.126 144.961C261.566 145.697 273.319 145.136 283.736 140.155C291.995 136.199 300.492 132.253 309.973 133.059C317.787 133.724 324.437 136.24 332.448 135.994C353.841 135.339 374.882 130.026 393.813 143.059C423.838 163.779 450.096 204.482 458.921 239.387Z" stroke="url(#paint15_linear_13_2370)" stroke-linecap="round" stroke-linejoin="round"/>
<path d="M463.827 238.142C483.796 317.062 434.298 400.886 355.108 420.631C276.376 440.254 192.573 390.748 172.619 311.911C167.595 291.947 166.682 271.17 169.936 250.843C173.103 231.45 181.413 215.207 188.7 197.284C195.493 180.604 198.785 149.362 216.884 140.247C226.384 135.467 239.631 139.554 249.521 140.661C260.761 141.932 272.617 141.73 282.752 136.672C290.45 132.877 299.317 128.535 308.243 129.363C316.156 130.105 323.096 133.813 331.232 134.093C354.065 134.886 377.66 125.824 398.296 139.678C413.985 150.24 425.118 167.166 436.29 182.076C448.996 199.03 458.613 217.526 463.827 238.142Z" stroke="url(#paint16_linear_13_2370)" stroke-width="0.95" stroke-linecap="round" stroke-linejoin="round"/>
<path d="M468.734 236.897C489.378 318.489 438.184 405.118 356.353 425.537C274.959 445.843 188.328 394.632 167.716 313.152C162.646 293.02 161.623 272.082 164.707 251.552C167.839 230.975 176.492 213.879 184.511 194.991C191.977 177.381 194.057 146.812 212.171 136.122C221.978 130.351 234.179 134.508 244.662 136.264C257.487 138.406 270.1 139.265 281.877 133.409C289.315 129.714 298.031 124.501 306.805 125.473C314.701 126.329 321.447 131.148 329.532 131.873C353.555 134.039 380.03 121.218 401.852 135.895C418.057 146.794 429.587 164.765 441.17 180.159C453.997 197.151 463.498 216.216 468.734 236.897Z" stroke="url(#paint17_linear_13_2370)" stroke-width="0.9" stroke-linecap="round" stroke-linejoin="round"/>
<path d="M473.636 235.656C494.972 319.941 442.103 409.326 357.593 430.44C273.504 451.451 184.137 398.549 162.809 314.397C157.577 293.611 156.522 271.994 159.706 250.798C162.95 229.513 171.804 211.891 180.338 192.482C188.473 173.986 189.634 143.601 208.813 132.221C219.302 126.01 231.525 130.549 242.617 132.737C255.69 135.317 269.044 136.797 280.995 130.061C288.786 125.663 297.673 119.79 307.08 121.522C315.926 123.169 322.344 128.884 331.795 129.555C355.721 131.251 382.786 117.483 404.782 131.342C421.678 142.046 433.29 161.469 445.234 177.112C458.562 194.506 468.224 214.422 473.636 235.656Z" stroke="url(#paint18_linear_13_2370)" stroke-width="0.85" stroke-linecap="round" stroke-linejoin="round"/>
<path d="M478.547 234.406C500.574 321.393 446.024 413.544 358.819 435.331C272.037 457.033 179.895 402.459 157.887 315.622C152.484 294.181 151.402 271.88 154.703 250.017C158.077 227.969 167.003 209.958 176.054 189.942C184.352 171.596 184.553 139.785 204.702 129.029C228.538 116.306 256.209 142.064 280.101 126.196C287.747 121.115 297.679 114.036 307.532 116.883C315.031 119.049 320.08 124.894 328.127 126.374C354.408 131.226 383.449 111.587 408.17 126.312C425.779 136.822 436.991 158.195 449.271 174.09C463.049 191.984 473.013 212.511 478.547 234.406V234.406Z" stroke="url(#paint19_linear_13_2370)" stroke-width="0.8" stroke-linecap="round" stroke-linejoin="round"/>
<path d="M483.446 233.171C506.155 322.811 449.944 417.793 360.079 440.249C270.642 462.624 175.686 406.369 153 316.882C141.241 270.496 152.333 229.652 171.68 187.427C180.679 167.816 178.951 136.962 201.506 126.293C212.499 121.091 227.257 124.404 238.509 126.652C254.047 129.777 265.882 130.494 279.282 121.825C286.899 116.905 297.132 108.218 307.027 111.328C315.465 113.983 319.699 121.482 329.028 123.018C355.993 127.48 386.479 106.651 412.047 120.834C429.679 130.617 440.403 154.341 452.413 169.86C467 188.605 477.564 210.158 483.446 233.171V233.171Z" stroke="url(#paint20_linear_13_2370)" stroke-width="0.75" stroke-linecap="round" stroke-linejoin="round"/>
<path d="M488.357 231.929C511.835 324.623 454.047 421.693 361.32 445.152C268.592 468.611 171.781 410.469 148.097 318.114C142.316 295.363 141.159 271.684 144.695 248.478C148.261 225.158 157.768 206.09 167.42 185.001C176.686 164.747 172.595 133.246 198.17 124.24C210.59 119.858 225.409 122.56 238.045 124.311C254.423 126.578 264.798 126.26 278.526 116.87C285.633 112.005 296.766 101.97 306.513 104.902C315.196 107.508 319.287 116.975 328.717 119.097C356.979 125.459 389.291 100.746 416.244 115.137C426.579 120.649 432.549 131.07 438.363 140.72C444.46 150.844 451.112 159.699 458.229 169.089C472.368 187.813 482.612 209.18 488.357 231.929Z" stroke="url(#paint21_linear_13_2370)" stroke-width="0.7" stroke-linecap="round" stroke-linejoin="round"/>
<path d="M493.264 230.684C517.416 326.05 457.911 425.891 362.566 450.067C267.22 474.244 167.553 414.382 143.186 319.364C137.367 296.47 136.099 272.656 139.454 249.274C142.993 224.76 152.694 204.621 162.956 182.488C172.463 162.016 165.854 134.094 191.327 124.011C205.688 118.331 222.772 121.058 237.742 122.141C254.103 123.324 264.386 120.84 277.757 111.348C285.708 105.71 297.224 94.4958 307.977 98.5867C316.612 101.879 319.644 111.587 329.278 114.233C358.401 122.269 393.369 94.5675 420.685 109.248C430.925 114.75 436.487 125.236 441.754 135.081C447.175 145.183 453.464 154.795 460.548 163.809C475.934 183.615 487.071 206.381 493.264 230.684V230.684Z" stroke="url(#paint22_linear_13_2370)" stroke-width="0.65" stroke-linecap="round" stroke-linejoin="round"/>
<path d="M498.167 229.443C523.001 327.464 461.841 430.147 363.806 454.97C265.771 479.793 163.117 418.656 138.294 320.621C132.065 296.056 130.923 270.476 134.94 245.453C138.817 221.486 148.494 201.686 158.62 179.995C168.173 159.535 158.655 132.43 185.873 123.095C202.588 117.366 221.432 120.044 238.7 120.003C254.395 119.965 264.514 114.467 276.974 105.301C285.019 99.3782 298.512 85.6817 309.835 91.5464C318.004 95.7782 321.024 105.502 330.16 109.141C344.107 114.69 361.997 109.523 375.779 106.568C390.258 103.502 410.843 95.6937 425.282 103.21C435.536 108.549 440.552 119.444 445.287 129.361C451.385 142.127 457.807 151.748 466.292 162.999C481.246 182.797 492.084 205.389 498.167 229.443Z" stroke="url(#paint23_linear_13_2370)" stroke-width="0.6" stroke-linecap="round" stroke-linejoin="round"/>
<path d="M503.073 228.198C528.605 328.924 465.764 434.351 365.052 459.877C264.339 485.402 158.902 422.563 133.377 321.85C127.103 297.134 125.846 271.412 129.68 246.203C133.572 220.875 143.942 200.334 154.378 177.432C164.556 155.069 151.004 130.511 182.756 121.815C199.668 117.183 217.514 118.835 234.807 117.829C252.739 116.787 262.056 109.581 276.049 98.7934C284.26 92.4607 298.453 77.656 310.345 83.2473C319.896 87.7324 323.185 100.242 333.585 104.79C346.324 110.363 362 106.17 374.88 103.222C390.169 99.7444 414.324 89.2831 429.922 97.1256C441.044 102.716 445.66 115.563 450.018 126.314C454.898 138.358 460.756 147.654 468.664 157.744C484.883 178.596 496.6 202.586 503.073 228.198V228.198Z" stroke="url(#paint24_linear_13_2370)" stroke-width="0.55" stroke-linecap="round" stroke-linejoin="round"/>
<path d="M507.976 226.958C534.208 330.344 469.622 438.568 366.3 464.77C262.977 490.971 154.71 426.44 128.455 323.084C122.02 297.711 120.739 271.306 124.687 245.43C128.693 219.318 139.318 198.427 150.066 174.847C159.602 153.938 143.71 132.176 173.391 122.353C192.225 116.132 212.945 117.677 232.409 115.917C251.679 114.181 261.239 103.721 275.381 91.9225C283.539 85.1048 298.631 69.6001 311.046 74.7002C320.517 78.592 324.328 92.2115 332.695 98.1034C345.893 107.395 363.974 102.494 378.304 98.9644C393.305 95.2955 419 83.9008 434.522 91.1136C446.651 96.7462 450.48 112.093 454.565 123.403C459.309 136.523 465.994 145.817 474.362 156.89C490.112 177.779 501.54 201.6 507.976 226.958V226.958Z" stroke="url(#paint25_linear_13_2370)" stroke-width="0.5" stroke-linecap="round" stroke-linejoin="round"/>
<path d="M512.884 225.721C539.779 331.794 473.561 442.792 367.528 469.687C261.495 496.582 150.478 430.389 123.563 324.341C109.798 270.055 121.696 221.245 145.64 172.316C151.087 161.185 147.108 155.455 146.985 144.08C146.847 130.235 158.951 123.997 170.916 120.777C191.18 115.33 212.501 116.714 233.103 113.606C251.898 110.765 261.353 96.9159 274.589 85.0268C283.488 77.0376 299.858 60.6506 313.457 67.0886C323.856 72.0159 326.765 87.1896 336.021 94.0323C349.268 103.814 367.139 98.5601 381.632 94.7679C396.996 90.7533 423.214 78.3669 438.891 85.2872C451.172 90.7127 454.443 106.453 458.03 117.781C462.41 131.587 468.005 140.505 476.736 151.724C493.758 173.633 506.065 198.827 512.884 225.721V225.721Z" stroke="url(#paint26_linear_13_2370)" stroke-width="0.45" stroke-linecap="round" stroke-linejoin="round"/>
<path d="M517.786 224.481C545.37 333.22 477.47 447.025 368.757 474.605C260.044 502.185 146.253 434.288 118.664 325.576C104.668 270.318 116.236 219.365 141.344 169.711C146.869 158.776 143.17 153.913 141.799 143.094C139.874 128.167 154.687 122.702 166.901 119.549C189.199 113.812 212.716 115.944 235.046 110.709C252.437 106.637 261.711 89.3646 273.582 78.0918C282.534 69.6041 301.823 51.0355 316.029 59.5063C325.163 64.9923 328.52 79.2283 335.719 86.6992C349.21 100.684 368.224 95.2125 384.854 90.6391C400.697 86.2505 426.539 72.9462 442.942 79.7386C455.444 84.9303 458.258 100.626 461.444 112.183C465.883 128.177 472.562 137.775 482.409 150.77C499.001 172.734 511.03 197.796 517.786 224.481V224.481Z" stroke="url(#paint27_linear_13_2370)" stroke-width="0.4" stroke-linecap="round" stroke-linejoin="round"/>
<path d="M522.689 223.24C550.952 334.656 481.378 451.249 370.009 479.493C258.64 507.737 142.001 438.182 113.757 326.813C99.3751 270.106 111.406 218.083 137.03 167.076C142.513 156.164 139.043 152.359 137.094 141.18C134.564 126.665 148.393 121.303 160.371 118.291C184.736 112.22 212.082 115.707 235.848 107.634C252.346 102.022 260.834 82.3951 272.185 71.1569C281.27 62.1606 301.647 43.9588 316.404 51.8008C327.46 57.6816 330.539 74.1211 338.863 82.8437C350.154 94.6805 364.451 92.6077 379.04 89.0089C391.462 85.9363 403.482 81.5377 415.791 78.1083C424.456 75.6965 437.501 71.0202 446.548 74.5279C461.157 80.1849 462.669 99.7026 466.131 112.624C469.766 126.163 476.315 134.669 484.824 145.612C502.654 168.607 515.545 195.034 522.689 223.24V223.24Z" stroke="url(#paint28_linear_13_2370)" stroke-width="0.35" stroke-linecap="round" stroke-linejoin="round"/>
<path d="M527.596 221.995C556.529 336.079 485.286 455.472 371.254 484.399C257.223 513.326 137.777 442.089 108.843 328.068C94.1381 270.088 106.338 216.586 132.687 164.491C139.366 151.276 134.113 150.357 132.407 137.471C130.217 120.95 149.707 117.18 162.669 114.843C186.289 110.543 215.524 114.192 237.39 103.83C252.044 96.8703 259.867 74.9675 270.437 64.2266C279.992 54.5401 301.124 37.9142 316.763 45.2016C328.424 50.63 332.044 66.9023 339.634 76.2458C368.52 111.814 415.325 58.7974 449.49 69.9919C463.847 74.6929 465.575 92.6006 468.647 105.196C472.608 121.542 479.69 130.588 489.67 143.606C507.489 166.898 520.391 193.567 527.596 221.995V221.995Z" stroke="url(#paint29_linear_13_2370)" stroke-width="0.3" stroke-linecap="round" stroke-linejoin="round"/>
</g>
<defs>
<linearGradient id="paint0_linear_13_2370" x1="266.213" y1="240.929" x2="366.267" y2="318.607" gradientUnits="userSpaceOnUse">
<stop stop-color="#7F64E2"/>
<stop offset="1" stop-color="#41A6EF"/>
</linearGradient>
<linearGradient id="paint1_linear_13_2370" x1="262.366" y1="238.322" x2="370.032" y2="321.91" gradientUnits="userSpaceOnUse">
<stop stop-color="#7F64E2"/>
<stop offset="1" stop-color="#41A6EF"/>
</linearGradient>
<linearGradient id="paint2_linear_13_2370" x1="258.636" y1="235.595" x2="373.698" y2="324.926" gradientUnits="userSpaceOnUse">
<stop stop-color="#7F64E2"/>
<stop offset="1" stop-color="#41A6EF"/>
</linearGradient>
<linearGradient id="paint3_linear_13_2370" x1="254.75" y1="233.035" x2="377.233" y2="328.127" gradientUnits="userSpaceOnUse">
<stop stop-color="#7F64E2"/>
<stop offset="1" stop-color="#41A6EF"/>
</linearGradient>
<linearGradient id="paint4_linear_13_2370" x1="250.631" y1="230.414" x2="380.752" y2="331.435" gradientUnits="userSpaceOnUse">
<stop stop-color="#7F64E2"/>
<stop offset="1" stop-color="#41A6EF"/>
</linearGradient>
<linearGradient id="paint5_linear_13_2370" x1="246.622" y1="227.771" x2="384.271" y2="334.637" gradientUnits="userSpaceOnUse">
<stop stop-color="#7F64E2"/>
<stop offset="1" stop-color="#41A6EF"/>
</linearGradient>
<linearGradient id="paint6_linear_13_2370" x1="242.591" y1="225.225" x2="387.74" y2="337.914" gradientUnits="userSpaceOnUse">
<stop stop-color="#7F64E2"/>
<stop offset="1" stop-color="#41A6EF"/>
</linearGradient>
<linearGradient id="paint7_linear_13_2370" x1="238.526" y1="222.424" x2="391.312" y2="341.043" gradientUnits="userSpaceOnUse">
<stop stop-color="#7F64E2"/>
<stop offset="1" stop-color="#41A6EF"/>
</linearGradient>
<linearGradient id="paint8_linear_13_2370" x1="234.344" y1="219.51" x2="394.893" y2="344.157" gradientUnits="userSpaceOnUse">
<stop stop-color="#7F64E2"/>
<stop offset="1" stop-color="#41A6EF"/>
</linearGradient>
<linearGradient id="paint9_linear_13_2370" x1="230.026" y1="216.457" x2="398.498" y2="347.256" gradientUnits="userSpaceOnUse">
<stop stop-color="#7F64E2"/>
<stop offset="1" stop-color="#41A6EF"/>
</linearGradient>
<linearGradient id="paint10_linear_13_2370" x1="225.138" y1="212.903" x2="402.092" y2="350.289" gradientUnits="userSpaceOnUse">
<stop stop-color="#7F64E2"/>
<stop offset="1" stop-color="#41A6EF"/>
</linearGradient>
<linearGradient id="paint11_linear_13_2370" x1="219.753" y1="208.862" x2="405.413" y2="353.009" gradientUnits="userSpaceOnUse">
<stop stop-color="#7F64E2"/>
<stop offset="1" stop-color="#41A6EF"/>
</linearGradient>
<linearGradient id="paint12_linear_13_2370" x1="213.832" y1="204.524" x2="408.986" y2="356.046" gradientUnits="userSpaceOnUse">
<stop stop-color="#7F64E2"/>
<stop offset="1" stop-color="#41A6EF"/>
</linearGradient>
<linearGradient id="paint13_linear_13_2370" x1="207.804" y1="199.983" x2="412.609" y2="359.001" gradientUnits="userSpaceOnUse">
<stop stop-color="#7F64E2"/>
<stop offset="1" stop-color="#41A6EF"/>
</linearGradient>
<linearGradient id="paint14_linear_13_2370" x1="201.87" y1="195.636" x2="416.172" y2="362.032" gradientUnits="userSpaceOnUse">
<stop stop-color="#7F64E2"/>
<stop offset="1" stop-color="#41A6EF"/>
</linearGradient>
<linearGradient id="paint15_linear_13_2370" x1="196.161" y1="191.423" x2="419.657" y2="364.961" gradientUnits="userSpaceOnUse">
<stop stop-color="#7F64E2"/>
<stop offset="1" stop-color="#41A6EF"/>
</linearGradient>
<linearGradient id="paint16_linear_13_2370" x1="190.818" y1="187.458" x2="423.574" y2="368.188" gradientUnits="userSpaceOnUse">
<stop stop-color="#7F64E2"/>
<stop offset="1" stop-color="#41A6EF"/>
</linearGradient>
<linearGradient id="paint17_linear_13_2370" x1="186.356" y1="184.434" x2="427.085" y2="371.356" gradientUnits="userSpaceOnUse">
<stop stop-color="#7F64E2"/>
<stop offset="1" stop-color="#41A6EF"/>
</linearGradient>
<linearGradient id="paint18_linear_13_2370" x1="182.423" y1="181.627" x2="430.713" y2="374.418" gradientUnits="userSpaceOnUse">
<stop stop-color="#7F64E2"/>
<stop offset="1" stop-color="#41A6EF"/>
</linearGradient>
<linearGradient id="paint19_linear_13_2370" x1="178.36" y1="178.344" x2="434.513" y2="377.24" gradientUnits="userSpaceOnUse">
<stop stop-color="#7F64E2"/>
<stop offset="1" stop-color="#41A6EF"/>
</linearGradient>
<linearGradient id="paint20_linear_13_2370" x1="174.885" y1="175.13" x2="438.519" y2="379.831" gradientUnits="userSpaceOnUse">
<stop stop-color="#7F64E2"/>
<stop offset="1" stop-color="#41A6EF"/>
</linearGradient>
<linearGradient id="paint21_linear_13_2370" x1="171.139" y1="171.694" x2="442.57" y2="382.446" gradientUnits="userSpaceOnUse">
<stop stop-color="#7F64E2"/>
<stop offset="1" stop-color="#41A6EF"/>
</linearGradient>
<linearGradient id="paint22_linear_13_2370" x1="167.726" y1="168.23" x2="446.692" y2="384.829" gradientUnits="userSpaceOnUse">
<stop stop-color="#7F64E2"/>
<stop offset="1" stop-color="#41A6EF"/>
</linearGradient>
<linearGradient id="paint23_linear_13_2370" x1="163.974" y1="164.463" x2="450.847" y2="387.198" gradientUnits="userSpaceOnUse">
<stop stop-color="#7F64E2"/>
<stop offset="1" stop-color="#41A6EF"/>
</linearGradient>
<linearGradient id="paint24_linear_13_2370" x1="160.553" y1="160.792" x2="455.088" y2="389.472" gradientUnits="userSpaceOnUse">
<stop stop-color="#7F64E2"/>
<stop offset="1" stop-color="#41A6EF"/>
</linearGradient>
<linearGradient id="paint25_linear_13_2370" x1="156.852" y1="156.89" x2="459.305" y2="391.715" gradientUnits="userSpaceOnUse">
<stop stop-color="#7F64E2"/>
<stop offset="1" stop-color="#41A6EF"/>
</linearGradient>
<linearGradient id="paint26_linear_13_2370" x1="152.875" y1="153.005" x2="463.425" y2="394.115" gradientUnits="userSpaceOnUse">
<stop stop-color="#7F64E2"/>
<stop offset="1" stop-color="#41A6EF"/>
</linearGradient>
<linearGradient id="paint27_linear_13_2370" x1="149.133" y1="149.5" x2="467.455" y2="396.641" gradientUnits="userSpaceOnUse">
<stop stop-color="#7F64E2"/>
<stop offset="1" stop-color="#41A6EF"/>
</linearGradient>
<linearGradient id="paint28_linear_13_2370" x1="145.412" y1="146.291" x2="471.351" y2="399.345" gradientUnits="userSpaceOnUse">
<stop stop-color="#7F64E2"/>
<stop offset="1" stop-color="#41A6EF"/>
</linearGradient>
<linearGradient id="paint29_linear_13_2370" x1="141.447" y1="143.355" x2="475.02" y2="402.336" gradientUnits="userSpaceOnUse">
<stop stop-color="#7F64E2"/>
<stop offset="1" stop-color="#41A6EF"/>
</linearGradient>
</defs>
</svg>
