<svg width="20" height="20" viewBox="0 0 20 20" fill="none" xmlns="http://www.w3.org/2000/svg">
<path d="M2.5 17.5001V17.1072C2.5 16.5292 2.70024 15.9691 3.06664 15.5222C3.43305 15.0752 3.94299 14.7691 4.50971 14.6557L6.88138 14.1814C7.0774 14.1422 7.28097 14.1825 7.4473 14.2933C8.20325 14.7973 9.09147 15.0662 10 15.0662C10.9086 15.0662 11.7968 14.7973 12.5527 14.2933V14.2933C12.7191 14.1825 12.9226 14.1422 13.1187 14.1814L15.4903 14.6557C16.057 14.7691 16.567 15.0753 16.9334 15.5222C17.2998 15.9691 17.5 16.5292 17.5 17.1072V17.5001" stroke="white" stroke-linecap="round" stroke-linejoin="round"/>
<path d="M13.3334 7.5V9.16626C13.3334 10.0503 12.9822 10.8982 12.357 11.5233C11.7319 12.1484 10.8841 12.4996 10 12.4996C9.11597 12.4996 8.26812 12.1484 7.643 11.5233C7.01788 10.8982 6.66669 10.0503 6.66669 9.16626V7.5" stroke="white" stroke-linecap="round" stroke-linejoin="round"/>
<path d="M11.751 12.0042L12.3544 14.4179" stroke="white" stroke-linecap="round" stroke-linejoin="round"/>
<path d="M8.25101 12.0042L7.64764 14.4178" stroke="white" stroke-linecap="round" stroke-linejoin="round"/>
<path d="M6.82786 3.41659C5.16116 4.41659 6.05905 6.41658 6.6667 7.08325L11.6667 6.66658L13.3334 7.08325C15.6251 4.88325 14.4619 2.74992 13.3334 2.08325C12.9167 2.91659 11.7759 3.41659 11.7759 3.41659H6.82786Z" stroke="white"/>
</svg>
