<svg width="413" height="414" viewBox="0 0 413 414" fill="none" xmlns="http://www.w3.org/2000/svg">
<g opacity="0.2">
<path d="M205.071 223.531C208.093 223.995 210.918 221.922 211.383 218.9C211.847 215.879 209.774 213.053 206.752 212.589C203.731 212.125 200.905 214.198 200.441 217.22C199.977 220.241 202.05 223.067 205.071 223.531Z" stroke="#E8E8FF" stroke-width="2.35" stroke-linecap="round" stroke-linejoin="round"/>
<path d="M212.682 223.688C215.789 219.943 215.272 214.389 211.528 211.282C207.783 208.176 202.229 208.693 199.122 212.437C196.016 216.181 196.533 221.736 200.277 224.842C204.021 227.949 209.576 227.432 212.682 223.688Z" stroke="#E8E8FF" stroke-width="2.3" stroke-linecap="round" stroke-linejoin="round"/>
<path d="M217.615 215.101C219.194 221.328 214.875 227.992 208.869 229.782C202.46 231.697 195.663 226.854 194.188 221.037C192.714 215.219 196.389 207.723 202.934 206.356C209.071 205.072 216.04 208.877 217.615 215.101Z" stroke="#E8E8FF" stroke-width="2.25" stroke-linecap="round" stroke-linejoin="round"/>
<path d="M203.4 233.223C211.77 234.604 219.675 228.939 221.056 220.57C222.438 212.2 216.773 204.296 208.403 202.914C200.034 201.533 192.129 207.197 190.748 215.567C189.366 223.936 195.031 231.841 203.4 233.223Z" stroke="#E8E8FF" stroke-width="2.2" stroke-linecap="round" stroke-linejoin="round"/>
<path d="M212.712 235.397C222.293 231.641 227.015 220.829 223.259 211.247C219.503 201.666 208.691 196.944 199.109 200.7C189.528 204.456 184.806 215.268 188.562 224.85C192.318 234.431 203.131 239.153 212.712 235.397Z" stroke="#E8E8FF" stroke-width="2.15" stroke-linecap="round" stroke-linejoin="round"/>
<path d="M227.14 212.69C230.011 224.008 222.404 236.224 211.281 239.307C199.781 242.494 187.469 234.526 184.666 223.445C181.888 212.451 188.932 199.465 200.526 196.833C211.771 194.281 224.262 201.361 227.14 212.69Z" stroke="#E8E8FF" stroke-width="2.1" stroke-linecap="round" stroke-linejoin="round"/>
<path d="M230.328 211.9C233.479 224.892 225.276 239.295 212.084 242.48C199.168 245.592 184.776 237.208 181.491 224.251C178.183 211.198 186.929 197.345 199.724 193.667C212.827 189.915 227.15 198.738 230.328 211.9Z" stroke="#E8E8FF" stroke-width="2.05" stroke-linecap="round" stroke-linejoin="round"/>
<path d="M233.549 211.14C237.035 225.859 227.879 242.024 212.889 245.655C198.25 249.202 182.036 239.726 178.324 225.047C174.494 209.923 184.832 195.433 198.981 190.669C213.811 185.688 229.98 196.084 233.549 211.14Z" stroke="#E8E8FF" stroke-width="2" stroke-linecap="round" stroke-linejoin="round"/>
<path d="M236.706 210.319C240.692 227.084 230.535 244.547 213.692 248.827C196.955 253.07 179.386 242.585 175.147 225.856C170.669 208.197 182.63 193.876 198.282 187.854C214.662 181.548 232.583 192.982 236.706 210.319Z" stroke="#E8E8FF" stroke-width="1.95" stroke-linecap="round" stroke-linejoin="round"/>
<path d="M239.836 209.479C244.253 227.814 233 247.297 214.495 251.999C195.991 256.701 176.658 245.154 171.975 226.659C166.873 206.53 181.182 193.196 197.61 185.177C205.785 181.187 211.568 179.506 219.906 184.638C228.728 190.074 237.369 199.249 239.836 209.479Z" stroke="#E8E8FF" stroke-width="1.9" stroke-linecap="round" stroke-linejoin="round"/>
<path d="M243.008 208.676C247.966 228.785 235.5 250.054 215.298 255.171C195.097 260.289 173.918 247.666 168.803 227.461C162.821 203.896 180.142 193.366 196.824 182.521C205.286 177.007 210.403 174.343 219.992 180.378C229.994 186.671 240.113 196.939 243.008 208.676Z" stroke="#E8E8FF" stroke-width="1.85" stroke-linecap="round" stroke-linejoin="round"/>
<path d="M246.176 207.871C251.625 229.541 237.585 252.629 216.1 258.344C194.226 264.162 171.174 249.797 165.628 228.267C163.069 218.315 163.896 206.397 170.628 198.142C177.299 189.964 188.213 186.416 195.931 179.808C204.848 172.178 208.872 168.976 219.949 176.065C231.08 183.186 242.905 194.884 246.176 207.871Z" stroke="#E8E8FF" stroke-width="1.8" stroke-linecap="round" stroke-linejoin="round"/>
<path d="M249.349 207.069C255.288 230.55 240.17 255.323 216.913 261.503C193.21 267.815 168.359 252.226 162.478 229.067C159.801 218.546 160.441 205.312 167.951 196.721C175.403 188.198 187.377 185.235 195.07 177.083C197.861 174.142 200.56 169.099 204.378 167.323C209.704 164.852 215.592 168.914 219.94 171.803C232.236 179.99 245.628 192.362 249.349 207.069Z" stroke="#E8E8FF" stroke-width="1.75" stroke-linecap="round" stroke-linejoin="round"/>
<path d="M252.521 206.266C258.885 231.38 242.948 258.476 217.705 264.688C192.721 270.839 165.425 255.24 159.283 229.872C156.585 218.729 156.923 204.128 165.118 195.163C173.254 186.267 186.373 183.502 194.191 174.334C197.037 170.99 199.438 165.053 203.31 162.703C208.713 159.425 215.503 164.534 219.89 167.499C233.584 176.744 248.31 189.64 252.521 206.266Z" stroke="#E8E8FF" stroke-width="1.7" stroke-linecap="round" stroke-linejoin="round"/>
<path d="M255.703 205.451C262.511 232.278 245.497 261.189 218.518 267.853C191.81 274.434 162.901 257.412 156.118 230.665C153.182 219.153 153.57 202.758 162.346 193.566C171.264 184.223 185.022 181.82 193.408 171.547C196.522 167.738 198.749 160.799 202.926 158.064C208.317 154.54 215.519 160.194 219.968 163.229C234.831 173.378 251.096 187.328 255.703 205.451Z" stroke="#E8E8FF" stroke-width="1.65" stroke-linecap="round" stroke-linejoin="round"/>
<path d="M258.868 204.658C266.107 233.241 248.027 263.939 219.316 271.032C190.854 278.067 160.168 259.966 152.942 231.48C149.856 219.339 150.152 201.512 159.564 191.956C169.227 182.128 183.751 179.995 192.685 168.743C195.915 164.671 198.175 157.013 202.311 153.826C207.813 149.618 215.719 156.104 220.29 159.254C236.304 170.289 253.902 185.03 258.868 204.658Z" stroke="#E8E8FF" stroke-width="1.6" stroke-linecap="round" stroke-linejoin="round"/>
<path d="M262.04 203.855C269.779 234.417 250.677 266.463 220.118 274.204C189.56 281.946 157.644 262.61 149.767 232.286C146.42 219.429 146.773 200.322 156.69 190.146C166.871 179.703 182.347 177.752 192.044 165.866C195.634 161.461 197.668 154.136 201.758 150.339C207.656 144.862 215.792 152.04 220.994 155.621C238.066 167.384 256.738 182.925 262.04 203.855Z" stroke="#E8E8FF" stroke-width="1.55" stroke-linecap="round" stroke-linejoin="round"/>
<path d="M265.208 203.059C273.386 235.347 253.205 269.21 220.916 277.383C188.628 285.556 154.914 265.141 146.595 233.088C143.107 219.645 143.409 199.006 153.877 188.378C158.613 183.588 164.929 181.396 170.812 178.438C178.579 174.532 185.727 169.458 191.453 162.904C195.395 158.396 197.788 150.21 202.293 146.447C208.315 141.42 216.992 148.714 222.085 152.258C240.125 164.811 259.595 180.867 265.208 203.059Z" stroke="#E8E8FF" stroke-width="1.5" stroke-linecap="round" stroke-linejoin="round"/>
<path d="M268.381 202.248C277.002 236.284 255.751 271.932 221.713 280.562C187.675 289.191 152.031 267.928 143.399 233.894C139.69 219.217 140.157 198.346 151.006 186.597C155.91 181.285 162.265 178.492 168.695 175.511C176.983 171.687 184.497 166.371 190.862 159.829C195.296 155.276 197.922 146.881 202.85 143.188C209.552 138.165 218.407 145.633 224.013 149.522C242.781 162.52 262.566 179.289 268.381 202.248Z" stroke="#E8E8FF" stroke-width="1.45" stroke-linecap="round" stroke-linejoin="round"/>
<path d="M271.554 201.445C280.62 237.207 258.289 274.667 222.526 283.721C186.763 292.775 149.307 270.453 140.25 234.693C136.255 218.922 137.123 197.639 148.097 184.647C152.81 179.058 158.902 175.539 165.425 172.404C174.49 168.055 182.715 163.332 190.3 156.586C195.444 152.024 198.451 145.006 203.563 140.743C210.606 134.87 220.617 143.058 226.557 147.145C245.779 160.392 265.615 177.99 271.554 201.445Z" stroke="#E8E8FF" stroke-width="1.4" stroke-linecap="round" stroke-linejoin="round"/>
<path d="M274.726 200.643C284.231 238.15 260.828 277.393 223.332 286.896C185.835 296.399 146.578 272.995 137.075 235.499C132.742 218.394 134.316 197.194 145.148 182.656C155.98 168.118 175.367 163.653 189.583 153.162C195.285 148.955 200.064 140.523 206.271 137.472C214.068 133.64 223.42 140.763 229.467 144.943C249.039 158.462 268.708 176.885 274.726 200.643Z" stroke="#E8E8FF" stroke-width="1.35" stroke-linecap="round" stroke-linejoin="round"/>
<path d="M277.901 199.837C287.833 239.086 263.396 280.141 224.134 290.068C184.873 299.995 143.838 275.554 133.906 236.298C129.239 217.801 131.572 196.722 142.231 180.644C153.47 163.684 172.414 159.395 188.74 149.481C195.095 145.621 200.942 138.872 207.701 135.791C216.501 131.777 225.821 138.24 232.82 143.054C252.665 156.717 271.835 175.857 277.901 199.837Z" stroke="#E8E8FF" stroke-width="1.3" stroke-linecap="round" stroke-linejoin="round"/>
<path d="M281.073 199.034C291.437 239.999 265.929 282.882 224.937 293.24C183.946 303.599 141.09 278.096 130.734 237.107C125.705 217.183 128.892 196.279 139.274 178.63C144.041 170.518 149.486 163.401 157.925 158.892C167.549 153.755 178.246 151.321 187.758 145.81C194.321 142.008 201.929 137.147 208.994 134.38C218.859 130.508 228.357 135.681 236.411 141.24C256.338 155.029 274.992 175.027 281.073 199.034Z" stroke="#E8E8FF" stroke-width="1.25" stroke-linecap="round" stroke-linejoin="round"/>
<path d="M284.235 198.219C294.982 240.676 268.011 285.449 225.732 296.402C183.087 307.471 138.342 280.213 127.546 237.903C122.136 216.668 126.243 195.783 136.306 176.636C141.103 167.519 146.225 158.419 155.693 153.53C165.522 148.459 176.917 147.588 186.781 142.287C204.378 132.818 222.633 127.41 240.197 139.584C259.959 153.275 278.284 174.693 284.235 198.219Z" stroke="#E8E8FF" stroke-width="1.2" stroke-linecap="round" stroke-linejoin="round"/>
<path d="M287.419 197.42C298.597 241.622 270.562 288.179 226.548 299.584C182.15 311.087 135.506 282.708 124.384 238.713C118.664 216.094 123.593 195.327 133.403 174.705C137.71 165.631 141.993 154.89 150.981 149.414C161.252 143.156 174.94 144.548 185.876 138.995C203.082 130.249 227.568 126.499 244.041 137.993C263.724 151.726 281.502 174.023 287.419 197.42Z" stroke="#E8E8FF" stroke-width="1.15" stroke-linecap="round" stroke-linejoin="round"/>
<path d="M290.601 196.625C302.208 242.566 273.106 290.919 227.36 302.764C181.233 314.71 132.78 285.247 121.218 239.526C115.172 215.613 120.944 194.81 130.529 172.829C134.808 163.009 138.693 149.548 148.708 143.964C159.451 137.979 173.606 141.498 185.038 135.98C194.658 131.338 202.914 131.752 213.148 130.453C225.886 128.836 236.901 128.769 247.866 136.295C267.409 149.745 284.791 173.68 290.601 196.625Z" stroke="#E8E8FF" stroke-width="1.1" stroke-linecap="round" stroke-linejoin="round"/>
<path d="M293.766 195.812C305.843 243.533 275.663 293.602 228.159 305.934C180.219 318.379 130.065 287.733 118.04 240.323C111.684 215.273 118.105 194.182 127.677 171.078C131.938 160.802 134.845 146.106 144.97 139.817C150.407 136.442 156.881 137.334 163.019 137.216C170.377 137.078 177.508 136.4 184.267 133.258C190.108 130.534 195.171 128.224 201.73 128.602C205.927 128.849 209.614 129.575 213.901 129.302C227.35 128.425 239.65 126.479 251.462 134.568C270.948 147.892 288.038 173.166 293.766 195.812Z" stroke="#E8E8FF" stroke-width="1.05" stroke-linecap="round" stroke-linejoin="round"/>
<path d="M296.939 195.009C309.332 244.018 277.999 296.709 228.962 309.106C179.925 321.503 127.037 290.536 114.868 241.126C111.899 229.271 111.231 216.957 112.899 204.85C114.723 192.015 120.103 181.21 124.868 169.364C129.206 158.578 131.681 140.92 142.989 134.967C148.663 131.981 155.712 133.528 161.841 133.912C169.243 134.388 176.847 134.025 183.588 130.802C188.931 128.242 194.429 125.689 200.564 126.211C205.62 126.641 209.923 128.269 215.106 128.11C228.948 127.686 242.563 124.248 254.812 132.681C274.239 146.088 291.229 172.424 296.939 195.009Z" stroke="#E8E8FF" stroke-linecap="round" stroke-linejoin="round"/>
<path d="M300.114 194.203C313.035 245.268 281.007 299.505 229.768 312.281C178.826 324.978 124.602 292.946 111.691 241.935C108.44 229.017 107.85 215.574 109.955 202.421C112.004 189.873 117.381 179.364 122.096 167.767C126.491 156.974 128.621 136.759 140.332 130.862C146.479 127.769 155.05 130.413 161.45 131.13C168.722 131.952 176.394 131.821 182.951 128.549C187.932 126.093 193.67 123.284 199.445 123.819C204.565 124.299 209.055 126.699 214.32 126.88C229.093 127.393 244.361 121.529 257.713 130.493C267.864 137.327 275.068 148.279 282.296 157.926C290.518 168.896 296.74 180.864 300.114 194.203Z" stroke="#E8E8FF" stroke-width="0.95" stroke-linecap="round" stroke-linejoin="round"/>
<path d="M303.288 193.398C316.646 246.191 283.522 302.243 230.574 315.456C177.909 328.594 121.855 295.459 108.518 242.738C105.238 229.712 104.576 216.164 106.571 202.881C108.598 189.566 114.197 178.505 119.385 166.283C124.216 154.889 125.562 135.109 137.282 128.192C143.628 124.458 151.522 127.148 158.305 128.284C166.603 129.67 174.765 130.226 182.385 126.437C187.197 124.046 192.837 120.674 198.514 121.303C203.623 121.856 207.988 124.975 213.22 125.443C228.763 126.845 245.893 118.549 260.013 128.046C270.499 135.098 277.959 146.726 285.453 156.686C293.753 167.681 299.9 180.017 303.288 193.398Z" stroke="#E8E8FF" stroke-width="0.9" stroke-linecap="round" stroke-linejoin="round"/>
<path d="M306.461 192.595C320.266 247.131 286.058 304.966 231.377 318.628C176.967 332.223 119.144 297.993 105.344 243.543C101.958 230.094 101.276 216.107 103.336 202.392C105.435 188.62 111.164 177.218 116.685 164.66C121.949 152.692 122.701 133.032 135.11 125.669C141.897 121.65 149.806 124.587 156.983 126.002C165.441 127.672 174.082 128.63 181.814 124.271C186.856 121.425 192.606 117.625 198.693 118.746C204.416 119.811 208.569 123.509 214.684 123.944C230.165 125.041 247.678 116.132 261.91 125.1C272.842 132.026 280.355 144.593 288.084 154.714C296.707 165.969 302.959 178.856 306.461 192.595Z" stroke="#E8E8FF" stroke-width="0.85" stroke-linecap="round" stroke-linejoin="round"/>
<path d="M309.638 191.786C323.891 248.07 288.595 307.696 232.17 321.793C176.018 335.835 116.399 300.523 102.159 244.336C98.6631 230.463 97.9628 216.033 100.099 201.887C102.282 187.621 108.058 175.968 113.914 163.016C119.283 151.145 119.413 130.563 132.45 123.603C147.873 115.371 165.777 132.037 181.236 121.77C186.184 118.483 192.61 113.902 198.985 115.744C203.838 117.146 207.104 120.928 212.311 121.885C229.316 125.025 248.107 112.318 264.102 121.845C275.496 128.646 282.75 142.475 290.696 152.76C299.611 164.337 306.058 177.62 309.638 191.786V191.786Z" stroke="#E8E8FF" stroke-width="0.8" stroke-linecap="round" stroke-linejoin="round"/>
<path d="M312.807 190.987C327.501 248.988 291.13 310.445 232.984 324.975C175.115 339.452 113.674 303.053 98.9963 245.152C91.3874 215.138 98.5642 188.71 111.083 161.389C116.906 148.7 115.787 128.736 130.381 121.833C137.494 118.467 147.043 120.611 154.323 122.065C164.377 124.087 172.035 124.551 180.705 118.942C185.634 115.758 192.255 110.138 198.657 112.15C204.117 113.868 206.857 118.72 212.893 119.714C230.34 122.601 250.066 109.124 266.609 118.301C278.018 124.631 284.957 139.981 292.728 150.022C302.166 162.151 309.002 176.097 312.807 190.987V190.987Z" stroke="#E8E8FF" stroke-width="0.75" stroke-linecap="round" stroke-linejoin="round"/>
<path d="M315.986 190.184C331.176 250.16 293.786 312.968 233.787 328.147C173.789 343.326 111.148 305.706 95.8235 245.949C92.0831 231.228 91.3347 215.906 93.6226 200.891C95.9298 185.803 102.081 173.465 108.326 159.819C114.322 146.714 111.675 126.332 128.223 120.505C136.259 117.669 145.847 119.418 154.024 120.55C164.621 122.017 171.334 121.811 180.217 115.736C184.815 112.588 192.019 106.095 198.325 107.992C203.943 109.678 206.591 115.804 212.692 117.177C230.978 121.293 251.885 105.303 269.326 114.615C276.012 118.181 279.875 124.924 283.637 131.168C287.582 137.718 291.886 143.448 296.491 149.524C305.64 161.639 312.268 175.464 315.986 190.184Z" stroke="#E8E8FF" stroke-width="0.7" stroke-linecap="round" stroke-linejoin="round"/>
<path d="M319.161 189.378C334.788 251.084 296.286 315.684 234.594 331.327C172.902 346.971 108.413 308.237 92.6466 246.758C88.8817 231.944 88.0613 216.536 90.2319 201.406C92.5218 185.545 98.799 172.514 105.439 158.193C111.59 144.947 107.314 126.881 123.796 120.356C133.088 116.681 144.142 118.446 153.828 119.146C164.414 119.912 171.068 118.305 179.719 112.163C184.864 108.515 192.315 101.259 199.273 103.906C204.86 106.036 206.822 112.318 213.056 114.03C231.899 119.229 254.525 101.305 272.2 110.804C278.825 114.364 282.424 121.149 285.832 127.519C289.339 134.056 293.408 140.275 297.992 146.107C307.947 158.923 315.153 173.653 319.161 189.378V189.378Z" stroke="#E8E8FF" stroke-width="0.65" stroke-linecap="round" stroke-linejoin="round"/>
<path d="M322.332 188.575C338.401 251.998 298.828 318.438 235.395 334.5C171.963 350.561 105.542 311.003 89.4804 247.571C85.4498 231.676 84.7113 215.125 87.3104 198.934C89.8188 183.427 96.0804 170.615 102.632 156.58C108.813 143.342 102.655 125.804 120.266 119.764C131.081 116.057 143.274 117.789 154.447 117.763C164.602 117.738 171.15 114.181 179.212 108.25C184.417 104.418 193.148 95.5557 200.474 99.3505C205.76 102.089 207.714 108.38 213.625 110.735C222.649 114.325 234.225 110.982 243.142 109.07C252.511 107.086 265.83 102.034 275.173 106.897C281.808 110.352 285.053 117.402 288.116 123.818C292.062 132.078 296.218 138.303 301.708 145.583C311.384 158.393 318.396 173.011 322.332 188.575Z" stroke="#E8E8FF" stroke-width="0.6" stroke-linecap="round" stroke-linejoin="round"/>
<path d="M325.508 187.769C342.028 252.943 301.368 321.159 236.203 337.675C171.037 354.19 102.816 313.531 86.3 248.366C82.2409 232.374 81.4276 215.731 83.9082 199.419C86.4262 183.031 93.1359 169.74 99.8887 154.922C106.474 140.452 97.7056 124.562 118.25 118.936C129.193 115.939 140.74 117.007 151.929 116.356C163.532 115.682 169.56 111.019 178.614 104.04C183.928 99.9421 193.111 90.3628 200.805 93.9806C206.985 96.8827 209.114 104.977 215.843 107.919C224.085 111.525 234.228 108.812 242.562 106.905C252.455 104.655 268.084 97.886 278.176 102.96C285.373 106.578 288.359 114.89 291.179 121.847C294.337 129.64 298.127 135.654 303.244 142.183C313.738 155.675 321.32 171.197 325.508 187.769V187.769Z" stroke="#E8E8FF" stroke-width="0.55" stroke-linecap="round" stroke-linejoin="round"/>
<path d="M328.68 186.967C345.653 253.861 303.864 323.887 237.01 340.84C170.156 357.794 100.103 316.04 83.1154 249.164C78.9516 232.747 78.1225 215.662 80.6772 198.919C83.2695 182.024 90.1443 168.506 97.0986 153.249C103.269 139.72 92.9859 125.639 112.191 119.284C124.377 115.258 137.784 116.258 150.378 115.119C162.846 113.996 169.032 107.228 178.182 99.5938C183.461 95.1824 193.226 85.1503 201.259 88.4502C207.387 90.9684 209.853 99.7807 215.266 103.593C223.806 109.605 235.505 106.434 244.777 104.15C254.483 101.776 271.109 94.4034 281.153 99.0704C289.001 102.715 291.478 112.645 294.121 119.963C297.191 128.452 301.516 134.465 306.931 141.63C317.122 155.147 324.516 170.559 328.68 186.967V186.967Z" stroke="#E8E8FF" stroke-width="0.5" stroke-linecap="round" stroke-linejoin="round"/>
<path d="M331.855 186.167C349.258 254.8 306.412 326.62 237.805 344.022C169.197 361.424 97.3646 318.595 79.9498 249.977C71.0431 214.852 78.7417 183.27 94.2345 151.611C97.7586 144.409 95.1843 140.702 95.1045 133.342C95.0153 124.383 102.847 120.347 110.589 118.264C123.7 114.739 137.496 115.635 150.826 113.624C162.987 111.786 169.105 102.825 177.669 95.132C183.427 89.9626 194.019 79.3597 202.819 83.5253C209.547 86.7134 211.429 96.5314 217.418 100.959C225.99 107.288 237.553 103.889 246.931 101.435C256.872 98.8373 273.835 90.8227 283.979 95.3005C291.926 98.811 294.042 108.995 296.363 116.325C299.197 125.258 302.817 131.028 308.466 138.287C319.48 152.464 327.443 168.765 331.855 186.167V186.167Z" stroke="#E8E8FF" stroke-width="0.45" stroke-linecap="round" stroke-linejoin="round"/>
<path d="M335.027 185.364C352.874 255.723 308.941 329.359 238.599 347.204C168.258 365.049 94.6304 321.118 76.7795 250.777C67.7234 215.023 75.208 182.054 91.454 149.926C95.0289 142.85 92.6359 139.704 91.7486 132.704C90.503 123.045 100.088 119.509 107.991 117.469C122.418 113.757 137.635 115.137 152.083 111.749C163.335 109.115 169.336 97.9388 177.017 90.6448C182.809 85.1529 195.29 73.1383 204.482 78.6192C210.392 82.1689 212.564 91.3802 217.222 96.2141C225.951 105.263 238.254 101.723 249.014 98.7634C259.266 95.9238 275.986 87.3154 286.599 91.7103C294.689 95.0696 296.51 105.225 298.571 112.703C301.443 123.052 305.765 129.262 312.136 137.67C322.872 151.882 330.655 168.098 335.027 185.364V185.364Z" stroke="#E8E8FF" stroke-width="0.4" stroke-linecap="round" stroke-linejoin="round"/>
<path d="M338.2 184.561C356.487 256.652 311.47 332.092 239.41 350.367C167.35 368.642 91.8797 323.637 73.6047 251.577C64.2993 214.886 72.0835 181.225 88.6636 148.221C92.2115 141.161 89.9662 138.698 88.7051 131.465C87.0682 122.073 96.0161 118.604 103.766 116.655C119.531 112.727 137.225 114.984 152.603 109.76C163.277 106.129 168.769 93.4292 176.114 86.1576C181.992 80.3367 195.177 68.5594 204.725 73.6335C211.879 77.4386 213.871 88.0756 219.258 93.7195C226.563 101.378 235.814 100.037 245.254 97.7086C253.291 95.7205 261.068 92.8744 269.033 90.6554C274.64 89.0949 283.08 86.0692 288.934 88.3388C298.386 91.9991 299.365 104.628 301.605 112.989C303.957 121.749 308.194 127.252 313.7 134.333C325.236 149.211 333.577 166.311 338.2 184.561V184.561Z" stroke="#E8E8FF" stroke-width="0.35" stroke-linecap="round" stroke-linejoin="round"/>
<path d="M341.375 183.756C360.096 257.573 313.999 334.825 240.216 353.542C166.433 372.258 89.1468 326.165 70.4251 252.389C60.9108 214.874 68.8047 180.256 85.8534 146.548C90.1751 137.998 86.776 137.403 85.6724 129.066C84.2551 118.376 96.8658 115.936 105.253 114.424C120.536 111.642 139.452 114.003 153.6 107.298C163.082 102.795 168.144 88.6233 174.983 81.6735C181.166 75.406 194.839 64.6484 204.958 69.3636C212.503 72.876 214.845 83.4048 219.756 89.4504C238.447 112.464 268.731 78.1606 290.837 85.4039C300.127 88.4456 301.245 100.033 303.233 108.183C305.795 118.759 310.378 124.612 316.835 133.035C328.365 148.106 336.713 165.362 341.375 183.756V183.756Z" stroke="#E8E8FF" stroke-width="0.3" stroke-linecap="round" stroke-linejoin="round"/>
</g>
<path opacity="0.1" d="M127 75.5C127 92.3447 113.345 106 96.5 106C79.6553 106 66 92.3447 66 75.5C66 58.6553 79.6553 45 96.5 45C113.345 45 127 58.6553 127 75.5Z" fill="white"/>
<path opacity="0.1" d="M206 181.5C206 206.077 186.077 226 161.5 226C136.923 226 117 206.077 117 181.5C117 156.923 136.923 137 161.5 137C186.077 137 206 156.923 206 181.5Z" fill="white"/>
</svg>
