<svg width="414" height="413" viewBox="0 0 414 413" fill="none" xmlns="http://www.w3.org/2000/svg">
<g opacity="0.2">
<path d="M223.531 207.421C223.995 204.4 221.922 201.574 218.901 201.11C215.879 200.646 213.054 202.719 212.589 205.74C212.125 208.762 214.198 211.588 217.22 212.052C220.241 212.516 223.067 210.443 223.531 207.421Z" stroke="#E8E8FF" stroke-width="2.35" stroke-linecap="round" stroke-linejoin="round"/>
<path d="M223.688 199.809C219.943 196.703 214.389 197.22 211.282 200.964C208.175 204.708 208.692 210.263 212.437 213.369C216.181 216.476 221.735 215.959 224.842 212.215C227.949 208.47 227.432 202.916 223.688 199.809Z" stroke="#E8E8FF" stroke-width="2.3" stroke-linecap="round" stroke-linejoin="round"/>
<path d="M215.101 194.877C221.327 193.298 227.991 197.617 229.782 203.623C231.696 210.032 226.854 216.829 221.036 218.304C215.219 219.778 207.723 216.103 206.355 209.558C205.072 203.421 208.877 196.452 215.101 194.877Z" stroke="#E8E8FF" stroke-width="2.25" stroke-linecap="round" stroke-linejoin="round"/>
<path d="M233.223 209.092C234.605 200.722 228.94 192.817 220.57 191.436C212.201 190.054 204.296 195.719 202.915 204.089C201.533 212.458 207.198 220.363 215.567 221.744C223.937 223.126 231.842 217.461 233.223 209.092Z" stroke="#E8E8FF" stroke-width="2.2" stroke-linecap="round" stroke-linejoin="round"/>
<path d="M235.397 199.78C231.641 190.199 220.828 185.476 211.247 189.233C201.666 192.989 196.943 203.801 200.7 213.383C204.456 222.964 215.268 227.686 224.85 223.93C234.431 220.173 239.153 209.361 235.397 199.78Z" stroke="#E8E8FF" stroke-width="2.15" stroke-linecap="round" stroke-linejoin="round"/>
<path d="M212.69 185.352C224.008 182.481 236.224 190.088 239.308 201.211C242.494 212.711 234.526 225.023 223.445 227.826C212.451 230.604 199.465 223.56 196.834 211.966C194.281 200.721 201.362 188.23 212.69 185.352Z" stroke="#E8E8FF" stroke-width="2.1" stroke-linecap="round" stroke-linejoin="round"/>
<path d="M211.9 182.164C224.892 179.013 239.295 187.216 242.48 200.408C245.592 213.324 237.208 227.716 224.251 231.001C211.199 234.309 197.345 225.563 193.667 212.768C189.915 199.665 198.738 185.341 211.9 182.164Z" stroke="#E8E8FF" stroke-width="2.05" stroke-linecap="round" stroke-linejoin="round"/>
<path d="M211.14 178.943C225.859 175.457 242.024 184.613 245.655 199.603C249.202 214.242 239.726 230.456 225.047 234.168C209.923 237.998 195.433 227.66 190.669 213.511C185.688 198.681 196.084 182.512 211.14 178.943Z" stroke="#E8E8FF" stroke-width="2" stroke-linecap="round" stroke-linejoin="round"/>
<path d="M210.319 175.787C227.084 171.801 244.547 181.957 248.826 198.8C253.069 215.537 242.585 233.106 225.856 237.345C208.197 241.824 193.876 229.862 187.854 214.21C181.548 197.83 192.982 179.909 210.319 175.787Z" stroke="#E8E8FF" stroke-width="1.95" stroke-linecap="round" stroke-linejoin="round"/>
<path d="M209.479 172.657C227.814 168.24 247.297 179.493 251.999 197.997C256.701 216.502 245.154 235.834 226.659 240.517C206.531 245.62 193.196 231.311 185.177 214.883C181.187 206.707 179.506 200.925 184.639 192.587C190.074 183.765 199.249 175.123 209.479 172.657Z" stroke="#E8E8FF" stroke-width="1.9" stroke-linecap="round" stroke-linejoin="round"/>
<path d="M208.677 169.484C228.785 164.526 250.054 176.993 255.172 197.194C260.289 217.396 247.666 238.575 227.461 243.689C203.896 249.671 193.366 232.351 182.521 215.669C177.008 207.207 174.344 202.09 180.379 192.5C186.671 182.499 196.94 172.38 208.677 169.484Z" stroke="#E8E8FF" stroke-width="1.85" stroke-linecap="round" stroke-linejoin="round"/>
<path d="M207.871 166.315C229.54 160.867 252.629 174.907 258.343 196.392C264.162 218.266 249.796 241.318 228.267 246.864C218.315 249.423 206.397 248.595 198.142 241.864C189.964 235.193 186.415 224.279 179.808 216.56C172.177 207.644 168.975 203.62 176.065 192.543C183.185 181.412 194.883 169.587 207.871 166.315Z" stroke="#E8E8FF" stroke-width="1.8" stroke-linecap="round" stroke-linejoin="round"/>
<path d="M207.069 163.143C230.55 157.204 255.324 172.323 261.503 195.579C267.815 219.282 252.226 244.133 229.067 250.014C218.546 252.691 205.313 252.051 196.721 244.541C188.198 237.089 185.235 225.115 177.083 217.422C174.143 214.632 169.099 211.932 167.323 208.114C164.853 202.788 168.914 196.9 171.803 192.553C179.99 180.257 192.362 166.865 207.069 163.143Z" stroke="#E8E8FF" stroke-width="1.75" stroke-linecap="round" stroke-linejoin="round"/>
<path d="M206.266 159.971C231.38 153.607 258.476 169.544 264.688 194.787C270.839 219.771 255.24 247.067 229.872 253.209C218.729 255.907 204.128 255.568 195.163 247.374C186.267 239.238 183.502 226.119 174.334 218.301C170.99 215.455 165.053 213.054 162.703 209.182C159.425 203.779 164.534 196.988 167.499 192.602C176.744 178.908 189.64 164.182 206.266 159.971Z" stroke="#E8E8FF" stroke-width="1.7" stroke-linecap="round" stroke-linejoin="round"/>
<path d="M205.451 156.789C232.278 149.982 261.189 166.995 267.854 193.974C274.435 220.682 257.412 249.591 230.665 256.374C219.153 259.31 202.758 258.922 193.567 250.146C184.224 241.228 181.82 227.47 171.547 219.084C167.738 215.97 160.799 213.743 158.064 209.567C154.541 204.175 160.194 196.974 163.229 192.524C173.378 177.661 187.328 161.396 205.451 156.789Z" stroke="#E8E8FF" stroke-width="1.65" stroke-linecap="round" stroke-linejoin="round"/>
<path d="M204.658 153.624C233.241 146.385 263.939 164.464 271.032 193.176C278.068 221.637 259.967 252.323 231.48 259.55C219.339 262.636 201.513 262.34 191.957 252.928C182.128 243.264 179.995 228.74 168.744 219.807C164.671 216.576 157.013 214.316 153.826 210.18C149.618 204.679 156.104 196.773 159.254 192.202C170.289 176.188 185.031 158.59 204.658 153.624Z" stroke="#E8E8FF" stroke-width="1.6" stroke-linecap="round" stroke-linejoin="round"/>
<path d="M203.856 150.452C234.417 142.713 266.463 161.815 274.205 192.374C281.946 222.932 262.61 254.848 232.286 262.725C219.429 266.073 200.323 265.72 190.147 255.802C179.703 245.621 177.753 230.145 165.866 220.448C161.461 216.858 154.136 214.824 150.339 210.734C144.863 204.836 152.04 196.7 155.622 191.498C167.384 174.426 182.926 155.754 203.856 150.452Z" stroke="#E8E8FF" stroke-width="1.55" stroke-linecap="round" stroke-linejoin="round"/>
<path d="M203.059 147.284C235.347 139.106 269.21 159.287 277.383 191.576C285.556 223.864 265.141 257.578 233.088 265.897C219.645 269.385 199.006 269.083 188.378 258.615C183.588 253.879 181.396 247.563 178.438 241.68C174.532 233.913 169.458 226.765 162.904 221.039C158.396 217.097 150.21 214.704 146.447 210.199C141.42 204.177 148.714 195.5 152.257 190.407C164.811 172.367 180.867 152.897 203.059 147.284Z" stroke="#E8E8FF" stroke-width="1.5" stroke-linecap="round" stroke-linejoin="round"/>
<path d="M202.248 144.111C236.284 135.49 271.932 156.741 280.562 190.779C289.192 224.817 267.929 260.46 233.894 269.093C219.217 272.801 198.346 272.334 186.597 261.486C181.285 256.582 178.492 250.227 175.511 243.797C171.687 235.509 166.371 227.995 159.829 221.63C155.277 217.196 146.881 214.57 143.189 209.642C138.165 202.939 145.633 194.085 149.522 188.479C162.521 169.711 179.289 149.926 202.248 144.111Z" stroke="#E8E8FF" stroke-width="1.45" stroke-linecap="round" stroke-linejoin="round"/>
<path d="M201.445 140.938C237.207 131.872 274.667 154.203 283.721 189.966C292.775 225.729 270.453 263.185 234.693 272.242C218.922 276.237 197.639 275.369 184.647 264.395C179.058 259.682 175.538 253.59 172.404 247.067C168.055 238.002 163.332 229.778 156.586 222.192C152.024 217.048 145.006 214.041 140.743 208.929C134.869 201.886 143.058 191.875 147.145 185.935C160.392 166.713 177.99 146.877 201.445 140.938Z" stroke="#E8E8FF" stroke-width="1.4" stroke-linecap="round" stroke-linejoin="round"/>
<path d="M200.643 137.766C238.15 128.261 277.393 151.664 286.896 189.16C296.399 226.657 272.995 265.914 235.499 275.417C218.394 279.75 197.194 278.176 182.656 267.344C168.118 256.512 163.653 237.125 153.162 222.908C148.955 217.207 140.523 212.428 137.471 206.221C133.64 198.424 140.763 189.072 144.943 183.025C158.462 163.453 176.885 143.784 200.643 137.766Z" stroke="#E8E8FF" stroke-width="1.35" stroke-linecap="round" stroke-linejoin="round"/>
<path d="M199.836 134.591C239.086 124.66 280.14 149.096 290.068 188.358C299.995 227.619 275.553 268.654 236.298 278.586C217.801 283.253 196.722 280.92 180.643 270.261C163.684 259.022 159.395 240.078 149.48 223.752C145.62 217.397 138.872 211.55 135.791 204.791C131.777 195.991 138.239 186.671 143.053 179.672C156.716 159.827 175.857 140.657 199.836 134.591Z" stroke="#E8E8FF" stroke-width="1.3" stroke-linecap="round" stroke-linejoin="round"/>
<path d="M199.034 131.419C239.999 121.055 282.882 146.563 293.24 187.555C303.599 228.546 278.096 271.403 237.107 281.758C217.184 286.788 196.279 283.6 178.631 273.219C170.518 268.451 163.402 263.007 158.892 254.567C153.755 244.943 151.321 234.247 145.81 224.734C142.008 218.171 137.147 210.563 134.38 203.499C130.508 193.633 135.681 184.135 141.24 176.082C155.029 156.154 175.027 137.5 199.034 131.419Z" stroke="#E8E8FF" stroke-width="1.25" stroke-linecap="round" stroke-linejoin="round"/>
<path d="M198.218 128.257C240.676 117.51 285.449 144.481 296.402 186.76C307.471 229.405 280.212 274.15 237.902 284.946C216.668 290.356 195.782 286.249 176.636 276.186C167.519 271.389 158.418 266.267 153.529 256.799C148.458 246.971 147.588 235.575 142.287 225.711C132.818 208.114 127.41 189.859 139.584 172.295C153.275 152.533 174.692 134.208 198.218 128.257Z" stroke="#E8E8FF" stroke-width="1.2" stroke-linecap="round" stroke-linejoin="round"/>
<path d="M197.42 125.072C241.622 113.895 288.179 141.93 299.584 185.944C311.087 230.342 282.708 276.986 238.713 288.108C216.094 293.828 195.327 288.899 174.705 279.089C165.631 274.782 154.89 270.499 149.414 261.511C143.156 251.24 144.548 237.552 138.995 226.616C130.249 209.41 126.499 184.924 137.994 168.45C151.726 148.767 174.023 130.989 197.42 125.072Z" stroke="#E8E8FF" stroke-width="1.15" stroke-linecap="round" stroke-linejoin="round"/>
<path d="M196.625 121.891C242.566 110.284 290.919 139.386 302.764 185.132C314.71 231.259 285.247 279.712 239.526 291.274C215.613 297.32 194.811 291.548 172.829 281.963C163.009 277.684 149.548 273.799 143.964 263.784C137.979 253.041 141.498 238.886 135.98 227.454C131.338 217.833 131.752 209.578 130.453 199.344C128.836 186.606 128.769 175.591 136.295 164.626C149.745 145.083 173.68 127.701 196.625 121.891Z" stroke="#E8E8FF" stroke-width="1.1" stroke-linecap="round" stroke-linejoin="round"/>
<path d="M195.812 118.726C243.533 106.649 293.602 136.829 305.933 184.333C318.379 232.273 287.733 282.427 240.323 294.452C215.272 300.808 194.182 294.387 171.077 284.815C160.802 280.554 146.106 277.647 139.817 267.522C136.441 262.085 137.333 255.611 137.215 249.473C137.078 242.115 136.4 234.984 133.258 228.225C130.534 222.384 128.224 217.321 128.602 210.762C128.849 206.565 129.575 202.878 129.302 198.591C128.424 185.142 126.478 172.842 134.568 161.03C147.892 141.544 173.166 124.454 195.812 118.726Z" stroke="#E8E8FF" stroke-width="1.05" stroke-linecap="round" stroke-linejoin="round"/>
<path d="M195.009 115.554C244.017 103.16 296.709 134.493 309.106 183.53C321.503 232.567 290.536 285.455 241.126 297.625C229.271 300.593 216.956 301.261 204.849 299.594C192.015 297.769 181.21 292.389 169.364 287.625C158.578 283.287 140.92 280.811 134.967 269.504C131.98 263.83 133.528 256.78 133.911 250.652C134.388 243.25 134.025 235.645 130.802 228.905C128.242 223.561 125.689 218.063 126.21 211.928C126.641 206.872 128.269 202.569 128.11 197.386C127.686 183.544 124.248 169.93 132.681 157.681C146.088 138.253 172.424 121.263 195.009 115.554Z" stroke="#E8E8FF" stroke-linecap="round" stroke-linejoin="round"/>
<path d="M194.203 112.378C245.268 99.4577 299.505 131.485 312.281 182.724C324.978 233.667 292.945 287.89 241.935 300.801C229.017 304.052 215.574 304.643 202.421 302.537C189.873 300.489 179.363 295.111 167.767 290.396C156.974 286.001 136.759 283.871 130.862 272.16C127.769 266.014 130.413 257.442 131.13 251.043C131.952 243.77 131.821 236.099 128.549 229.541C126.093 224.56 123.284 218.823 123.819 213.048C124.299 207.928 126.698 203.437 126.879 198.173C127.393 183.399 121.529 168.132 130.493 154.78C137.327 144.628 148.279 137.425 157.926 130.196C168.896 121.975 180.864 115.752 194.203 112.378Z" stroke="#E8E8FF" stroke-width="0.95" stroke-linecap="round" stroke-linejoin="round"/>
<path d="M193.398 109.204C246.192 95.8459 302.244 128.97 315.456 181.918C328.595 234.583 295.459 290.637 242.738 303.974C229.712 307.254 216.165 307.916 202.881 305.921C189.566 303.894 178.505 298.295 166.284 293.107C154.889 288.276 135.11 286.93 128.193 275.21C124.459 268.864 127.148 260.97 128.285 254.187C129.671 245.888 130.227 237.727 126.437 230.107C124.047 225.294 120.674 219.655 121.303 213.978C121.857 208.869 124.975 204.504 125.444 199.272C126.845 183.729 118.549 166.599 128.046 152.479C135.098 141.993 146.726 134.533 156.687 127.039C167.681 118.739 180.017 112.591 193.398 109.204Z" stroke="#E8E8FF" stroke-width="0.9" stroke-linecap="round" stroke-linejoin="round"/>
<path d="M192.595 106.032C247.13 92.2268 304.966 126.435 318.627 181.116C332.222 235.525 297.993 293.349 243.543 307.149C230.094 310.534 216.107 311.217 202.392 309.156C188.62 307.058 177.218 301.329 164.659 295.807C152.692 290.543 133.031 289.792 125.668 277.382C121.649 270.596 124.586 262.687 126.002 255.51C127.671 247.051 128.629 238.411 124.27 230.678C121.425 225.637 117.625 219.887 118.745 213.8C119.811 208.076 123.509 203.924 123.943 197.809C125.041 182.327 116.132 164.815 125.1 150.583C132.025 139.651 144.593 132.137 154.714 124.409C165.969 115.785 178.855 109.534 192.595 106.032Z" stroke="#E8E8FF" stroke-width="0.85" stroke-linecap="round" stroke-linejoin="round"/>
<path d="M191.786 102.854C248.07 88.6014 307.696 123.898 321.793 180.323C335.835 236.474 300.523 296.093 244.336 310.334C230.463 313.829 216.033 314.53 201.887 312.394C187.621 310.21 175.968 304.435 163.017 298.579C151.146 293.21 130.563 293.079 123.603 280.043C115.371 264.619 132.037 246.716 121.77 231.256C118.483 226.309 113.902 219.883 115.744 213.508C117.146 208.655 120.928 205.389 121.885 200.182C125.025 183.177 112.318 164.386 121.845 148.391C128.646 136.997 142.475 129.743 152.76 121.796C164.337 112.882 177.62 106.435 191.786 102.854V102.854Z" stroke="#E8E8FF" stroke-width="0.8" stroke-linecap="round" stroke-linejoin="round"/>
<path d="M190.987 99.6844C248.987 84.9907 310.445 121.362 324.975 179.508C339.452 237.377 303.053 298.817 245.152 313.496C215.137 321.104 188.71 313.928 161.389 301.409C148.7 295.586 128.736 296.705 121.833 282.11C118.467 274.998 120.61 265.449 122.065 258.168C124.087 248.114 124.551 240.457 118.942 231.787C115.758 226.858 110.138 220.237 112.149 213.835C113.868 208.375 118.72 205.635 119.714 199.599C122.6 182.152 109.124 162.426 118.301 145.882C124.631 134.473 139.981 127.535 150.022 119.764C162.151 110.326 176.097 103.49 190.987 99.6844V99.6844Z" stroke="#E8E8FF" stroke-width="0.75" stroke-linecap="round" stroke-linejoin="round"/>
<path d="M190.184 96.5067C250.161 81.3158 312.968 118.707 328.147 178.705C343.327 238.704 305.706 301.344 245.949 316.669C231.228 320.409 215.907 321.157 200.891 318.87C185.803 316.562 173.465 310.411 159.819 304.166C146.715 298.17 126.332 300.817 120.505 284.269C117.67 276.233 119.418 266.645 120.551 258.468C122.017 247.872 121.812 241.158 115.736 232.276C112.588 227.678 106.096 220.474 107.992 214.167C109.679 208.549 115.804 205.902 117.177 199.8C121.293 181.514 105.303 160.607 114.615 143.167C118.181 136.48 124.924 132.617 131.168 128.855C137.719 124.91 143.448 120.606 149.524 116.001C161.639 106.852 175.465 100.224 190.184 96.5067Z" stroke="#E8E8FF" stroke-width="0.7" stroke-linecap="round" stroke-linejoin="round"/>
<path d="M189.377 93.3319C251.083 77.7042 315.684 116.206 331.327 177.899C346.971 239.591 308.237 304.079 246.757 319.846C231.944 323.611 216.535 324.431 201.406 322.261C185.544 319.971 172.514 313.694 158.193 307.054C144.947 300.903 126.88 305.179 120.356 288.697C116.681 279.405 118.445 268.351 119.146 258.664C119.911 248.078 118.304 241.425 112.163 232.773C108.515 227.629 101.259 220.177 103.906 213.22C106.035 207.633 112.317 205.671 114.03 199.437C119.229 180.593 101.305 157.968 110.804 140.293C114.364 133.668 121.149 130.068 127.519 126.661C134.055 123.153 140.275 119.084 146.107 114.5C158.922 104.545 173.652 97.339 189.377 93.3319V93.3319Z" stroke="#E8E8FF" stroke-width="0.65" stroke-linecap="round" stroke-linejoin="round"/>
<path d="M188.575 90.1599C251.998 74.0911 318.438 113.664 334.5 177.096C350.561 240.529 311.003 306.95 247.571 323.011C231.676 327.042 215.125 327.78 198.934 325.181C183.427 322.673 170.615 316.411 156.58 309.86C143.342 303.679 125.804 309.837 119.764 292.226C116.057 281.411 117.79 269.218 117.763 258.045C117.738 247.89 114.181 241.342 108.25 233.28C104.418 228.075 95.5557 219.344 99.3505 212.018C102.089 206.732 108.38 204.778 110.735 198.867C114.325 189.843 110.982 178.267 109.07 169.349C107.086 159.981 102.034 146.661 106.897 137.319C110.352 130.684 117.402 127.439 123.818 124.375C132.078 120.43 138.303 116.274 145.583 110.784C158.393 101.108 173.011 94.0956 188.575 90.1599Z" stroke="#E8E8FF" stroke-width="0.6" stroke-linecap="round" stroke-linejoin="round"/>
<path d="M187.769 86.9845C252.943 70.4646 321.158 111.125 337.674 176.29C354.19 241.455 313.531 309.677 248.366 326.193C232.374 330.252 215.731 331.065 199.419 328.584C183.031 326.066 169.74 319.357 154.922 312.604C140.452 306.018 124.562 314.787 118.935 294.242C115.938 283.299 117.007 271.753 116.356 260.563C115.682 248.96 111.019 242.932 104.039 233.878C99.9419 228.565 90.3627 219.382 93.9805 211.687C96.8825 205.507 104.977 203.379 107.919 196.65C111.525 188.408 108.812 178.264 106.905 169.93C104.655 160.038 97.8859 144.408 102.96 134.316C106.578 127.119 114.89 124.133 121.847 121.313C129.64 118.156 135.654 114.366 142.183 109.249C155.675 98.754 171.197 91.1729 187.769 86.9845V86.9845Z" stroke="#E8E8FF" stroke-width="0.55" stroke-linecap="round" stroke-linejoin="round"/>
<path d="M186.966 83.8122C253.861 66.8391 323.887 108.629 340.84 175.482C357.793 242.336 316.039 312.389 249.164 329.377C232.747 333.541 215.661 334.37 198.918 331.815C182.023 329.223 168.506 322.348 153.249 315.394C139.72 309.223 125.639 319.506 119.283 300.301C115.258 288.115 116.257 274.709 115.119 262.115C113.996 249.646 107.228 243.461 99.5934 234.31C95.1821 229.031 85.1499 219.266 88.4499 211.234C90.968 205.105 99.7804 202.64 103.593 197.226C109.605 188.686 106.434 176.987 104.15 167.715C101.776 158.009 94.403 141.383 99.07 131.34C102.714 123.492 112.645 121.014 119.962 118.371C128.452 115.302 134.465 110.976 141.63 105.562C155.146 95.3707 170.559 87.9768 186.966 83.8122V83.8122Z" stroke="#E8E8FF" stroke-width="0.5" stroke-linecap="round" stroke-linejoin="round"/>
<path d="M186.166 80.6371C254.8 63.2347 326.62 106.08 344.022 174.688C361.424 243.295 318.594 315.128 249.977 332.542C214.852 341.449 183.27 333.751 151.611 318.258C144.409 314.734 140.701 317.308 133.341 317.388C124.383 317.477 120.347 309.645 118.263 301.904C114.739 288.792 115.634 274.996 113.624 261.666C111.785 249.505 102.824 243.387 95.1318 234.823C89.9624 229.065 79.3594 218.473 83.5251 209.674C86.7132 202.945 96.5311 201.063 100.959 195.074C107.288 186.503 103.888 174.94 101.435 165.562C98.837 155.621 90.8225 138.657 95.3002 128.513C98.8107 120.567 108.995 118.45 116.325 116.13C125.258 113.296 131.028 109.675 138.287 104.026C152.464 93.0118 168.765 85.0488 186.166 80.6371V80.6371Z" stroke="#E8E8FF" stroke-width="0.45" stroke-linecap="round" stroke-linejoin="round"/>
<path d="M185.364 77.465C255.723 59.6176 329.359 103.551 347.204 173.893C365.049 244.234 321.117 317.861 250.777 335.712C215.023 344.768 182.054 337.284 149.926 321.038C142.85 317.463 139.704 319.856 132.704 320.743C123.045 321.989 119.509 312.404 117.469 304.501C113.757 290.074 115.137 274.857 111.749 260.409C109.115 249.157 97.9386 243.156 90.6447 235.475C85.1528 229.683 73.1382 217.202 78.6191 208.01C82.1688 202.1 91.38 199.928 96.214 195.269C105.262 186.54 101.722 174.238 98.7632 163.478C95.9237 153.226 87.3153 136.506 91.7102 125.892C95.0694 117.803 105.225 115.982 112.703 113.921C123.052 111.048 129.262 106.727 137.67 100.356C151.882 89.6196 168.098 81.8365 185.364 77.465V77.465Z" stroke="#E8E8FF" stroke-width="0.4" stroke-linecap="round" stroke-linejoin="round"/>
<path d="M184.562 74.2923C256.652 56.0048 332.092 101.022 350.367 173.082C368.642 245.142 323.637 320.612 251.577 338.887C214.886 348.193 181.225 340.409 148.221 323.829C141.161 320.281 138.698 322.526 131.466 323.787C122.073 325.424 118.604 316.476 116.655 308.726C112.727 292.961 114.984 275.267 109.76 259.889C106.129 249.215 93.4292 243.723 86.1577 236.378C80.3367 230.5 68.5595 217.315 73.6336 207.767C77.4386 200.613 88.0756 198.621 93.7195 193.235C101.378 185.929 100.037 176.679 97.7086 167.239C95.7205 159.201 92.8745 151.424 90.6555 143.459C89.095 137.853 86.0692 129.412 88.3388 123.558C91.9991 114.106 104.628 113.128 112.989 110.887C121.749 108.535 127.253 104.298 134.333 98.7925C149.211 87.2558 166.311 78.915 184.562 74.2923V74.2923Z" stroke="#E8E8FF" stroke-width="0.35" stroke-linecap="round" stroke-linejoin="round"/>
<path d="M183.756 71.1177C257.573 52.3966 334.825 98.4938 353.542 172.277C372.258 246.059 326.165 323.346 252.389 342.067C214.874 351.582 180.256 343.688 146.548 326.639C137.998 322.317 137.403 325.716 129.066 326.82C118.376 328.237 115.936 315.627 114.424 307.24C111.642 291.957 114.003 273.04 107.298 258.892C102.795 249.41 88.6233 244.349 81.6735 237.509C75.406 231.327 64.6484 217.654 69.3636 207.535C72.876 199.99 83.4048 197.647 89.4504 192.736C112.464 174.046 78.1606 143.761 85.4039 121.655C88.4456 112.365 100.033 111.248 108.183 109.26C118.759 106.697 124.612 102.114 133.035 95.6574C148.106 84.1278 165.362 75.7792 183.756 71.1177V71.1177Z" stroke="#E8E8FF" stroke-width="0.3" stroke-linecap="round" stroke-linejoin="round"/>
</g>
<path opacity="0.1" d="M228 137C228 161.577 208.077 181.5 183.5 181.5C158.923 181.5 139 161.577 139 137C139 112.423 158.923 92.5 183.5 92.5C208.077 92.5 228 112.423 228 137Z" fill="white"/>
<path opacity="0.1" d="M94 242.5C94 260.449 79.4493 275 61.5 275C43.5507 275 29 260.449 29 242.5C29 224.551 43.5507 210 61.5 210C79.4493 210 94 224.551 94 242.5Z" fill="white"/>
</svg>
