<svg width="20" height="20" viewBox="0 0 20 20" fill="none" xmlns="http://www.w3.org/2000/svg">
<path d="M12.5 5H5.83333C5.3731 5 5 5.3731 5 5.83333V6.66667C5 7.1269 5.3731 7.5 5.83333 7.5H12.5C12.9602 7.5 13.3333 7.1269 13.3333 6.66667V5.83333C13.3333 5.3731 12.9602 5 12.5 5Z" stroke="white" stroke-linecap="round" stroke-linejoin="round"/>
<path d="M5.90165 7.5L3.73714 9.97372C3.08348 10.7208 2.66696 11.6454 2.54065 12.63C2.41434 13.6146 2.58394 14.6145 3.02786 15.5023V15.5023C3.328 16.1026 3.78937 16.6074 4.36027 16.9603C4.93116 17.3131 5.58904 17.5 6.26017 17.5H11.6668" stroke="white" stroke-linecap="round" stroke-linejoin="round"/>
<path d="M6.174 5L5.51085 3.71566C5.44526 3.58863 5.41345 3.44686 5.41849 3.30399C5.42352 3.16111 5.46523 3.02194 5.5396 2.89984C5.61396 2.77774 5.71849 2.67683 5.84314 2.6068C5.96778 2.53678 6.10833 2.5 6.2513 2.5H12.0824C12.2254 2.5 12.3659 2.53678 12.4906 2.6068C12.6152 2.67682 12.7197 2.77773 12.7941 2.89982C12.8685 3.02192 12.9102 3.16109 12.9152 3.30396C12.9203 3.44684 12.8885 3.5886 12.8229 3.71563L12.1598 5" stroke="white" stroke-linecap="round" stroke-linejoin="round"/>
<path d="M14.1667 18.3333C16.4679 18.3333 18.3333 16.4679 18.3333 14.1667C18.3333 11.8655 16.4679 10 14.1667 10C11.8655 10 10 11.8655 10 14.1667C10 16.4679 11.8655 18.3333 14.1667 18.3333Z" stroke="white" stroke-linecap="round" stroke-linejoin="round"/>
<path d="M15.5677 13.3417L13.8177 15.0906L12.7656 14.0417" stroke="white" stroke-linecap="round" stroke-linejoin="round"/>
<path d="M12.3887 7.5L14.7339 10.0383" stroke="white" stroke-linecap="round" stroke-linejoin="round"/>
</svg>
