<svg width="102" height="102" viewBox="0 0 102 102" fill="none" xmlns="http://www.w3.org/2000/svg">
<g opacity="0.5">
<path d="M89.777 26.8106C89.777 26.6279 89.691 26.4697 89.5618 26.3598L76.2511 12.843C76.131 12.7776 76.0268 12.6746 75.8327 12.6746H34.1439C33.8121 12.6746 33.544 12.9426 33.544 13.2745V21.6525C33.5434 21.6605 33.5394 21.6673 33.5394 21.6758V24.0756C33.5394 24.0841 33.544 24.091 33.544 24.0989V31.8179C32.4784 31.6107 31.389 31.478 30.2803 31.478C20.7519 31.478 13 39.2299 13 48.7583C13 57.3396 19.2941 64.5756 27.7128 65.8273V69.1679C26.695 69.3301 25.9129 70.2073 25.9129 71.2694L25.8879 85.0958C25.8879 87.504 27.8413 89.4633 30.2554 89.4633C31.5742 89.4633 32.7439 88.86 33.5435 87.9294V88.8634C33.5435 89.1953 33.8116 89.4634 34.1435 89.4634H89.1754C89.5072 89.4634 89.7753 89.1953 89.7753 88.8634L89.777 26.8106ZM76.4328 26.2107V14.7368L87.7273 26.2073C87.6021 26.2073 75.6752 26.2113 76.4328 26.2107V26.2107ZM14.1997 48.7585C14.1997 39.8921 21.4137 32.6775 30.2807 32.6775C39.0958 32.6775 46.3734 39.7281 46.3734 48.7585C46.3734 58.5709 37.7165 65.9499 28.3835 64.7215C20.2975 63.7726 14.2002 56.9087 14.2002 48.7585H14.1997ZM28.9124 65.9848C29.8402 66.0617 30.8323 66.052 31.6724 65.9837V69.1336H28.9124V65.9848ZM33.4125 85.0938C33.4125 86.84 31.9958 88.2613 30.2438 88.2613C28.5038 88.2613 27.0882 86.8401 27.0882 85.095L27.1127 71.2692C27.1127 70.7523 27.5322 70.3328 28.0479 70.3328H32.5127C33.0364 70.3328 33.4479 70.7444 33.4479 71.268L33.4125 85.0938ZM32.8723 69.1687V65.8343C33.0892 65.8013 33.3135 65.7637 33.544 65.7182V69.4094C33.3374 69.2944 33.1131 69.2096 32.8723 69.1687V69.1687ZM88.576 88.2602H34.7433V65.4471C40.3425 63.9632 44.9774 59.7222 46.78 53.9158H82.3591C82.6909 53.9158 82.959 53.6477 82.959 53.3158C82.959 52.984 82.6909 52.7159 82.3591 52.7159H78.2871V44.1472C78.2871 43.8153 78.019 43.5472 77.6872 43.5472C77.3553 43.5472 77.0872 43.8153 77.0872 44.1472V52.7159H72.9434L72.9428 36.4746C72.9428 36.1427 72.6748 35.8746 72.3429 35.8746C72.0111 35.8746 71.743 36.1427 71.743 36.4746V52.7159H67.5992V46.58C67.5992 46.2482 67.3311 45.9801 66.9992 45.9801C66.6674 45.9801 66.3993 46.2481 66.3993 46.58V52.7159H62.2544L62.2539 37.2221C62.2539 36.8903 61.9858 36.6222 61.6539 36.6222C61.3221 36.6222 61.054 36.8902 61.054 37.2221V52.7159H56.9102V33.6667C56.9102 33.3348 56.6421 33.0667 56.3103 33.0667C55.9784 33.0667 55.7103 33.3348 55.7103 33.6667V52.7159H51.5665V37.2221C51.5665 36.8903 51.2984 36.6222 50.9666 36.6222C50.6347 36.6222 50.3666 36.8902 50.3666 37.2221V52.7159H47.108C47.4296 51.335 47.5713 50.0691 47.5713 48.756C47.5713 40.7605 42.139 34.0126 34.7428 32.0629L34.7434 13.872H75.2228L75.2319 26.8104C75.2319 27.1422 75.5 27.4103 75.8318 27.4103C93.2971 27.4069 87.2727 27.408 88.5762 27.408L88.576 88.2602Z" fill="#96A1DB"/>
<path d="M69.2633 21.6411H39.5638C39.232 21.6411 38.9639 21.9092 38.9639 22.241V26.814C38.9639 27.1458 39.232 27.4139 39.5638 27.4139H69.2633C69.5951 27.4139 69.8632 27.1458 69.8632 26.814V22.241C69.8632 21.9092 69.5951 21.6411 69.2633 21.6411ZM68.6633 26.2135H40.1631V22.8409H68.6633V26.2135Z" fill="#96A1DB"/>
<path d="M60.9778 71.131C60.9778 77.28 65.9344 82.4973 72.3441 82.4973C78.5854 82.4973 83.7104 77.4167 83.7104 71.131C83.7098 56.0875 60.9775 56.1064 60.9775 71.131H60.9778ZM72.3441 81.2969C70.3474 81.285 68.6307 80.7903 66.9874 79.7658L72.3441 72.1727L77.6905 79.7669C76.119 80.7573 74.3357 81.2969 72.3441 81.2969ZM78.6639 79.0646L72.8353 70.7857C72.7226 70.6263 72.5399 70.5313 72.3441 70.5313C72.1494 70.5313 71.9667 70.6263 71.854 70.7857L66.0147 79.064C63.6104 77.1429 62.1783 74.2292 62.1783 71.1312C62.1783 65.5263 66.7393 60.9653 72.3442 60.9653C77.9491 60.9653 82.5101 65.5263 82.5101 71.1312C82.5101 74.239 81.0769 77.1499 78.664 79.0646H78.6639Z" fill="#96A1DB"/>
<path d="M40.9554 65.2807H56.3122C56.6441 65.2807 56.9122 65.0126 56.9122 64.6807C56.9122 64.3489 56.6441 64.0808 56.3122 64.0808H40.9554C40.6236 64.0808 40.3555 64.3489 40.3555 64.6807C40.3555 65.0126 40.6241 65.2807 40.9554 65.2807Z" fill="#96A1DB"/>
<path d="M58.463 70.5308H40.9554C40.6236 70.5308 40.3555 70.7988 40.3555 71.1307C40.3555 71.4625 40.6236 71.7306 40.9554 71.7306H58.463C58.7948 71.7306 59.0629 71.4625 59.0629 71.1307C59.0629 70.7989 58.7948 70.5308 58.463 70.5308Z" fill="#96A1DB"/>
<path d="M58.463 76.98H40.9554C40.6236 76.98 40.3555 77.2481 40.3555 77.5799C40.3555 77.9117 40.6236 78.1798 40.9554 78.1798H58.463C58.7948 78.1798 59.0629 77.9117 59.0629 77.5799C59.0629 77.2481 58.7948 76.98 58.463 76.98Z" fill="#96A1DB"/>
<path d="M44.3636 48.7537C44.3636 40.9984 38.0472 34.689 30.2822 34.689C22.5303 34.689 16.2241 40.9985 16.2241 48.7537C16.2241 49.1698 16.2349 49.5939 16.2771 49.9997C16.5349 52.8554 17.6261 55.5216 19.4356 57.7083C27.8887 67.8793 44.3629 61.786 44.3629 48.7537L44.3636 48.7537ZM20.3601 56.9428C18.7065 54.9437 17.7082 52.5059 17.4714 49.8836C17.4327 49.5097 17.4248 49.1277 17.4248 48.7538C17.4248 41.6604 23.193 35.8888 30.2823 35.8888C37.3853 35.8888 43.1637 41.6604 43.1637 48.7538C43.1632 60.7047 28.0867 66.2206 20.3594 56.9428L20.3601 56.9428Z" fill="#96A1DB"/>
<path d="M29.8343 40.0808C29.8343 39.7489 29.5662 39.4808 29.2344 39.4808C24.7041 39.4808 21.0186 43.1687 21.0186 47.7017C21.0186 48.0336 21.2866 48.3017 21.6185 48.3017C21.9503 48.3017 22.2184 48.0336 22.2184 47.7017C22.2184 43.8313 25.3661 40.6812 29.2343 40.6812C29.5661 40.6812 29.8342 40.4126 29.8342 40.0807L29.8343 40.0808Z" fill="#96A1DB"/>
</g>
</svg>
