<svg width="20" height="20" viewBox="0 0 20 20" fill="none" xmlns="http://www.w3.org/2000/svg">
<path d="M17.2477 11.0799L11.0794 17.2482C10.4827 17.8449 9.51523 17.8449 8.91857 17.2482L2.75023 11.0799C2.15357 10.4832 2.15357 9.51572 2.75023 8.91906L8.91857 2.75072C9.51523 2.15406 10.4827 2.15406 11.0794 2.75072L17.2477 8.91906C17.8444 9.51656 17.8444 10.4832 17.2477 11.0799Z" stroke="#70708F" stroke-linecap="round" stroke-linejoin="round"/>
<path d="M13.1389 10.468L10.4673 13.1396C10.2089 13.398 9.78983 13.398 9.53141 13.1396L6.85983 10.468C6.60141 10.2096 6.60141 9.79056 6.85983 9.53214L9.53141 6.86057C9.78983 6.60214 10.2089 6.60214 10.4673 6.86057L13.1389 9.53214C13.3973 9.79092 13.3973 10.2096 13.1389 10.468Z" stroke="#70708F" stroke-linecap="round" stroke-linejoin="round"/>
</svg>
