<svg width="20" height="20" viewBox="0 0 20 20" fill="none" xmlns="http://www.w3.org/2000/svg">
<path d="M8.2711 15.3931C8.13188 15.5326 7.96655 15.6432 7.78455 15.7187C7.60255 15.7943 7.40745 15.8332 7.2104 15.8333C7.01335 15.8334 6.81822 15.7947 6.63614 15.7193C6.45406 15.644 6.28861 15.5335 6.14924 15.3942L2.9396 12.1863C2.80024 12.047 2.68968 11.8816 2.61425 11.6996C2.53882 11.5176 2.5 11.3224 2.5 11.1254C2.5 10.9283 2.53882 10.7332 2.61425 10.5512C2.68968 10.3692 2.80024 10.2038 2.9396 10.0645L8.3521 4.65447C8.66465 4.34209 9.08846 4.16661 9.53035 4.16663H12.5C12.942 4.16663 13.3659 4.34222 13.6785 4.65478C13.9911 4.96734 14.1667 5.39127 14.1667 5.83329V8.79869C14.1667 9.24027 13.9914 9.66379 13.6794 9.97628L8.2711 15.3931Z" stroke="white" stroke-linecap="round" stroke-linejoin="round"/>
<path d="M17.4996 6.66663V9.83113C17.4996 10.2732 17.324 10.6971 17.0115 11.0096L12.293 15.7282" stroke="white" stroke-linecap="round" stroke-linejoin="round"/>
</svg>
