<svg width="122" height="122" viewBox="0 0 122 122" fill="none" xmlns="http://www.w3.org/2000/svg">
<path d="M25.9634 113.925C24.9292 113.925 24.1021 114.752 24.1021 115.787C24.1021 116.821 24.9292 117.649 25.9634 117.649C26.9977 117.649 27.8257 116.821 27.8257 115.787C27.8257 114.753 26.9977 113.925 25.9634 113.925Z" fill="#70708F"/>
<path d="M13.9848 113.925C12.9506 113.925 12.1226 114.752 12.1226 115.787C12.1226 116.821 12.9497 117.649 13.9848 117.649C15.019 117.649 15.8471 116.821 15.8471 115.787C15.8471 114.753 15.0199 113.925 13.9848 113.925Z" fill="#70708F"/>
<path d="M19.9648 113.925C18.9514 113.925 18.1025 114.752 18.1025 115.787C18.1025 116.821 18.9505 117.649 19.9648 117.649C20.999 117.649 21.847 116.821 21.847 115.787C21.847 114.753 20.999 113.925 19.9648 113.925Z" fill="#70708F"/>
<path d="M99.5626 49.7703C101.107 49.7703 102.361 51.0269 102.361 52.5692C102.361 53.0962 102.787 53.522 103.314 53.522C103.841 53.522 104.267 53.0962 104.267 52.5692C104.267 49.9746 102.156 47.8638 99.5617 47.8638C99.0347 47.8638 98.6089 48.2895 98.6089 48.8166C98.6098 49.3445 99.0365 49.7703 99.5626 49.7703L99.5626 49.7703Z" fill="#70708F"/>
<path d="M116.887 109.62H112.646C113.849 108.429 114.596 106.78 114.596 104.96L114.596 44.1241C114.596 40.4981 111.637 37.5502 108.001 37.5502H80.3427C79.8509 30.393 77.5927 23.7665 74.7938 18.1139H74.8263L74.3182 17.1466C70.1877 9.13059 65.1143 3.22476 62.9042 0.847063C62.9024 0.845255 62.8997 0.844351 62.8969 0.842543C62.896 0.841639 62.8951 0.840735 62.8942 0.839831C62.3997 0.30736 61.7 0 60.9741 0H60.9732C60.2518 0.00180815 59.5575 0.30375 59.0648 0.828977C59.0585 0.836209 59.0485 0.838017 59.0422 0.844345C58.5378 1.39218 57.8806 2.13167 57.1239 3.03026C56.981 3.19931 56.8228 3.39548 56.6728 3.57719C56.435 3.86467 56.2018 4.14672 55.9478 4.46312C55.6983 4.77412 55.437 5.11221 55.1739 5.45121C54.9985 5.67721 54.8277 5.89689 54.6469 6.13464C54.3341 6.54596 54.0159 6.97989 53.6904 7.42648C53.5494 7.61994 53.4102 7.8116 53.2683 8.01136C52.9057 8.51852 52.5423 9.04375 52.1708 9.59068C52.0677 9.74256 51.9656 9.89623 51.8625 10.0517C51.4548 10.6619 51.0489 11.2875 50.6385 11.942C50.5887 12.0216 50.539 12.1048 50.4893 12.1852C49.6034 13.609 48.7201 15.107 47.8758 16.7171L47.1444 18.1129H47.2005C44.3916 23.7838 42.1234 30.4184 41.6409 37.5492L13.9643 37.5501C10.3383 37.5501 7.38942 40.498 7.38942 44.124V104.96C7.38942 106.78 8.13435 108.428 9.33305 109.62H5.0905C2.28443 109.62 0 111.903 0 114.71V116.883C0 119.69 2.28355 121.973 5.0905 121.973H116.887C119.694 121.973 121.977 119.69 121.977 116.883V114.71C121.978 111.903 119.694 109.62 116.888 109.62L116.887 109.62ZM79.2291 50.6636C87.1086 56.7946 88.6517 67.3121 83.0259 77.3682C81.7097 72.3156 77.6977 68.2809 73.2562 65.6151C76.0641 60.5951 78.1243 55.3283 79.2291 50.6636ZM83.1055 77.6713L83.1028 77.6768C83.1028 77.6749 83.1028 77.6731 83.1019 77.6713H83.1055ZM70.0578 68.5389V70.856C70.0578 71.1742 69.8544 71.4427 69.6121 71.4427H68.9612C52.6673 71.3713 52.1618 71.4463 52.3525 71.4427C52.1103 71.4427 51.9069 71.1751 51.9069 70.856V68.5389H70.0578ZM54.1372 73.3483H54.4319C51.3701 80.4022 54.8748 87.4057 60.3659 91.9322L60.9707 92.4312L61.5764 91.934C67.005 87.4737 70.6264 80.4656 67.5285 73.3482H67.8187C72.7428 82.8875 68.8068 91.6808 60.9673 98.8956C53.1339 91.6598 49.2366 82.872 54.1373 73.3482L54.1372 73.3483ZM60.9733 89.9144C55.9578 85.1465 53.4456 79.5181 56.5236 73.3473H65.4374C68.5373 79.5318 65.9789 85.1692 60.9733 89.9144ZM48.7095 65.6144C44.3294 68.2406 40.2415 72.3395 38.9568 77.3656C33.332 67.3094 34.8751 56.7937 42.7546 50.6634C43.8114 55.1427 45.9124 60.613 48.7092 65.6148L48.7095 65.6144ZM41.7666 45.076C41.7892 45.2767 42.0613 47.2863 42.3289 48.6296C32.9489 55.3338 30.9699 67.2904 37.4698 78.6088C37.7817 79.1675 38.3594 79.4984 38.9859 79.4984C39.0681 79.4984 39.1504 79.493 39.2336 79.4812C39.974 79.3773 40.5634 78.8412 40.736 78.1098C41.8082 73.4685 45.5662 69.7712 49.6812 67.2952C49.7879 67.4751 49.8919 67.6586 50.0003 67.8376V70.8543C50.0003 72.1244 50.9161 73.1369 52.0778 73.288C50.7263 76.151 50.0003 78.9751 50.0003 81.6962C50.0003 92.238 59.9374 100.554 60.3605 100.902L60.9653 101.401L61.571 100.904C61.9949 100.554 71.9616 92.2396 71.9616 81.6962C71.9616 78.976 71.2339 76.1528 69.8788 73.2889C71.0431 73.1406 71.9616 72.1272 71.9616 70.8542V67.8385C72.071 67.6577 72.1741 67.476 72.2817 67.2943C76.4421 69.7983 80.135 73.4271 81.2458 78.1145C81.4176 78.8404 82.007 79.3765 82.7474 79.4804C82.8306 79.4913 82.9128 79.4976 82.9951 79.4976C83.6198 79.4976 84.1965 79.1667 84.5084 78.6117C91.0093 67.286 89.0312 55.33 79.6521 48.6278C79.9161 47.2998 80.1927 45.2668 80.2144 45.0742H104.244C105.789 45.0742 107.045 46.3326 107.045 47.8775V101.203C107.045 102.748 105.789 104.005 104.244 104.005H17.7171C16.1722 104.005 14.9148 102.748 14.9148 101.203L14.9184 47.8798C14.9184 46.3348 16.1759 45.0765 17.7208 45.0765L41.7666 45.076ZM50.7581 15.4485C50.8485 15.2912 50.9389 15.1384 51.0293 14.983C51.4072 14.3321 51.7877 13.6938 52.1693 13.08C52.2542 12.9435 52.3392 12.8142 52.4242 12.6804C52.8111 12.0684 53.198 11.4681 53.5822 10.8959C53.6645 10.7738 53.745 10.6608 53.8263 10.5406C54.2096 9.97738 54.5911 9.42594 54.9645 8.90522C55.0558 8.77866 55.1426 8.66474 55.233 8.54091C55.5901 8.05002 55.9445 7.56729 56.2862 7.11889C56.4507 6.90374 56.6035 6.71389 56.7626 6.50959C57.0157 6.18415 57.2734 5.85055 57.5138 5.55134C58.746 4.02263 59.782 2.8582 60.4518 2.13406C60.7167 1.84207 61.204 1.84297 61.4815 2.12412C61.486 2.12864 61.4923 2.13044 61.496 2.13496C63.3067 4.08764 67.7508 9.19817 71.639 16.1896C71.6417 16.195 71.6453 16.2005 71.6481 16.2059H50.3413C50.4824 15.9555 50.618 15.6942 50.7581 15.4483L50.7581 15.4485ZM49.3189 18.1127H72.6723C75.6827 23.9799 78.1616 30.9859 78.5168 38.5599C78.9797 46.1528 76.8842 55.946 70.47 66.6299H51.492C45.1268 56.061 43.0006 46.1475 43.4642 38.5437C43.8113 31.0086 46.2983 23.9954 49.3177 18.112L49.3189 18.1127ZM9.2956 104.959V44.123C9.2956 41.5493 11.3902 39.4546 13.9649 39.4546H41.5188C41.4763 40.9019 41.5342 41.7264 41.6318 43.1693L17.7183 43.1702C15.1219 43.1702 13.0101 45.2829 13.0101 47.8793V101.205C13.0101 103.8 15.1219 105.912 17.7183 105.912H104.245C106.84 105.912 108.952 103.8 108.952 101.205V47.8793C108.952 45.2829 106.84 43.1702 104.245 43.1702H80.3498C80.4465 41.7274 80.5053 40.9047 80.4628 39.4555H107.998C110.585 39.4555 112.687 41.5492 112.687 44.1239V104.96C112.687 107.502 110.633 109.569 108.091 109.62H13.8713C11.3409 109.568 9.29434 107.501 9.29434 104.959L9.2956 104.959ZM50.3302 114.832C49.7155 114.832 49.2146 114.331 49.2146 113.716V111.534H60.0367V114.832H50.3302ZM61.9424 111.534H72.7644V113.716C72.7644 114.331 72.2636 114.832 71.6489 114.832H61.9425L61.9424 111.534ZM120.073 116.882C120.073 118.636 118.644 120.067 116.888 120.067L5.09147 120.066C3.33497 120.066 1.90655 118.636 1.90655 116.881V114.708C1.90655 112.954 3.3349 111.523 5.09147 111.523C62.9 111.536 43.018 111.532 47.3087 111.532V113.714C47.3087 115.38 48.6647 116.737 50.3309 116.737H71.6494C73.3155 116.737 74.6716 115.38 74.6716 113.714V111.532C78.9857 111.532 65.956 111.534 116.889 111.523C118.645 111.523 120.074 112.953 120.074 114.708L120.073 116.882Z" fill="#70708F"/>
<path d="M60.9765 40.77C66.1015 40.77 70.2707 36.6005 70.2707 31.4749C70.2707 26.3663 66.1013 22.2078 60.9765 22.2078C55.867 22.2078 51.7085 26.3654 51.7085 31.4749C51.7085 36.6005 55.8661 40.77 60.9765 40.77ZM60.9765 24.1143C65.0508 24.1143 68.3642 27.4158 68.3642 31.4758C68.3642 35.5501 65.0501 38.8653 60.9765 38.8653C56.9175 38.8653 53.6143 35.5503 53.6143 31.4758C53.6143 27.4158 56.9168 24.1143 60.9765 24.1143Z" fill="#70708F"/>
</svg>
