<svg width="672" height="382" viewBox="0 0 672 382" fill="none" xmlns="http://www.w3.org/2000/svg">
<g opacity="0.2">
<path d="M388.051 -38.5261C395.595 -51.5741 413.766 -55.6996 426.79 -48.8731C440.695 -41.5932 444.186 -22.3243 437.137 -10.1341C430.087 2.05601 411.636 8.6343 398.398 0.212867C385.984 -7.67997 380.505 -25.4875 388.051 -38.5261Z" stroke="url(#paint0_linear_13_1523)" stroke-width="2.25" stroke-linecap="round" stroke-linejoin="round"/>
<path d="M441.614 -45.6972C429.813 -61.7252 407.252 -65.1514 391.224 -53.3498C375.196 -41.5482 371.77 -18.9879 383.572 -2.95994C395.373 13.068 417.934 16.4942 433.962 4.69266C449.99 -7.1089 453.416 -29.6692 441.614 -45.6972Z" stroke="url(#paint1_linear_13_1523)" stroke-width="2.2" stroke-linecap="round" stroke-linejoin="round"/>
<path d="M429.528 -64.6003C407.276 -73.9795 381.634 -63.5441 372.255 -41.2922C362.876 -19.0402 373.311 6.6019 395.563 15.9811C417.815 25.3603 443.457 14.9248 452.837 -7.3271C462.216 -29.579 451.78 -55.2212 429.528 -64.6003Z" stroke="url(#paint2_linear_13_1523)" stroke-width="2.15" stroke-linecap="round" stroke-linejoin="round"/>
<path d="M368.096 -50.0725C381.806 -73.7926 414.596 -81.8628 438.336 -68.8283C462.88 -55.3487 470.518 -21.7969 457.083 1.41346C443.745 24.437 410.642 34.7242 386.85 20.1585C363.774 6.03087 354.38 -26.3229 368.096 -50.0725Z" stroke="url(#paint3_linear_13_1523)" stroke-width="2.1" stroke-linecap="round" stroke-linejoin="round"/>
<path d="M361.444 -53.9665C377.427 -80.957 414.798 -91.7276 442.183 -75.4736C468.982 -59.551 479.437 -21.8944 463.737 5.25838C447.921 32.6102 410.535 41.5656 383.012 26.7924C354.849 11.6379 345.229 -26.6453 361.444 -53.9665Z" stroke="url(#paint4_linear_13_1523)" stroke-width="2.05" stroke-linecap="round" stroke-linejoin="round"/>
<path d="M354.787 -57.9649C373.035 -88.4077 414.894 -100.577 446.028 -82.1277C476.438 -64.1155 488.165 -21.6377 470.363 9.10784C452.03 40.7933 410.928 48.2122 379.351 33.0463C346.274 17.1293 336.128 -26.8203 354.787 -57.9649Z" stroke="url(#paint5_linear_13_1523)" stroke-width="2" stroke-linecap="round" stroke-linejoin="round"/>
<path d="M348.141 -61.7537C368.898 -96.452 414.564 -109.165 449.874 -88.7729C484.948 -68.4919 497.301 -22.1021 477.027 12.9516C455.633 49.9603 412.08 54.4348 375.915 38.922C338.064 22.6939 326.676 -25.8695 348.141 -61.7537Z" stroke="url(#paint6_linear_13_1523)" stroke-width="1.95" stroke-linecap="round" stroke-linejoin="round"/>
<path d="M341.505 -65.467C364.11 -103.511 414.926 -117.821 453.721 -95.4179C492.515 -73.0147 506.091 -21.9505 483.672 16.7981C459.282 58.9768 413.4 57.9513 372.663 44.5222C352.39 37.8375 339.92 31.1928 334.314 8.91295C328.391 -14.6685 328.897 -44.2379 341.505 -65.467Z" stroke="url(#paint7_linear_13_1523)" stroke-width="1.9" stroke-linecap="round" stroke-linejoin="round"/>
<path d="M334.86 -69.3132C359.461 -111.223 415.241 -126.547 457.567 -102.063C499.894 -77.5781 514.811 -21.683 490.317 20.6449C461.776 70.0401 415.426 59.3693 369.633 50.274C346.384 45.6797 333.424 41.7768 327.193 15.931C320.691 -11.021 320.504 -44.8488 334.86 -69.3132Z" stroke="url(#paint8_linear_13_1523)" stroke-width="1.85" stroke-linecap="round" stroke-linejoin="round"/>
<path d="M328.216 -73.1506C354.548 -118.486 415.953 -134.291 461.414 -108.708C507.7 -82.6634 522.909 -20.7713 496.971 24.4898C484.973 45.4026 464.064 64.0749 439.234 66.9231C414.631 69.7396 390.48 57.8298 366.689 56.2922C339.21 54.5122 327.204 53.3021 320.2 23.2477C313.158 -6.94557 312.444 -45.9684 328.216 -73.1506Z" stroke="url(#paint9_linear_13_1523)" stroke-width="1.8" stroke-linecap="round" stroke-linejoin="round"/>
<path d="M321.571 -76.997C350.046 -126.181 416.022 -143.05 465.223 -115.347C515.389 -87.1359 531.618 -20.2427 503.573 28.304C490.842 50.3676 468.094 71.5574 441.405 73.6953C414.925 75.8135 389.951 61.1829 363.674 62.2823C354.169 62.654 341.373 66.7084 332.049 63.4395C319.053 58.8685 315.81 42.4011 313.237 30.4262C305.983 -3.46792 303.74 -46.1896 321.571 -76.997Z" stroke="url(#paint10_linear_13_1523)" stroke-width="1.75" stroke-linecap="round" stroke-linejoin="round"/>
<path d="M314.926 -80.8434C345.361 -133.466 416.516 -152.898 469.107 -121.998C521.163 -91.4167 541.485 -20.5017 510.261 32.1831C496.547 55.3269 472.066 79.3077 443.615 80.9524C415.374 82.5773 388.801 65.7383 360.649 68.341C350.389 69.2993 336.632 75.3442 326.278 72.9506C311.83 69.6121 308.787 49.9053 306.272 37.7394C298.4 -0.221631 294.775 -46.0089 314.926 -80.8434Z" stroke="url(#paint11_linear_13_1523)" stroke-width="1.7" stroke-linecap="round" stroke-linejoin="round"/>
<path d="M308.244 -84.6851C340.739 -140.914 416.675 -161.632 472.924 -128.648C528.582 -95.9672 549.283 -20.019 516.878 36.0332C502.959 60.1864 475.457 87.1005 445.657 88.1748C415.37 89.2694 388.316 70.7768 357.399 74.3058C345.928 75.6071 330.822 83.6199 319.326 81.3769C304.495 78.467 301.653 57.1745 299.146 44.7864C290.792 3.39308 286.306 -46.6866 308.244 -84.6851Z" stroke="url(#paint12_linear_13_1523)" stroke-width="1.65" stroke-linecap="round" stroke-linejoin="round"/>
<path d="M301.627 -88.5353C336.273 -148.421 416.926 -170.397 476.789 -135.296C536.137 -100.507 558.058 -19.8362 523.55 39.8666C508.852 65.3213 479.161 94.7924 447.695 95.4369C415.361 96.1264 387.461 75.9256 354.024 80.2022C341.925 81.7551 325.587 90.9214 313.418 89.5036C297.281 87.5653 294.619 63.7188 292.096 50.9388C283.259 6.17105 277.828 -47.4202 301.627 -88.5353Z" stroke="url(#paint13_linear_13_1523)" stroke-width="1.6" stroke-linecap="round" stroke-linejoin="round"/>
<path d="M294.982 -92.3821C332.027 -156.412 416.607 -178.977 480.636 -141.941C544.664 -104.905 566.63 -20.1446 530.204 43.7116C514.774 70.7978 482.89 102.326 449.561 103.184C415.349 104.06 386.149 81.9937 350.389 86.0867C337.141 87.6084 321.728 96.5872 308.636 96.2698C289.756 95.8125 287.84 70.4288 284.964 55.8906C275.539 8.16701 269.616 -48.528 294.982 -92.3821Z" stroke="url(#paint14_linear_13_1523)" stroke-width="1.55" stroke-linecap="round" stroke-linejoin="round"/>
<path d="M288.356 -96.2312C327.489 -163.881 416.86 -187.733 484.501 -148.589C552.143 -109.444 575.362 -19.9272 536.849 47.5582C520.695 75.8612 486.387 110.047 451.393 110.763C435.589 111.057 421.386 104.396 406.655 99.7317C387.206 93.5756 366.887 90.3972 346.53 92.0315C332.525 93.1499 315.098 102.988 301.364 101.934C283.012 100.518 280.377 74.0523 277.622 59.7568C267.865 9.1184 261.445 -49.7472 288.356 -96.2312Z" stroke="url(#paint15_linear_13_1523)" stroke-width="1.5" stroke-linecap="round" stroke-linejoin="round"/>
<path d="M281.693 -100.066C322.948 -171.378 417.037 -196.479 488.367 -155.236C559.696 -113.994 584.77 -19.8911 543.537 51.4371C525.734 82.1732 490.77 116.48 453.299 118.457C436.358 119.353 421.105 113.637 405.418 108.116C385.228 100.97 363.897 97.5969 342.487 98.1657C327.581 98.5547 309.419 108.361 295.091 106.496C275.602 103.961 272.952 76.9111 269.901 61.1956C259.651 8.61685 253.865 -51.9627 281.693 -100.066Z" stroke="url(#paint16_linear_13_1523)" stroke-width="1.45" stroke-linecap="round" stroke-linejoin="round"/>
<path d="M275.048 -103.912C318.38 -178.852 417.252 -205.229 492.176 -161.876C567.099 -118.522 593.483 -19.6708 550.139 55.2515C531.026 88.2963 494.71 122.639 454.994 126.498C437.922 128.172 421.92 124.109 405.825 118.694C383.471 111.157 361.917 105.623 338.122 104.538C322.006 103.779 305.461 110.647 289.888 109.438C268.435 107.774 265.023 77.6197 261.733 61.0243C251.128 7.28389 246.616 -54.7723 275.048 -103.912Z" stroke="url(#paint17_linear_13_1523)" stroke-width="1.4" stroke-linecap="round" stroke-linejoin="round"/>
<path d="M268.403 -107.758C313.857 -186.352 417.449 -213.968 496.021 -168.53C574.592 -123.093 602.232 -19.4749 556.794 59.0966C536.063 94.9355 498.7 127.982 456.689 134.673C414.678 141.364 374.788 117.115 333.718 111.462C317.247 109.196 295.407 115.538 279.98 110.501C260.603 104.171 256.554 76.8845 253.238 59.9563C242.488 5.18816 239.608 -57.9815 268.403 -107.758Z" stroke="url(#paint18_linear_13_1523)" stroke-width="1.35" stroke-linecap="round" stroke-linejoin="round"/>
<path d="M261.749 -111.604C309.338 -193.823 417.635 -222.792 499.867 -175.175C582.1 -127.559 611.027 -19.2857 563.429 62.9444C540.978 101.669 502.538 133.271 458.295 142.832C411.636 152.925 372.778 129.107 329.107 119.032C312.106 115.109 291.229 116.874 274.827 110.983C253.464 103.316 248.387 77.1936 244.51 57.6422C233.539 2.18404 232.671 -61.3737 261.749 -111.604Z" stroke="url(#paint19_linear_13_1523)" stroke-width="1.3" stroke-linecap="round" stroke-linejoin="round"/>
<path d="M255.104 -115.45C304.776 -201.259 417.868 -231.545 503.714 -181.82C589.559 -132.095 619.809 -19.0558 570.082 66.7804C545.907 108.496 506.315 138.404 459.968 151.059C438.671 156.882 417.868 159.925 396.301 153.682C371.716 146.554 349.756 133.125 324.746 126.807C307.491 122.449 286.746 118.157 270.344 111.237C247.424 101.587 239.937 77.3406 235.507 54.8093C224.603 -0.99479 226.007 -65.15 255.104 -115.45Z" stroke="url(#paint20_linear_13_1523)" stroke-width="1.25" stroke-linecap="round" stroke-linejoin="round"/>
<path d="M248.455 -119.258C299.927 -208.204 418.573 -239.269 507.555 -188.436C597.343 -137.197 627.892 -18.1131 576.742 70.6632C551.059 115.206 509.954 143.576 461.687 159.269C438.697 166.734 415.185 173.637 391.27 166.348C366.449 158.773 345.874 141.573 320.619 134.328C275.541 121.421 236.009 100.611 226.432 51.39C215.646 -3.97885 219.926 -69.9797 248.455 -119.258Z" stroke="url(#paint21_linear_13_1523)" stroke-width="1.2" stroke-linecap="round" stroke-linejoin="round"/>
<path d="M241.796 -123.131C295.403 -215.713 418.757 -248.034 511.396 -195.118C604.841 -141.738 636.744 -17.6623 583.383 74.4815C555.953 121.856 513.66 148.681 463.405 167.268C441.306 175.464 416.518 186.498 392.447 180.98C364.939 174.676 344.218 149.92 316.747 141.342C273.512 127.859 226.225 94.0611 217.366 47.7677C206.781 -7.54273 213.422 -74.1247 241.796 -123.131Z" stroke="url(#paint22_linear_13_1523)" stroke-width="1.15" stroke-linecap="round" stroke-linejoin="round"/>
<path d="M235.147 -127.006C290.88 -223.213 418.969 -256.804 515.239 -201.792C612.312 -146.325 645.482 -17.4651 590.034 78.2983C561.032 128.383 517.265 153.887 465.161 175.127C441.888 184.622 413.315 200.879 387.341 193.859C359.487 186.325 341.465 157.229 313.217 147.779C289.449 139.825 276.254 125.609 256.931 111.032C232.877 92.8876 214.258 74.9618 208.158 44.3576C197.345 -10.2478 207.334 -78.9341 235.147 -127.006Z" stroke="url(#paint23_linear_13_1523)" stroke-width="1.1" stroke-linecap="round" stroke-linejoin="round"/>
<path d="M228.497 -130.823C286.356 -230.79 419.067 -265.5 519.087 -208.427C620.026 -150.83 654.116 -17.1955 596.681 82.1637C566.336 134.668 521.008 159.592 467.085 182.741C443.096 193.029 414.144 212.964 386.831 206.949C372.167 203.718 362.749 191.617 352.242 181.764C339.652 169.944 326.559 159.406 310.055 153.616C295.78 148.628 283.489 144.218 273.086 132.841C266.439 125.553 261.43 118.294 253.779 111.733C229.744 91.1829 205.888 74.309 199.287 41.3712C188.363 -12.9301 201.037 -83.387 228.497 -130.823Z" stroke="url(#paint24_linear_13_1523)" stroke-width="1.05" stroke-linecap="round" stroke-linejoin="round"/>
<path d="M221.852 -134.67C281.286 -237.319 420.23 -274.547 522.933 -215.072C625.636 -155.597 663.795 -16.9475 603.326 86.0101C588.899 110.793 569.856 132.58 547.227 150.193C523.142 168.773 496.406 178.119 469 190.222C444.046 201.241 410.969 226.861 382.218 218.346C367.792 214.072 358.482 199.926 348.811 189.245C337.153 176.323 323.78 164.479 307.175 158.856C294.004 154.406 280.584 149.693 271.129 138.769C263.337 129.767 258.773 119.984 249.803 111.762C225.849 89.8061 197.341 73.2867 190.569 39.0557C179.879 -15.2881 194.46 -87.3682 221.852 -134.67Z" stroke="url(#paint25_linear_13_1523)" stroke-linecap="round" stroke-linejoin="round"/>
<path d="M215.197 -138.515C277.113 -245.483 419.755 -284.172 526.778 -221.727C633.175 -159.635 671.834 -17.0078 609.99 89.854C594.298 116.884 573.274 140.441 548.196 159.095C524.204 176.825 497.957 185.68 471.041 197.445C445.981 208.383 409.297 238.864 379.96 229.595C364.566 224.726 354.493 206.245 344.912 194.561C334.039 181.27 320.933 168.926 304.555 163.685C292.163 159.654 277.921 154.979 269.094 144.622C261.276 135.43 257.66 124.044 249.11 115.119C225.126 90.0615 189.868 74.9119 182.111 37.9826C176.245 9.87417 182.076 -20.3267 185.728 -48.376C189.878 -80.2738 199.021 -110.574 215.197 -138.515Z" stroke="url(#paint26_linear_13_1523)" stroke-width="0.95" stroke-linecap="round" stroke-linejoin="round"/>
<path d="M208.543 -142.36C272.556 -252.949 420.013 -292.891 530.624 -228.381C640.638 -164.211 680.564 -16.7327 616.635 93.7003C600.816 120.961 579.741 144.811 554.635 163.865C529.424 182.92 501.9 192.338 473.168 204.377C446.389 215.614 411.735 246.646 380.713 239.075C363.934 234.958 355.074 217.509 345.536 204.492C333.862 188.573 321.058 174.273 302.048 168.161C290.045 164.297 275.045 160.728 266.536 150.374C258.857 141.077 256.629 128.688 248.606 119.333C224.783 91.5228 182.411 77.4094 174.237 38.3273C168.166 9.30534 174.673 -22.4519 178.391 -51.4624C182.451 -83.5302 192.322 -114.327 208.543 -142.36Z" stroke="url(#paint27_linear_13_1523)" stroke-width="0.9" stroke-linecap="round" stroke-linejoin="round"/>
<path d="M201.898 -146.206C268.013 -260.455 420.211 -301.62 534.47 -235.026C648.163 -168.766 689.272 -16.5499 623.29 97.546C606.954 125.69 585.194 150.312 559.271 169.984C533.191 189.689 504.891 199.466 475.045 211.527C446.601 223.017 413.141 254.824 380.23 246.874C362.244 242.512 353.764 224.626 344.022 210.493C332.542 193.835 319.592 178.075 299.459 172.736C286.328 169.261 270.442 166.23 262.05 154.379C254.176 143.215 253.255 130.2 243.69 119.456C219.473 92.2584 175.456 78.5489 166.227 40.1724C159.199 10.6309 167.154 -22.791 170.743 -52.4563C174.683 -85.4912 185.282 -117.384 201.898 -146.206Z" stroke="url(#paint28_linear_13_1523)" stroke-width="0.85" stroke-linecap="round" stroke-linejoin="round"/>
<path d="M195.234 -150.05C263.459 -267.97 420.418 -310.36 538.321 -241.643C655.673 -173.281 698.027 -16.3069 629.94 101.43C613.095 130.467 590.64 155.862 563.884 176.134C536.852 196.531 508.062 206.656 477.012 218.828C448.549 229.983 414.622 264.356 381.318 254.701C341.919 243.276 339.128 185.95 296.336 177.886C282.638 175.307 264.339 172.48 256.642 158.945C250.784 148.642 251.488 136.938 244.307 126.802C220.873 93.6771 168.487 84.2568 157.212 42.0521C149.204 11.9655 159.661 -23.1535 163.152 -53.4493C167.132 -87.5038 178.051 -120.381 195.234 -150.05V-150.05Z" stroke="url(#paint29_linear_13_1523)" stroke-width="0.8" stroke-linecap="round" stroke-linejoin="round"/>
<path d="M188.599 -153.898C258.894 -275.426 420.659 -319.134 542.162 -248.326C663.114 -177.882 706.748 -16.0977 636.589 105.238C600.221 168.134 544.882 200.789 479.103 226.197C448.537 237.984 417.722 273.363 381.893 261.062C364.428 255.07 351.893 235.83 342.042 221.462C328.458 201.599 316.35 188.279 292.595 183.506C279.099 180.784 258.769 179.386 251.305 165.52C244.945 153.692 248.286 141.05 239.772 129.495C215.181 96.0716 159.964 86.4138 147.193 43.8997C138.388 14.5786 151.867 -22.5795 155.254 -52.178C159.257 -88.0167 170.608 -122.645 188.599 -153.898V-153.898Z" stroke="url(#paint30_linear_13_1523)" stroke-width="0.75" stroke-linecap="round" stroke-linejoin="round"/>
<path d="M181.943 -157.753C254.639 -283.415 420.329 -327.722 546.008 -254.971C671.688 -182.219 715.337 -16.4181 643.226 109.095C625.403 139.957 601.569 166.928 573.134 188.413C544.547 209.989 514.005 220.648 481.164 233.35C449.627 245.552 420.695 284.137 383.346 266.829C365.198 258.433 351.949 239.792 340.064 224.499C324.66 204.68 313.042 194.031 288.165 189.694C275.284 187.453 252.546 186.566 245.054 173.05C238.376 161.016 243.958 146.388 235.955 134.088C211.967 97.224 150.648 89.8547 136.592 45.646C131.196 28.7019 135.748 11.045 139.652 -5.60755C143.75 -23.0757 145.901 -39.7515 148.113 -57.5032C152.581 -92.8439 164.084 -126.931 181.943 -157.753Z" stroke="url(#paint31_linear_13_1523)" stroke-width="0.7" stroke-linecap="round" stroke-linejoin="round"/>
<path d="M175.289 -161.598C250.082 -290.881 420.576 -336.381 549.862 -261.635C679.148 -186.89 724.08 -16.1921 649.89 112.939C631.957 143.997 608.101 171.233 579.677 193.101C549.852 216.005 517.964 227.621 483.355 240.812C451.325 252.997 428.923 290.358 390.542 274.329C368.909 265.288 353.224 244.22 338.094 227.179C321.56 208.557 307.747 200.361 283.151 196.513C268.532 194.218 244.128 194.208 236.771 178.366C230.871 165.637 237.862 151.868 230.19 138.782C207.041 99.1846 139.668 92.251 125.523 47.3432C120.22 30.5111 125.284 13.2151 129.99 -3.06918C134.8 -19.7977 138.148 -36.9124 139.997 -54.2203C144.256 -92.058 156.27 -128.611 175.289 -161.598V-161.598Z" stroke="url(#paint32_linear_13_1523)" stroke-width="0.65" stroke-linecap="round" stroke-linejoin="round"/>
<path d="M168.644 -165.445C245.508 -298.335 420.814 -345.173 553.708 -268.281C686.603 -191.388 733.433 -16.1388 656.54 116.756C637.283 150.066 611.418 179.088 580.536 202.038C550.924 223.989 519.421 235.263 485.428 248.117C453.36 260.24 434.987 299.796 395.502 281.105C371.258 269.621 353.607 246.743 334.788 228.489C317.683 211.899 300.854 207.154 277.594 203.917C262.571 201.832 233.387 202.426 227.291 184.051C222.893 170.794 229.912 157.021 223.836 143.384C214.552 122.572 189.624 109.233 171.508 97.842C152.517 85.8335 121.861 72.5094 114.127 49.0379C108.635 32.3668 114.727 15.2054 120.088 -0.593781C126.984 -20.9351 130.196 -38.2021 132.892 -59.4254C137.612 -96.7974 149.768 -132.846 168.644 -165.445Z" stroke="url(#paint33_linear_13_1523)" stroke-width="0.6" stroke-linecap="round" stroke-linejoin="round"/>
<path d="M161.989 -169.29C240.962 -305.861 421.003 -353.901 557.553 -274.935C694.104 -195.969 742.156 -15.9201 663.189 120.631C643.82 154.151 617.931 183.45 587.049 206.797C555.979 230.212 522.938 241.557 487.324 255.399C452.56 268.928 441.272 309.99 397.535 285.8C374.239 272.914 356.585 252.209 336.717 234.978C316.115 217.109 298.35 215.072 271.705 211.973C256.066 210.158 224.947 211.215 217.943 192.535C212.31 177.538 221.99 160.45 215.501 144.486C207.556 124.928 186.068 112.876 168.941 102.433C148.632 90.0128 111.284 75.7911 102.635 50.7363C96.4658 32.8718 105.06 14.0133 111.715 -2.29426C119.171 -20.5604 122.652 -36.8748 124.745 -56.2251C129.206 -96.0836 141.888 -134.583 161.989 -169.29V-169.29Z" stroke="url(#paint34_linear_13_1523)" stroke-width="0.55" stroke-linecap="round" stroke-linejoin="round"/>
<path d="M155.344 -173.136C236.375 -313.342 421.277 -362.574 561.381 -281.577C701.486 -200.581 750.822 -15.6935 669.848 124.504C649.959 158.91 623.372 188.978 591.659 212.929C559.634 237.074 525.945 248.53 489.272 262.779C456.748 275.408 450.968 315.909 408.287 295.137C381.216 281.945 360.325 258.309 337.298 239.598C314.507 221.065 293.029 222.309 265.151 220.152C249.056 218.919 216.217 219.785 208.123 201.085C201.949 186.817 212.238 167.971 209.384 152.699C204.88 128.611 180.028 114.781 160.707 103.434C140.509 91.5272 100.497 76.6887 91.2629 52.3986C84.0437 33.4219 96.1428 12.6777 103.685 -3.94679C112.431 -23.2398 115.01 -40.4277 117.644 -61.3346C122.656 -100.737 135.472 -138.745 155.344 -173.136V-173.136Z" stroke="url(#paint35_linear_13_1523)" stroke-width="0.5" stroke-linecap="round" stroke-linejoin="round"/>
<path d="M148.698 -176.992C231.854 -320.822 421.47 -371.341 565.256 -288.226C709.042 -205.111 759.608 -15.5025 676.498 128.321C633.941 201.931 569.284 242.393 491.403 270.22C473.686 276.551 471.94 286.998 460.02 299.496C445.499 314.695 425.73 308.652 409.309 299.475C381.504 283.924 359.788 259.827 334.095 241.374C310.65 224.549 285.694 229.587 258.705 228.489C240.563 227.745 205.4 228.216 197.436 206.805C191.35 190.429 204.267 170.849 201.453 153.6C197.415 128.928 172.418 115.704 152.641 104.469C131.682 92.5541 90.0513 78.2407 80.3392 54.1042C72.7346 35.1912 85.8567 14.6111 93.9609 -1.5056C103.829 -21.158 107.194 -36.7832 109.589 -58.2334C114.298 -100.093 127.613 -140.526 148.698 -176.992V-176.992Z" stroke="url(#paint36_linear_13_1523)" stroke-width="0.45" stroke-linecap="round" stroke-linejoin="round"/>
<path d="M142.053 -180.839C227.287 -328.297 421.705 -380.085 569.131 -294.875C716.557 -209.665 768.333 -15.2651 683.134 132.169C639.798 207.08 573.228 250.224 493.314 277.605C475.719 283.641 474.587 292.847 464.615 306.062C450.89 324.333 428.994 314.578 412.371 305.064C382.049 287.674 358.739 260.436 328.912 242.466C305.69 228.465 277.303 237.418 252.451 237.096C233.724 236.838 193.075 236.588 186.605 212.324C182.488 196.681 193.923 177.646 194.011 161.894C194.161 132.393 167.69 118.194 144.763 105.545C122.886 93.528 80.692 80.6109 70.055 55.8446C61.963 36.9519 75.5349 16.9049 84.3173 0.962219C96.4387 -21.1312 99.3473 -38.6441 102.411 -63.2072C107.644 -104.67 121.122 -144.666 142.053 -180.839V-180.839Z" stroke="url(#paint37_linear_13_1523)" stroke-width="0.4" stroke-linecap="round" stroke-linejoin="round"/>
<path d="M135.408 -184.685C222.739 -335.774 421.932 -388.818 572.949 -301.516C723.966 -214.214 777.082 -14.9923 689.78 136.025C645.328 212.92 577.122 256.735 495.212 285.041C477.687 291.095 477.428 298.91 467.702 313.129C455.071 331.592 434.354 322.768 418.139 313.351C385.215 294.134 359.177 261.365 324.781 244.959C300.898 233.579 270.872 245.925 246.621 246.116C227.211 246.271 185.768 244.469 178.033 220.305C172.242 202.195 186.315 181.059 186.507 162.754C186.774 137.92 169.033 125.025 149.357 113.478C132.595 103.656 114.865 95.7013 97.8476 86.3869C85.8703 79.827 66.7321 71.089 60.6123 57.6885C50.7228 36.0576 69.7607 13.2344 79.6882 -4.48418C90.0825 -23.0566 91.9751 -39.2444 94.3201 -60.1588C99.2996 -104.053 113.287 -146.447 135.408 -184.685V-184.685Z" stroke="url(#paint38_linear_13_1523)" stroke-width="0.35" stroke-linecap="round" stroke-linejoin="round"/>
<path d="M128.753 -188.531C218.183 -343.231 422.158 -397.552 576.794 -308.171C731.43 -218.79 785.815 -14.7656 696.453 139.867C651.003 218.489 581.046 263.732 497.194 292.455C475.93 299.745 480.668 306.311 468.868 322.128C453.743 342.412 428.557 325.86 411.987 314.665C381.749 294.312 353.829 259.365 319.075 247.462C295.767 239.501 264.052 255.026 241.178 255.503C220.525 255.91 179.931 251.595 170.649 227.1C163.723 208.842 177.029 187.313 178.678 169.111C184.959 99.83 77.8919 107.877 52.6076 59.5034C41.9782 39.1781 59.0759 17.877 69.0822 0.926181C82.0961 -21.0424 83.9809 -38.3828 86.9254 -63.1119C92.2328 -107.319 106.463 -149.987 128.753 -188.531V-188.531Z" stroke="url(#paint39_linear_13_1523)" stroke-width="0.3" stroke-linecap="round" stroke-linejoin="round"/>
</g>
<defs>
<linearGradient id="paint0_linear_13_1523" x1="418.571" y1="1.38074" x2="411.359" y2="-50.5237" gradientUnits="userSpaceOnUse">
<stop stop-color="#7F64E2"/>
<stop offset="1" stop-color="#41A6EF"/>
</linearGradient>
<linearGradient id="paint1_linear_13_1523" x1="434.817" y1="0.991509" x2="394.872" y2="-53.4049" gradientUnits="userSpaceOnUse">
<stop stop-color="#7F64E2"/>
<stop offset="1" stop-color="#41A6EF"/>
</linearGradient>
<linearGradient id="paint2_linear_13_1523" x1="451.43" y1="-11.7158" x2="376.023" y2="-43.6141" gradientUnits="userSpaceOnUse">
<stop stop-color="#7F64E2"/>
<stop offset="1" stop-color="#41A6EF"/>
</linearGradient>
<linearGradient id="paint3_linear_13_1523" x1="423.39" y1="22.2092" x2="410.283" y2="-72.1095" gradientUnits="userSpaceOnUse">
<stop stop-color="#7F64E2"/>
<stop offset="1" stop-color="#41A6EF"/>
</linearGradient>
<linearGradient id="paint4_linear_13_1523" x1="424.429" y1="28.6583" x2="409.379" y2="-79.6439" gradientUnits="userSpaceOnUse">
<stop stop-color="#7F64E2"/>
<stop offset="1" stop-color="#41A6EF"/>
</linearGradient>
<linearGradient id="paint5_linear_13_1523" x1="425.688" y1="34.9906" x2="408.749" y2="-86.9001" gradientUnits="userSpaceOnUse">
<stop stop-color="#7F64E2"/>
<stop offset="1" stop-color="#41A6EF"/>
</linearGradient>
<linearGradient id="paint6_linear_13_1523" x1="427.211" y1="41.4155" x2="408.355" y2="-94.25" gradientUnits="userSpaceOnUse">
<stop stop-color="#7F64E2"/>
<stop offset="1" stop-color="#41A6EF"/>
</linearGradient>
<linearGradient id="paint7_linear_13_1523" x1="428.729" y1="46.7941" x2="408.134" y2="-101.376" gradientUnits="userSpaceOnUse">
<stop stop-color="#7F64E2"/>
<stop offset="1" stop-color="#41A6EF"/>
</linearGradient>
<linearGradient id="paint8_linear_13_1523" x1="429.907" y1="52.3254" x2="407.528" y2="-108.672" gradientUnits="userSpaceOnUse">
<stop stop-color="#7F64E2"/>
<stop offset="1" stop-color="#41A6EF"/>
</linearGradient>
<linearGradient id="paint9_linear_13_1523" x1="431.56" y1="61.4148" x2="406.996" y2="-115.318" gradientUnits="userSpaceOnUse">
<stop stop-color="#7F64E2"/>
<stop offset="1" stop-color="#41A6EF"/>
</linearGradient>
<linearGradient id="paint10_linear_13_1523" x1="433.012" y1="67.8557" x2="406.536" y2="-122.623" gradientUnits="userSpaceOnUse">
<stop stop-color="#7F64E2"/>
<stop offset="1" stop-color="#41A6EF"/>
</linearGradient>
<linearGradient id="paint11_linear_13_1523" x1="434.432" y1="74.7657" x2="405.942" y2="-130.205" gradientUnits="userSpaceOnUse">
<stop stop-color="#7F64E2"/>
<stop offset="1" stop-color="#41A6EF"/>
</linearGradient>
<linearGradient id="paint12_linear_13_1523" x1="435.599" y1="81.6837" x2="405.153" y2="-137.368" gradientUnits="userSpaceOnUse">
<stop stop-color="#7F64E2"/>
<stop offset="1" stop-color="#41A6EF"/>
</linearGradient>
<linearGradient id="paint13_linear_13_1523" x1="437.111" y1="88.5846" x2="404.701" y2="-144.595" gradientUnits="userSpaceOnUse">
<stop stop-color="#7F64E2"/>
<stop offset="1" stop-color="#41A6EF"/>
</linearGradient>
<linearGradient id="paint14_linear_13_1523" x1="438.811" y1="95.7987" x2="404.381" y2="-151.921" gradientUnits="userSpaceOnUse">
<stop stop-color="#7F64E2"/>
<stop offset="1" stop-color="#41A6EF"/>
</linearGradient>
<linearGradient id="paint15_linear_13_1523" x1="440.369" y1="102.921" x2="403.948" y2="-159.131" gradientUnits="userSpaceOnUse">
<stop stop-color="#7F64E2"/>
<stop offset="1" stop-color="#41A6EF"/>
</linearGradient>
<linearGradient id="paint16_linear_13_1523" x1="442.055" y1="109.961" x2="403.648" y2="-166.369" gradientUnits="userSpaceOnUse">
<stop stop-color="#7F64E2"/>
<stop offset="1" stop-color="#41A6EF"/>
</linearGradient>
<linearGradient id="paint17_linear_13_1523" x1="443.506" y1="117.313" x2="403.079" y2="-173.557" gradientUnits="userSpaceOnUse">
<stop stop-color="#7F64E2"/>
<stop offset="1" stop-color="#41A6EF"/>
</linearGradient>
<linearGradient id="paint18_linear_13_1523" x1="444.967" y1="124.913" x2="402.486" y2="-180.737" gradientUnits="userSpaceOnUse">
<stop stop-color="#7F64E2"/>
<stop offset="1" stop-color="#41A6EF"/>
</linearGradient>
<linearGradient id="paint19_linear_13_1523" x1="446.426" y1="132.809" x2="401.85" y2="-187.927" gradientUnits="userSpaceOnUse">
<stop stop-color="#7F64E2"/>
<stop offset="1" stop-color="#41A6EF"/>
</linearGradient>
<linearGradient id="paint20_linear_13_1523" x1="447.975" y1="141.851" x2="401.156" y2="-195.033" gradientUnits="userSpaceOnUse">
<stop stop-color="#7F64E2"/>
<stop offset="1" stop-color="#41A6EF"/>
</linearGradient>
<linearGradient id="paint21_linear_13_1523" x1="449.548" y1="151.952" x2="400.428" y2="-201.51" gradientUnits="userSpaceOnUse">
<stop stop-color="#7F64E2"/>
<stop offset="1" stop-color="#41A6EF"/>
</linearGradient>
<linearGradient id="paint22_linear_13_1523" x1="451.389" y1="162.942" x2="399.761" y2="-208.597" gradientUnits="userSpaceOnUse">
<stop stop-color="#7F64E2"/>
<stop offset="1" stop-color="#41A6EF"/>
</linearGradient>
<linearGradient id="paint23_linear_13_1523" x1="453.13" y1="174.267" x2="398.953" y2="-215.65" gradientUnits="userSpaceOnUse">
<stop stop-color="#7F64E2"/>
<stop offset="1" stop-color="#41A6EF"/>
</linearGradient>
<linearGradient id="paint24_linear_13_1523" x1="454.977" y1="185.282" x2="398.291" y2="-222.72" gradientUnits="userSpaceOnUse">
<stop stop-color="#7F64E2"/>
<stop offset="1" stop-color="#41A6EF"/>
</linearGradient>
<linearGradient id="paint25_linear_13_1523" x1="456.72" y1="195.911" x2="397.605" y2="-229.598" gradientUnits="userSpaceOnUse">
<stop stop-color="#7F64E2"/>
<stop offset="1" stop-color="#41A6EF"/>
</linearGradient>
<linearGradient id="paint26_linear_13_1523" x1="458.327" y1="205.884" x2="396.767" y2="-237.257" gradientUnits="userSpaceOnUse">
<stop stop-color="#7F64E2"/>
<stop offset="1" stop-color="#41A6EF"/>
</linearGradient>
<linearGradient id="paint27_linear_13_1523" x1="459.974" y1="213.9" x2="396.306" y2="-244.422" gradientUnits="userSpaceOnUse">
<stop stop-color="#7F64E2"/>
<stop offset="1" stop-color="#41A6EF"/>
</linearGradient>
<linearGradient id="paint28_linear_13_1523" x1="461.276" y1="221.12" x2="395.606" y2="-251.596" gradientUnits="userSpaceOnUse">
<stop stop-color="#7F64E2"/>
<stop offset="1" stop-color="#41A6EF"/>
</linearGradient>
<linearGradient id="paint29_linear_13_1523" x1="462.214" y1="228.996" x2="394.463" y2="-258.691" gradientUnits="userSpaceOnUse">
<stop stop-color="#7F64E2"/>
<stop offset="1" stop-color="#41A6EF"/>
</linearGradient>
<linearGradient id="paint30_linear_13_1523" x1="462.587" y1="236.172" x2="392.854" y2="-265.752" gradientUnits="userSpaceOnUse">
<stop stop-color="#7F64E2"/>
<stop offset="1" stop-color="#41A6EF"/>
</linearGradient>
<linearGradient id="paint31_linear_13_1523" x1="463.02" y1="243.876" x2="391.221" y2="-272.888" gradientUnits="userSpaceOnUse">
<stop stop-color="#7F64E2"/>
<stop offset="1" stop-color="#41A6EF"/>
</linearGradient>
<linearGradient id="paint32_linear_13_1523" x1="463.06" y1="251.26" x2="389.265" y2="-279.847" gradientUnits="userSpaceOnUse">
<stop stop-color="#7F64E2"/>
<stop offset="1" stop-color="#41A6EF"/>
</linearGradient>
<linearGradient id="paint33_linear_13_1523" x1="463.147" y1="259.331" x2="387.256" y2="-286.827" gradientUnits="userSpaceOnUse">
<stop stop-color="#7F64E2"/>
<stop offset="1" stop-color="#41A6EF"/>
</linearGradient>
<linearGradient id="paint34_linear_13_1523" x1="462.977" y1="266.948" x2="385.055" y2="-293.792" gradientUnits="userSpaceOnUse">
<stop stop-color="#7F64E2"/>
<stop offset="1" stop-color="#41A6EF"/>
</linearGradient>
<linearGradient id="paint35_linear_13_1523" x1="462.866" y1="275.112" x2="382.847" y2="-300.699" gradientUnits="userSpaceOnUse">
<stop stop-color="#7F64E2"/>
<stop offset="1" stop-color="#41A6EF"/>
</linearGradient>
<linearGradient id="paint36_linear_13_1523" x1="463.074" y1="283.55" x2="380.91" y2="-307.675" gradientUnits="userSpaceOnUse">
<stop stop-color="#7F64E2"/>
<stop offset="1" stop-color="#41A6EF"/>
</linearGradient>
<linearGradient id="paint37_linear_13_1523" x1="463.428" y1="291.327" x2="379.206" y2="-314.691" gradientUnits="userSpaceOnUse">
<stop stop-color="#7F64E2"/>
<stop offset="1" stop-color="#41A6EF"/>
</linearGradient>
<linearGradient id="paint38_linear_13_1523" x1="464.074" y1="298.758" x2="377.834" y2="-321.759" gradientUnits="userSpaceOnUse">
<stop stop-color="#7F64E2"/>
<stop offset="1" stop-color="#41A6EF"/>
</linearGradient>
<linearGradient id="paint39_linear_13_1523" x1="465.274" y1="306.152" x2="377.014" y2="-328.899" gradientUnits="userSpaceOnUse">
<stop stop-color="#7F64E2"/>
<stop offset="1" stop-color="#41A6EF"/>
</linearGradient>
</defs>
</svg>
