<svg width="551" height="538" viewBox="0 0 551 538" fill="none" xmlns="http://www.w3.org/2000/svg">
<g opacity="0.2">
<path d="M114.487 198.105C112.481 199.468 110.115 200.206 107.69 200.225C105.265 200.244 102.888 199.543 100.861 198.212C98.8332 196.881 97.246 194.978 96.2997 192.745C95.3534 190.512 95.0904 188.048 95.544 185.665C95.9976 183.283 97.1474 181.088 98.8481 179.358C100.549 177.629 102.724 176.443 105.099 175.949C107.473 175.456 109.941 175.678 112.19 176.587C114.439 177.495 116.368 179.05 117.733 181.055C118.64 182.388 119.276 183.886 119.604 185.464C119.931 187.042 119.945 188.67 119.644 190.253C119.342 191.836 118.732 193.345 117.847 194.692C116.962 196.04 115.82 197.199 114.487 198.105V198.105Z" stroke="url(#paint0_linear_13_1566)" stroke-width="2.35" stroke-linecap="round" stroke-linejoin="round"/>
<path d="M125.389 196.082C129.878 186.272 125.564 174.68 115.754 170.191C105.944 165.703 94.3521 170.017 89.8634 179.827C85.3747 189.637 89.6887 201.229 99.4989 205.717C109.309 210.206 120.901 205.892 125.389 196.082Z" stroke="url(#paint1_linear_13_1566)" stroke-width="2.3" stroke-linecap="round" stroke-linejoin="round"/>
<path d="M122.666 210.137C110.888 218.125 93.7345 214.168 85.4547 203.007C76.6277 191.092 81.5736 173.26 92.5848 165.796C103.596 158.332 121.992 160.317 129.799 172.918C137.108 184.733 134.455 202.144 122.666 210.137Z" stroke="url(#paint2_linear_13_1566)" stroke-width="2.25" stroke-linecap="round" stroke-linejoin="round"/>
<path d="M102.012 221.535C120.559 224.644 138.115 212.129 141.224 193.582C144.334 175.035 131.819 157.479 113.271 154.37C94.7242 151.26 77.1682 163.775 74.0589 182.322C70.9497 200.87 83.4647 218.426 102.012 221.535Z" stroke="url(#paint3_linear_13_1566)" stroke-width="2.2" stroke-linecap="round" stroke-linejoin="round"/>
<path d="M96.0977 227.625C118.004 234.001 140.93 221.41 147.306 199.504C153.681 177.598 141.091 154.672 119.185 148.296C97.2787 141.921 74.3521 154.511 67.9768 176.417C61.6015 198.323 74.1917 221.25 96.0977 227.625Z" stroke="url(#paint4_linear_13_1566)" stroke-width="2.15" stroke-linecap="round" stroke-linejoin="round"/>
<path d="M134.872 228.154C113.458 242.697 82.236 236.085 67.4059 215.222C52.0647 193.666 59.337 161.969 80.3294 147.753C101.159 133.634 133.523 138.499 147.795 160.685C161.652 182.211 156.338 213.601 134.872 228.154Z" stroke="url(#paint5_linear_13_1566)" stroke-width="2.1" stroke-linecap="round" stroke-linejoin="round"/>
<path d="M138.959 234.218C114.005 251.25 78.2209 243.552 61.4173 219.316C44.6137 195.08 50.8423 158.226 76.2673 141.756C101.415 125.458 136.31 131.886 153.801 156.625C171.143 181.155 163.419 217.525 138.959 234.218Z" stroke="url(#paint6_linear_13_1566)" stroke-width="2.05" stroke-linecap="round" stroke-linejoin="round"/>
<path d="M142.983 240.347C114.929 258.758 74.3055 251.877 55.4175 223.387C36.9628 195.562 44.4371 154.596 72.2081 135.751C100.834 116.326 138.872 126.892 159.495 152.806C181.097 179.953 171.663 221.528 142.983 240.347Z" stroke="url(#paint7_linear_13_1566)" stroke-width="2" stroke-linecap="round" stroke-linejoin="round"/>
<path d="M147.066 246.312C115.142 267.289 71.0149 259.314 49.4093 227.455C27.9122 195.782 36.4789 151.234 68.1404 129.742C101.548 107.046 140.419 121.14 164.845 149.232C190.381 178.577 180.131 224.616 147.066 246.312Z" stroke="url(#paint8_linear_13_1566)" stroke-width="1.95" stroke-linecap="round" stroke-linejoin="round"/>
<path d="M151.19 252.194C116.333 275.275 67.1234 266.494 43.3632 231.519C19.603 196.543 29.0633 147.453 64.0388 123.693C102.138 97.8391 140.757 117.725 169.896 145.756C184.476 159.785 192.361 170.606 188.018 191.735C183.396 214.365 170.553 239.372 151.19 252.194Z" stroke="url(#paint9_linear_13_1566)" stroke-width="1.9" stroke-linecap="round" stroke-linejoin="round"/>
<path d="M155.261 258.194C117.091 283.729 63.3294 273.837 37.3808 235.596C11.4322 197.355 21.7349 143.674 59.979 117.716C104.565 87.4704 139.621 115.573 174.857 142.1C192.747 155.569 202.17 164.222 196.841 188.775C191.297 214.433 177.532 243.308 155.261 258.194Z" stroke="url(#paint10_linear_13_1566)" stroke-width="1.85" stroke-linecap="round" stroke-linejoin="round"/>
<path d="M159.34 264.197C118.346 291.865 59.5538 280.131 31.407 239.676C2.7083 198.533 15.2437 139.553 55.879 111.716C74.6946 98.8412 100.174 91.6061 122.453 99.3556C144.529 107.071 160.198 127.182 179.805 138.234C202.215 150.879 212.379 156.731 205.639 185.61C198.981 214.129 184.105 247.497 159.34 264.197Z" stroke="url(#paint11_linear_13_1566)" stroke-width="1.8" stroke-linecap="round" stroke-linejoin="round"/>
<path d="M163.416 270.208C119.057 300.312 55.7854 287.482 25.4297 243.765C-5.50697 199.251 7.97434 135.502 51.873 105.779C71.8214 92.2589 99.8412 83.5694 123.426 92.7304C146.824 101.814 162.065 124.536 184.876 134.404C193.123 137.968 205.67 139.807 212.253 146.424C221.45 155.62 217.419 171.007 214.684 182.252C206.906 214.048 191.232 251.32 163.416 270.208Z" stroke="url(#paint12_linear_13_1566)" stroke-width="1.75" stroke-linecap="round" stroke-linejoin="round"/>
<path d="M167.488 276.208C119.945 308.462 51.4309 295.726 19.3873 247.821C-12.2969 200.407 -0.45735 131.694 47.7751 99.7203C68.9608 85.6717 99.6163 75.318 124.528 85.644C149.231 95.8744 164.892 121.133 189.931 130.489C198.797 133.799 214.779 134.733 222.048 141.373C231.588 150.107 226.371 168.202 223.741 178.751C214.889 214.214 198.844 254.938 167.488 276.208Z" stroke="url(#paint13_linear_13_1566)" stroke-width="1.7" stroke-linecap="round" stroke-linejoin="round"/>
<path d="M171.728 282.552C120.773 317.108 47.5627 303.471 13.2196 252.132C-20.8354 201.293 -7.13854 128.096 43.6015 93.6277C65.2034 78.9547 100.45 66.7676 125.992 78.3694C152.226 90.2957 166.734 117.307 195.102 126.977C205.82 130.63 223.147 129 232.232 135.763C243.388 144.076 236.011 163.903 233.279 174.569C223.207 213.801 206.527 258.925 171.728 282.552Z" stroke="url(#paint14_linear_13_1566)" stroke-width="1.65" stroke-linecap="round" stroke-linejoin="round"/>
<path d="M175.652 288.226C121.56 324.908 43.8451 310.432 7.38844 255.934C-28.7622 201.966 -14.2225 124.264 39.6401 87.6748C62.5714 72.0989 99.9875 59.1618 127.101 71.4775C154.949 84.1378 170.35 112.811 200.464 123.077C211.841 126.955 230.235 125.224 239.879 132.403C251.722 141.228 243.891 162.275 240.991 173.597C230.299 215.244 212.592 263.145 175.652 288.226Z" stroke="url(#paint15_linear_13_1566)" stroke-width="1.6" stroke-linecap="round" stroke-linejoin="round"/>
<path d="M179.705 294.219C121.859 333.47 40.6147 317.891 1.36425 260.044C-37.8862 202.198 -21.6996 121.056 35.5478 81.7061C59.8304 65.017 99.9122 51.2769 128.606 64.273C158.08 77.6002 173.854 108.373 205.957 119.594C217.885 123.759 234.669 122.452 245.664 128.117C261.54 136.273 252.724 158.664 249.228 172.222C237.598 216.676 219.371 267.36 179.705 294.219Z" stroke="url(#paint16_linear_13_1566)" stroke-width="1.55" stroke-linecap="round" stroke-linejoin="round"/>
<path d="M183.782 300.231C122.667 341.678 36.8296 325.237 -4.6352 264.115C-46.1 202.994 -29.0482 117.28 31.4803 75.6981C56.8634 58.2644 100.12 43.2606 130.168 57.0794C143.743 63.3075 153.057 74.8228 163.697 84.8639C177.704 98.0992 193.657 109.147 211.677 116.135C224.065 120.946 242.925 119.736 254.184 126.288C269.211 135.036 260.569 158.643 257.043 171.937C244.519 219.018 225.768 271.74 183.782 300.231Z" stroke="url(#paint17_linear_13_1566)" stroke-width="1.5" stroke-linecap="round" stroke-linejoin="round"/>
<path d="M187.853 306.23C123.451 349.927 33.0442 332.582 -10.6381 268.194C-54.3204 203.807 -36.9867 113.377 27.4039 69.6861C55.3286 50.7399 98.887 36.1974 131.8 49.6862C147.357 56.0557 157.877 68.4771 169.664 79.7744C183.663 93.3913 199.9 104.498 217.665 112.607C230.395 118.363 251.209 117.666 262.445 125.47C277.094 135.664 267.717 160.197 264.113 174.029C251.383 222.756 231.144 276.863 187.853 306.23Z" stroke="url(#paint18_linear_13_1566)" stroke-width="1.45" stroke-linecap="round" stroke-linejoin="round"/>
<path d="M191.929 312.242C124.229 358.164 29.273 339.943 -16.6464 272.262C-62.5659 204.582 -44.3504 109.615 23.3298 63.6951C53.1488 43.4319 98.1904 29.1922 133.584 42.2017C168.692 55.1079 190.966 91.0303 223.951 108.933C236.869 115.949 256.563 116.645 268.015 125.065C283.778 136.639 275.277 161.665 271.153 177.283C257.963 227.495 236.419 282.048 191.929 312.242Z" stroke="url(#paint19_linear_13_1566)" stroke-width="1.4" stroke-linecap="round" stroke-linejoin="round"/>
<path d="M196.044 318.257C125.056 366.428 25.5379 347.366 -22.603 276.349C-70.7439 205.333 -51.7142 105.852 19.2966 57.6996C51.6915 35.7212 97.0536 23.0245 135.514 34.663C174.168 46.3616 197.821 83.087 230.618 104.909C243.75 113.654 260.603 116.906 273.127 125.793C290.596 138.211 282.159 164.922 277.759 181.895C264.504 232.963 241.069 287.662 196.044 318.257Z" stroke="url(#paint20_linear_13_1566)" stroke-width="1.35" stroke-linecap="round" stroke-linejoin="round"/>
<path d="M200.071 324.241C125.789 374.6 21.7069 354.675 -28.6491 280.413C-79.0052 206.151 -59.0827 102.049 15.1392 51.6683C50.1289 27.9231 95.8728 16.8697 137.464 26.9353C181.31 37.5447 204.584 73.7806 237.578 100.345C250.528 110.754 270.233 118.109 281.4 130.442C295.21 145.707 289.076 169.675 284.44 187.326C270.891 238.854 245.35 293.542 200.071 324.241Z" stroke="url(#paint21_linear_13_1566)" stroke-width="1.3" stroke-linecap="round" stroke-linejoin="round"/>
<path d="M204.148 330.253C126.552 382.851 17.9625 362.123 -34.6606 284.489C-87.2837 206.855 -66.5313 98.3043 11.1028 45.6812C48.7274 20.2827 94.8589 10.7678 139.463 19.2063C159.147 22.869 177.694 28.4555 193.091 41.686C211.957 57.8837 225.314 79.3858 244.522 95.5023C257.415 106.311 273.317 118.523 284.382 131.141C299.911 148.779 296.316 172.484 290.795 193.469C277.165 245.408 249.588 299.456 204.148 330.253Z" stroke="url(#paint22_linear_13_1566)" stroke-width="1.25" stroke-linecap="round" stroke-linejoin="round"/>
<path d="M208.227 336.256C127.897 390.736 14.156 368.367 -40.6637 288.569C-95.9733 208.046 -72.9991 94.1726 7.02625 39.6697C47.2272 12.3302 93.8352 5.06892 141.378 11.5739C163.966 14.6665 186.843 18.4699 204.193 34.5092C222.201 51.1586 232.637 74.2795 251.139 90.805C284.097 120.22 309.215 154.388 297.078 200.104C283.35 251.695 252.931 305.955 208.227 336.256Z" stroke="url(#paint23_linear_13_1566)" stroke-width="1.2" stroke-linecap="round" stroke-linejoin="round"/>
<path d="M212.303 342.267C128.631 398.986 10.3904 375.739 -46.6751 292.645C-104.253 208.808 -80.3232 90.1114 2.94671 33.6666C45.7143 4.63791 92.7295 -0.726442 143.214 4.0497C166.12 6.21167 192.38 7.1263 210.639 22.9479C230.426 40.085 237.719 68.1269 257.279 86.4033C288.584 115.659 314.859 163.762 303.443 206.867C289.873 258.211 256.413 312.366 212.303 342.267Z" stroke="url(#paint24_linear_13_1566)" stroke-width="1.15" stroke-linecap="round" stroke-linejoin="round"/>
<path d="M216.383 348.27C129.438 407.224 6.60827 383.077 -52.6747 296.716C-112.484 209.569 -87.6656 86.3176 -1.12955 27.6553C44.1277 -3.01223 91.8873 -6.81689 144.883 -3.35933C168.093 -1.84927 197.592 -3.91434 217.061 11.3485C238.828 28.4119 242.51 62.4844 262.94 82.3761C279.882 98.8932 285.279 116.446 295.717 136.782C308.722 162.115 317.183 185.019 309.78 213.57C296.567 264.497 259.798 318.831 216.383 348.27Z" stroke="url(#paint25_linear_13_1566)" stroke-width="1.1" stroke-linecap="round" stroke-linejoin="round"/>
<path d="M220.463 354.273C130.128 415.517 2.94613 390.487 -58.6777 300.796C-120.873 210.283 -94.925 82.5637 -5.20056 21.6558C42.2505 -10.5623 91.0275 -13.0211 146.469 -10.6513C170.881 -9.62459 206.602 -14.7811 226.49 2.80327C235.913 11.1039 238.997 24.9257 243.25 36.1125C249.279 51.8416 255.967 66.6663 268.042 78.7327C277.376 88.0366 285.767 96.4617 290.033 109.178C293.048 118.147 294.19 127.131 297.927 135.942C309.911 164.012 324.306 188.343 316.021 219.839C302.723 270.568 263.549 325.067 220.463 354.273Z" stroke="url(#paint26_linear_13_1566)" stroke-width="1.05" stroke-linecap="round" stroke-linejoin="round"/>
<path d="M224.539 360.284C130.936 423.725 -0.845542 397.849 -64.6892 304.872C-129.099 211.084 -102.247 78.6593 -9.28017 15.6524C40.1931 -17.8853 90.1671 -19.7638 147.86 -17.7804C173.62 -16.8903 212.3 -25.089 233.26 -6.01201C243.881 3.65076 245.624 19.3911 249.71 32.4715C254.646 48.2741 260.7 63.6899 272.641 75.4534C282.343 85.0081 291.69 94.7862 295.222 108.37C297.807 118.307 297.685 127.654 301.488 137.495C312.738 166.648 330.891 192.741 322.669 225.306C309.885 275.83 266.942 331.534 224.539 360.284Z" stroke="url(#paint27_linear_13_1566)" stroke-linecap="round" stroke-linejoin="round"/>
<path d="M228.618 366.287C132.584 431.368 -5.56839 405.031 -70.6921 308.952C-135.816 212.872 -110.405 74.5799 -13.3566 9.64117C10.5244 -6.46106 37.349 -17.691 65.579 -23.4048C94.0239 -29.0867 120.466 -25.7898 149.027 -24.6965C174.562 -23.7222 216.384 -34.0951 238.187 -16.1298C250.398 -6.0568 251.607 14.0731 254.923 28.2526C258.729 44.4765 264.727 60.8296 276.851 72.4641C286.032 81.2729 296.294 90.9816 299.394 103.92C302.206 115.689 300.588 126.762 304.749 138.501C315.436 168.642 337.808 196.147 329.246 229.731C322.404 256.57 304.929 280.661 289.683 303.4C273.241 328.011 253.061 349.695 228.618 366.287Z" stroke="url(#paint28_linear_13_1566)" stroke-width="0.95" stroke-linecap="round" stroke-linejoin="round"/>
<path d="M232.698 372.29C132.772 440.047 -9.13559 413.394 -76.6773 313.038C-143.887 213.222 -117.223 71.3084 -17.4233 3.60406C34.8047 -31.8185 89.338 -35.0061 150.236 -31.6465C177.063 -30.1649 222.999 -42.9369 244.914 -22.0186C256.557 -10.8616 256.568 10.0367 259.391 24.7411C262.589 41.2428 268.247 57.9127 280.799 69.6339C290.016 78.2605 301.247 86.0236 304.112 99.1015C306.736 111.037 303.31 122.891 306.785 135.095C316.029 167.87 344.871 196.615 336.25 232.68C329.908 259.221 311.443 282.914 296.893 305.485C279.911 331.855 258.738 354.635 232.698 372.29Z" stroke="url(#paint29_linear_13_1566)" stroke-width="0.9" stroke-linecap="round" stroke-linejoin="round"/>
<path d="M236.766 378.299C133.564 448.298 -12.9123 420.743 -82.7061 317.108C-152.156 214.008 -124.546 67.541 -21.5122 -2.37297C32.1864 -38.8067 88.9058 -42.7952 151.587 -38.5058C179.841 -36.566 225.391 -50.5628 248.621 -28.3665C274.078 -4.03444 254.906 43.2966 284.955 66.7127C294.175 73.9036 306.744 80.5881 309.607 93.0789C312.667 106.345 306.309 119.335 309.975 133.114C319.021 167.136 351.389 197.207 343.82 234.416C338.286 261.611 317.606 286.564 302.931 309.509C285.629 336.682 263.519 360.159 236.766 378.299Z" stroke="url(#paint30_linear_13_1566)" stroke-width="0.85" stroke-linecap="round" stroke-linejoin="round"/>
<path d="M240.842 384.31C134.326 456.579 -16.6635 428.102 -88.7179 321.184C-160.428 214.773 -131.895 63.7644 -25.5921 -8.37568C0.681075 -26.1637 30.2296 -38.5488 61.334 -44.8104C92.6419 -51.0577 121.497 -47.649 152.802 -45.3657C182.492 -43.2085 223.347 -58.0853 248.554 -36.3553C277.503 -11.4126 253.948 41.8942 289.85 63.1016C301.307 69.8621 314.421 75.3662 316.485 89.7371C318.491 103.676 310.265 116.156 313.393 130.639C321.371 167.177 359.366 196.902 352.287 236.536C347.125 265.43 322.425 292.952 306.77 317.038C289.49 343.626 267.076 366.497 240.842 384.31V384.31Z" stroke="url(#paint31_linear_13_1566)" stroke-width="0.8" stroke-linecap="round" stroke-linejoin="round"/>
<path d="M244.922 390.313C135.131 464.795 -20.4542 435.435 -94.7293 325.26C-168.654 215.603 -139.235 59.9903 -29.6685 -14.3877C27.2022 -52.9948 87.6132 -57.8936 154.066 -52.5504C184.176 -50.1236 226.66 -67.7138 250.825 -42.0025C278.21 -12.8771 259.059 39.6019 295.616 58.7597C307.421 64.9914 324.033 69.5541 324.672 85.7251C325.262 100.686 315.079 112.662 317.909 128.18C324.967 166.799 368.109 197.587 361.482 239.075C356.915 267.647 330.172 293.716 315.111 317.509C296.972 346.347 273.078 371.132 244.922 390.313V390.313Z" stroke="url(#paint32_linear_13_1566)" stroke-width="0.75" stroke-linecap="round" stroke-linejoin="round"/>
<path d="M248.998 396.324C135.956 473.01 -24.257 442.774 -100.732 329.34C-176.869 216.4 -146.578 56.1963 -33.745 -20.3992C-5.86141 -39.266 25.4985 -52.3941 58.5071 -59.0184C91.8038 -65.6299 121.952 -62.0948 155.233 -59.4668C185.362 -57.0919 223.163 -76.2419 248.685 -51.7686C279.885 -21.8964 260.705 36.8658 302.345 53.6729C314.072 58.4203 333.355 61.9767 334.033 78.1225C334.721 94.6727 320.932 108.616 323.078 125.782C328.231 167.043 377.469 198.457 371.226 241.931C368.846 258.562 357.711 271.708 347.547 284.277C336.905 297.465 328.182 310.752 319.002 324.948C300.672 353.18 276.869 377.45 248.998 396.324V396.324Z" stroke="url(#paint33_linear_13_1566)" stroke-width="0.7" stroke-linecap="round" stroke-linejoin="round"/>
<path d="M253.075 402.335C136.276 481.569 -27.495 450.201 -106.741 333.408C-185.986 216.614 -154.013 52.955 -37.8212 -26.4108C-8.502 -46.3083 24.5797 -59.9941 59.3871 -66.6254C92.6213 -72.9566 123.269 -69.5044 156.459 -66.7335C187.762 -64.1189 224.149 -86.7323 249.272 -57.459C277.371 -24.7227 265.401 34.316 309.896 47.9649C323.757 52.2153 344.467 54.2071 344.221 72.7153C343.97 91.6419 327.575 106.224 329.98 126.045C335.103 168.252 387.265 201.576 381.195 244.976C378.709 262.79 366.13 275.579 354.652 288.376C343.509 300.816 335.096 313.247 326.149 327.234C307.128 356.958 282.267 382.508 253.075 402.335V402.335Z" stroke="url(#paint34_linear_13_1566)" stroke-width="0.65" stroke-linecap="round" stroke-linejoin="round"/>
<path d="M257.151 408.347C137.104 489.776 -31.3126 457.555 -112.755 337.493C-194.198 217.431 -161.371 49.1755 -41.8922 -32.4101C-13.0783 -51.9993 19.3028 -65.7378 53.4123 -72.8455C89.1713 -80.2652 121.885 -76.905 157.706 -73.816C190.874 -70.9556 220.714 -96.5082 247.579 -64.7077C263.237 -46.1835 268.884 -20.3408 276.821 2.04128C284.94 24.9483 294.77 36.2793 318.259 41.6042C333.612 45.0851 358.026 46.3472 355.706 67.7199C353.705 86.1886 338.552 101.172 337.454 120.251C334.696 168.457 397.293 201.33 391.563 248.215C389.4 265.892 375.846 278.377 363.971 290.277C351.259 303.028 341.882 315.99 332.202 331.187C312.69 361.741 287.152 387.996 257.151 408.347V408.347Z" stroke="url(#paint35_linear_13_1566)" stroke-width="0.6" stroke-linecap="round" stroke-linejoin="round"/>
<path d="M261.228 414.359C137.869 498.076 -35.0601 464.905 -118.758 341.573C-202.456 218.241 -168.723 45.4074 -45.9685 -38.4217C-15.7114 -58.9852 18.3723 -73.2534 54.2554 -80.3778C90.4763 -87.5618 122.919 -83.5081 159.074 -80.7476C190.919 -78.308 217.222 -106.588 243.974 -75.0145C262.238 -53.435 268.825 -24.115 279.852 1.28255C290.019 24.6582 303.402 30.6895 327.165 34.7455C342.754 37.4128 368.633 37.3003 368.43 58.4139C368.227 79.5274 348.228 98.9315 345.411 120.437C342.372 143.66 356.662 164.474 368.747 183.042C380.619 201.28 404.586 227.808 402.134 251.596C400.239 270.044 383.615 282.911 371.001 294.368C356.824 307.252 347.579 320.79 337.163 336.835C317.255 367.466 291.44 393.821 261.228 414.359V414.359Z" stroke="url(#paint36_linear_13_1566)" stroke-width="0.55" stroke-linecap="round" stroke-linejoin="round"/>
<path d="M265.298 420.359C138.702 506.323 -38.8378 472.175 -124.766 345.64C-210.695 219.106 -176.583 41.5041 -50.0451 -44.4331C-18.3286 -65.9692 17.4582 -80.7894 55.1146 -87.9822C91.1899 -94.8183 124.287 -91.358 160.325 -87.9757C175.771 -86.5328 184.106 -92.5721 198.128 -97.4499C217.386 -104.154 232.801 -95.4515 244.51 -79.5697C262.318 -55.4093 269.508 -25.4605 283.306 0.784809C295.268 23.55 312.471 25.268 336.832 27.674C356.23 29.5912 385.603 29.7085 380.438 56.4516C376.055 79.1777 358.035 97.7843 353.353 120.607C348.627 143.63 361.403 163.123 373.607 181.578C386.811 201.481 414.267 228.951 412.241 254.691C410.684 274.444 391.868 286.781 378.04 298.297C363.478 310.436 354.496 323.277 344.345 339.183C323.775 371.323 296.88 398.942 265.298 420.359Z" stroke="url(#paint37_linear_13_1566)" stroke-width="0.5" stroke-linecap="round" stroke-linejoin="round"/>
<path d="M269.375 426.37C139.486 514.543 -42.6295 479.538 -130.775 349.708C-218.92 219.878 -183.943 37.7036 -54.116 -50.433C12.5265 -95.673 83.8476 -103.118 161.705 -95.0496C178.936 -93.2727 184.328 -100.847 199.174 -106.326C218.985 -113.641 231.832 -102.057 243.45 -86.0033C261.691 -60.826 269.289 -30.143 285.011 -3.67929C299.847 21.2413 319.324 19.8646 346.336 20.8364C366.227 21.5543 397.22 20.9492 393.794 48.4493C390.877 71.9022 371.295 92.5029 363.388 114.461C353.613 141.576 365.35 161.318 380.782 183.865C394.396 203.74 423.516 231.774 422.235 257.696C421.207 277.524 401.362 289.41 387.276 300.236C370.732 312.966 361.533 325.758 350.458 343.108C329.355 376.073 301.769 404.401 269.375 426.37V426.37Z" stroke="url(#paint38_linear_13_1566)" stroke-width="0.45" stroke-linecap="round" stroke-linejoin="round"/>
<path d="M273.446 432.37C140.285 522.777 -46.418 486.892 -136.783 353.776C-227.148 220.659 -191.3 33.9239 -58.1925 -56.4444C-25.5233 -78.6282 11.2652 -94.0309 49.9945 -101.741C88.8971 -109.448 124.357 -105.845 163.192 -102.094C179.556 -100.514 185.134 -107.035 198.577 -114.145C216.223 -123.466 230.693 -110.268 240.978 -95.8504C260.086 -69.1277 269.348 -36.9425 285.956 -8.84868C302.422 19.0177 326.8 14.4717 355.618 14.2608C374.97 14.119 407.975 12.7085 406.738 39.9949C405.543 66.1925 380.8 91.4613 371.217 115.079C360.538 141.397 369.692 159.745 385.089 182.201C399.167 202.684 433.169 233.64 432.029 260.629C431.148 281.429 408.448 293.346 393.749 303.949C375.91 316.826 367.258 330.51 355.526 348.648C334.023 381.75 306.115 410.215 273.446 432.37Z" stroke="url(#paint39_linear_13_1566)" stroke-width="0.4" stroke-linecap="round" stroke-linejoin="round"/>
<path d="M277.522 438.381C141.177 530.538 -50.2086 494.226 -142.769 357.891C-235.33 221.555 -198.634 30.1331 -62.2505 -62.4786C7.3891 -109.76 83.0897 -118.53 164.564 -109.249C180.885 -107.391 185.475 -112.345 198.423 -121.081C219.322 -135.175 235.754 -111.64 245.901 -95.0052C262.96 -67.0508 272.41 -34.2794 291.325 -7.50939C308.603 16.928 338.831 8.72569 364.6 7.8401C383.404 7.18711 418.865 6.11911 418.187 33.3444C417.483 61.1562 391.586 89.4471 379.992 113.733C367.882 139.065 373.242 156.369 388.518 179.211C403.527 201.683 440.948 233.966 440.852 262.956C440.786 283.69 417.249 295.733 402.549 305.691C384.09 318.148 375.153 331.162 363.539 349.568C341.277 384.77 311.995 415.004 277.522 438.381Z" stroke="url(#paint40_linear_13_1566)" stroke-width="0.35" stroke-linecap="round" stroke-linejoin="round"/>
<path d="M281.59 444.39C141.975 538.772 -53.9942 501.572 -148.82 361.914C-243.646 222.256 -206.006 26.3383 -66.3445 -68.4965C3.47477 -115.869 83.7185 -128.358 165.912 -116.315C185.673 -113.377 187.365 -120.475 201.725 -129.55C221.301 -141.905 236.113 -118.458 245.398 -103.572C263.876 -73.9505 273.081 -34.4859 296.285 -7.93048C315.062 13.5315 348.821 2.86576 373.187 1.72589C395.055 0.707456 429.877 2.10513 426.784 32.4623C423.804 61.7266 401.446 87.7227 388.434 112.981C374.868 139.338 378.24 156.411 394.953 181.084C410.357 203.816 448.061 235.586 448.748 264.898C449.244 285.835 425.823 297.638 410.888 307.354C390.728 320.514 382.037 333.793 369.56 353.557C346.793 389.561 316.846 420.482 281.59 444.39Z" stroke="url(#paint41_linear_13_1566)" stroke-width="0.3" stroke-linecap="round" stroke-linejoin="round"/>
</g>
<defs>
<linearGradient id="paint0_linear_13_1566" x1="96.5184" y1="184.99" x2="118.104" y2="192.842" gradientUnits="userSpaceOnUse">
<stop stop-color="#7F64E2"/>
<stop offset="1" stop-color="#41A6EF"/>
</linearGradient>
<linearGradient id="paint1_linear_13_1566" x1="101.478" y1="205.148" x2="116.74" y2="171.905" gradientUnits="userSpaceOnUse">
<stop stop-color="#7F64E2"/>
<stop offset="1" stop-color="#41A6EF"/>
</linearGradient>
<linearGradient id="paint2_linear_13_1566" x1="83.7497" y1="181.321" x2="130.277" y2="198.247" gradientUnits="userSpaceOnUse">
<stop stop-color="#7F64E2"/>
<stop offset="1" stop-color="#41A6EF"/>
</linearGradient>
<linearGradient id="paint3_linear_13_1566" x1="75.9133" y1="185.395" x2="138.787" y2="196.018" gradientUnits="userSpaceOnUse">
<stop stop-color="#7F64E2"/>
<stop offset="1" stop-color="#41A6EF"/>
</linearGradient>
<linearGradient id="paint4_linear_13_1566" x1="69.7754" y1="180.383" x2="144.023" y2="202.094" gradientUnits="userSpaceOnUse">
<stop stop-color="#7F64E2"/>
<stop offset="1" stop-color="#41A6EF"/>
</linearGradient>
<linearGradient id="paint5_linear_13_1566" x1="64.1318" y1="176.051" x2="148.775" y2="206.842" gradientUnits="userSpaceOnUse">
<stop stop-color="#7F64E2"/>
<stop offset="1" stop-color="#41A6EF"/>
</linearGradient>
<linearGradient id="paint6_linear_13_1566" x1="57.3397" y1="174.5" x2="155.079" y2="210.056" gradientUnits="userSpaceOnUse">
<stop stop-color="#7F64E2"/>
<stop offset="1" stop-color="#41A6EF"/>
</linearGradient>
<linearGradient id="paint7_linear_13_1566" x1="51.13" y1="173.457" x2="161.839" y2="213.732" gradientUnits="userSpaceOnUse">
<stop stop-color="#7F64E2"/>
<stop offset="1" stop-color="#41A6EF"/>
</linearGradient>
<linearGradient id="paint8_linear_13_1566" x1="44.0825" y1="171.889" x2="168.409" y2="217.12" gradientUnits="userSpaceOnUse">
<stop stop-color="#7F64E2"/>
<stop offset="1" stop-color="#41A6EF"/>
</linearGradient>
<linearGradient id="paint9_linear_13_1566" x1="37.2383" y1="170.781" x2="173.983" y2="220.531" gradientUnits="userSpaceOnUse">
<stop stop-color="#7F64E2"/>
<stop offset="1" stop-color="#41A6EF"/>
</linearGradient>
<linearGradient id="paint10_linear_13_1566" x1="30.4726" y1="169.787" x2="180.077" y2="224.217" gradientUnits="userSpaceOnUse">
<stop stop-color="#7F64E2"/>
<stop offset="1" stop-color="#41A6EF"/>
</linearGradient>
<linearGradient id="paint11_linear_13_1566" x1="24.5279" y1="166.984" x2="186.656" y2="225.968" gradientUnits="userSpaceOnUse">
<stop stop-color="#7F64E2"/>
<stop offset="1" stop-color="#41A6EF"/>
</linearGradient>
<linearGradient id="paint12_linear_13_1566" x1="17.8965" y1="165.559" x2="192.937" y2="229.242" gradientUnits="userSpaceOnUse">
<stop stop-color="#7F64E2"/>
<stop offset="1" stop-color="#41A6EF"/>
</linearGradient>
<linearGradient id="paint13_linear_13_1566" x1="11.2364" y1="164.079" x2="199.328" y2="232.509" gradientUnits="userSpaceOnUse">
<stop stop-color="#7F64E2"/>
<stop offset="1" stop-color="#41A6EF"/>
</linearGradient>
<linearGradient id="paint14_linear_13_1566" x1="4.86374" y1="162.496" x2="205.959" y2="235.656" gradientUnits="userSpaceOnUse">
<stop stop-color="#7F64E2"/>
<stop offset="1" stop-color="#41A6EF"/>
</linearGradient>
<linearGradient id="paint15_linear_13_1566" x1="-1.4816" y1="160.781" x2="211.99" y2="238.444" gradientUnits="userSpaceOnUse">
<stop stop-color="#7F64E2"/>
<stop offset="1" stop-color="#41A6EF"/>
</linearGradient>
<linearGradient id="paint16_linear_13_1566" x1="-8.25554" y1="158.977" x2="218.292" y2="241.397" gradientUnits="userSpaceOnUse">
<stop stop-color="#7F64E2"/>
<stop offset="1" stop-color="#41A6EF"/>
</linearGradient>
<linearGradient id="paint17_linear_13_1566" x1="-14.7639" y1="157.187" x2="224.554" y2="244.252" gradientUnits="userSpaceOnUse">
<stop stop-color="#7F64E2"/>
<stop offset="1" stop-color="#41A6EF"/>
</linearGradient>
<linearGradient id="paint18_linear_13_1566" x1="-21.5" y1="155.294" x2="230.915" y2="247.124" gradientUnits="userSpaceOnUse">
<stop stop-color="#7F64E2"/>
<stop offset="1" stop-color="#41A6EF"/>
</linearGradient>
<linearGradient id="paint19_linear_13_1566" x1="-27.9734" y1="153.393" x2="237.479" y2="249.966" gradientUnits="userSpaceOnUse">
<stop stop-color="#7F64E2"/>
<stop offset="1" stop-color="#41A6EF"/>
</linearGradient>
<linearGradient id="paint20_linear_13_1566" x1="-34.3799" y1="151.392" x2="244.155" y2="252.723" gradientUnits="userSpaceOnUse">
<stop stop-color="#7F64E2"/>
<stop offset="1" stop-color="#41A6EF"/>
</linearGradient>
<linearGradient id="paint21_linear_13_1566" x1="-40.7386" y1="149.112" x2="251.084" y2="255.277" gradientUnits="userSpaceOnUse">
<stop stop-color="#7F64E2"/>
<stop offset="1" stop-color="#41A6EF"/>
</linearGradient>
<linearGradient id="paint22_linear_13_1566" x1="-46.8911" y1="146.246" x2="258.283" y2="257.265" gradientUnits="userSpaceOnUse">
<stop stop-color="#7F64E2"/>
<stop offset="1" stop-color="#41A6EF"/>
</linearGradient>
<linearGradient id="paint23_linear_13_1566" x1="-52.5683" y1="142.834" x2="265.719" y2="258.62" gradientUnits="userSpaceOnUse">
<stop stop-color="#7F64E2"/>
<stop offset="1" stop-color="#41A6EF"/>
</linearGradient>
<linearGradient id="paint24_linear_13_1566" x1="-58.46" y1="139.27" x2="273.41" y2="259.993" gradientUnits="userSpaceOnUse">
<stop stop-color="#7F64E2"/>
<stop offset="1" stop-color="#41A6EF"/>
</linearGradient>
<linearGradient id="paint25_linear_13_1566" x1="-64.2467" y1="135.549" x2="281.185" y2="261.201" gradientUnits="userSpaceOnUse">
<stop stop-color="#7F64E2"/>
<stop offset="1" stop-color="#41A6EF"/>
</linearGradient>
<linearGradient id="paint26_linear_13_1566" x1="-70.0741" y1="131.896" x2="288.666" y2="262.384" gradientUnits="userSpaceOnUse">
<stop stop-color="#7F64E2"/>
<stop offset="1" stop-color="#41A6EF"/>
</linearGradient>
<linearGradient id="paint27_linear_13_1566" x1="-76.0424" y1="128.661" x2="296.228" y2="264.068" gradientUnits="userSpaceOnUse">
<stop stop-color="#7F64E2"/>
<stop offset="1" stop-color="#41A6EF"/>
</linearGradient>
<linearGradient id="paint28_linear_13_1566" x1="-81.9395" y1="125.528" x2="303.138" y2="265.591" gradientUnits="userSpaceOnUse">
<stop stop-color="#7F64E2"/>
<stop offset="1" stop-color="#41A6EF"/>
</linearGradient>
<linearGradient id="paint29_linear_13_1566" x1="-88.0624" y1="123.522" x2="309.871" y2="268.258" gradientUnits="userSpaceOnUse">
<stop stop-color="#7F64E2"/>
<stop offset="1" stop-color="#41A6EF"/>
</linearGradient>
<linearGradient id="paint30_linear_13_1566" x1="-94.5331" y1="121.676" x2="316.789" y2="271.284" gradientUnits="userSpaceOnUse">
<stop stop-color="#7F64E2"/>
<stop offset="1" stop-color="#41A6EF"/>
</linearGradient>
<linearGradient id="paint31_linear_13_1566" x1="-101.055" y1="120.022" x2="324.442" y2="274.789" gradientUnits="userSpaceOnUse">
<stop stop-color="#7F64E2"/>
<stop offset="1" stop-color="#41A6EF"/>
</linearGradient>
<linearGradient id="paint32_linear_13_1566" x1="-107.433" y1="118.1" x2="332.819" y2="278.237" gradientUnits="userSpaceOnUse">
<stop stop-color="#7F64E2"/>
<stop offset="1" stop-color="#41A6EF"/>
</linearGradient>
<linearGradient id="paint33_linear_13_1566" x1="-113.796" y1="116.18" x2="341.656" y2="281.848" gradientUnits="userSpaceOnUse">
<stop stop-color="#7F64E2"/>
<stop offset="1" stop-color="#41A6EF"/>
</linearGradient>
<linearGradient id="paint34_linear_13_1566" x1="-120.42" y1="114.301" x2="350.765" y2="285.696" gradientUnits="userSpaceOnUse">
<stop stop-color="#7F64E2"/>
<stop offset="1" stop-color="#41A6EF"/>
</linearGradient>
<linearGradient id="paint35_linear_13_1566" x1="-126.85" y1="112.65" x2="360.263" y2="289.844" gradientUnits="userSpaceOnUse">
<stop stop-color="#7F64E2"/>
<stop offset="1" stop-color="#41A6EF"/>
</linearGradient>
<linearGradient id="paint36_linear_13_1566" x1="-133.115" y1="110.534" x2="370.133" y2="293.601" gradientUnits="userSpaceOnUse">
<stop stop-color="#7F64E2"/>
<stop offset="1" stop-color="#41A6EF"/>
</linearGradient>
<linearGradient id="paint37_linear_13_1566" x1="-139.667" y1="108.556" x2="379.565" y2="297.442" gradientUnits="userSpaceOnUse">
<stop stop-color="#7F64E2"/>
<stop offset="1" stop-color="#41A6EF"/>
</linearGradient>
<linearGradient id="paint38_linear_13_1566" x1="-145.995" y1="106.557" x2="388.892" y2="301.142" gradientUnits="userSpaceOnUse">
<stop stop-color="#7F64E2"/>
<stop offset="1" stop-color="#41A6EF"/>
</linearGradient>
<linearGradient id="paint39_linear_13_1566" x1="-152.35" y1="104.605" x2="397.9" y2="304.781" gradientUnits="userSpaceOnUse">
<stop stop-color="#7F64E2"/>
<stop offset="1" stop-color="#41A6EF"/>
</linearGradient>
<linearGradient id="paint40_linear_13_1566" x1="-158.679" y1="102.593" x2="406.118" y2="308.063" gradientUnits="userSpaceOnUse">
<stop stop-color="#7F64E2"/>
<stop offset="1" stop-color="#41A6EF"/>
</linearGradient>
<linearGradient id="paint41_linear_13_1566" x1="-165.171" y1="100.694" x2="413.367" y2="311.164" gradientUnits="userSpaceOnUse">
<stop stop-color="#7F64E2"/>
<stop offset="1" stop-color="#41A6EF"/>
</linearGradient>
</defs>
</svg>
