<svg width="14" height="14" viewBox="0 0 14 14" fill="none" xmlns="http://www.w3.org/2000/svg">
<path d="M3.2875 4.25417C4.4625 2.8375 5.62917 1.42917 6.81667 0C7.99583 1.42083 9.16667 2.83333 10.3458 4.25417C9.95417 4.47917 9.575 4.69167 9.18333 4.91667C9.94167 5.74167 10.6917 6.55833 11.45 7.3875C10.9458 7.60833 10.4625 7.825 9.95833 8.05C10.825 8.875 11.6792 9.69167 12.5542 10.5208C12.1667 10.7417 11.7875 10.9583 11.3917 11.1833C12.1417 12 12.8833 12.8125 13.6458 13.6417C9.09167 13.6417 4.55833 13.6417 0 13.6417C0.754167 12.8208 1.49583 12.0125 2.25417 11.1833C1.8625 10.9625 1.48333 10.7458 1.09167 10.5208C1.85 9.69583 2.59583 8.87917 3.35833 8.05C2.96667 7.825 2.5875 7.6125 2.19583 7.3875C2.94167 6.5625 3.6875 5.75 4.45 4.91667C4.0625 4.69583 3.68333 4.47917 3.2875 4.25417Z" fill="#96A1DB"/>
</svg>
